<ttFont>
    <TTGlyph name="A" xMin="36" yMin="-10" xMax="325" yMax="660">
      <contour>
        <pt x="36" y="12" on="1"/>
        <pt x="36" y="554" on="1"/>
        <pt x="36" y="604" on="0"/>
        <pt x="104" y="660" on="0"/>
        <pt x="222" y="660" on="0"/>
        <pt x="287" y="608" on="0"/>
        <pt x="287" y="558" on="1"/>
        <pt x="287" y="85" on="1"/>
        <pt x="287" y="64" on="0"/>
        <pt x="304" y="47" on="0"/>
        <pt x="325" y="47" on="1"/>
        <pt x="325" y="-10" on="0"/>
        <pt x="261" y="-10" on="1"/>
        <pt x="208" y="-10" on="0"/>
        <pt x="208" y="59" on="1"/>
        <pt x="208" y="250" on="1"/>
        <pt x="115" y="250" on="1"/>
        <pt x="115" y="94" on="1"/>
        <pt x="119" y="0" on="1"/>
        <pt x="85" y="-5" on="0"/>
        <pt x="52" y="-5" on="1"/>
        <pt x="36" y="-5" on="0"/>
      </contour>
      <contour>
        <pt x="115" y="554" on="1"/>
        <pt x="115" y="316" on="1"/>
        <pt x="208" y="316" on="1"/>
        <pt x="208" y="554" on="1"/>
        <pt x="208" y="573" on="0"/>
        <pt x="182" y="594" on="0"/>
        <pt x="140" y="594" on="0"/>
        <pt x="115" y="573" on="0"/>
      </contour>
    </TTGlyph>
    <TTGlyph name="AE" xMin="36" yMin="-10" xMax="459" yMax="660">
      <contour>
        <pt x="345" y="328" on="1"/>
        <pt x="381" y="328" on="0"/>
        <pt x="399" y="333" on="1"/>
        <pt x="407" y="305" on="0"/>
        <pt x="407" y="278" on="1"/>
        <pt x="407" y="262" on="0"/>
        <pt x="393" y="262" on="1"/>
        <pt x="288" y="262" on="1"/>
        <pt x="287" y="96" on="1"/>
        <pt x="287" y="77" on="0"/>
        <pt x="312" y="56" on="0"/>
        <pt x="354" y="56" on="0"/>
        <pt x="380" y="77" on="0"/>
        <pt x="380" y="96" on="1"/>
        <pt x="380" y="121" on="1"/>
        <pt x="377" y="172" on="1"/>
        <pt x="391" y="175" on="0"/>
        <pt x="419" y="175" on="0"/>
        <pt x="433" y="171" on="1"/>
        <pt x="459" y="164" on="0"/>
        <pt x="459" y="146" on="1"/>
        <pt x="459" y="82" on="1"/>
        <pt x="459" y="41" on="0"/>
        <pt x="391" y="-10" on="0"/>
        <pt x="276" y="-10" on="0"/>
        <pt x="208" y="46" on="0"/>
        <pt x="208" y="96" on="1"/>
        <pt x="209" y="262" on="1"/>
        <pt x="116" y="262" on="1"/>
        <pt x="115" y="94" on="1"/>
        <pt x="119" y="0" on="1"/>
        <pt x="85" y="-5" on="0"/>
        <pt x="52" y="-5" on="1"/>
        <pt x="36" y="-5" on="0"/>
        <pt x="36" y="12" on="1"/>
        <pt x="36" y="554" on="1"/>
        <pt x="36" y="604" on="0"/>
        <pt x="104" y="660" on="0"/>
        <pt x="218" y="660" on="0"/>
        <pt x="249" y="638" on="1"/>
        <pt x="284" y="660" on="0"/>
        <pt x="389" y="660" on="0"/>
        <pt x="455" y="609" on="0"/>
        <pt x="455" y="568" on="1"/>
        <pt x="455" y="484" on="1"/>
        <pt x="455" y="466" on="0"/>
        <pt x="429" y="459" on="1"/>
        <pt x="415" y="455" on="0"/>
        <pt x="387" y="455" on="0"/>
        <pt x="373" y="458" on="1"/>
        <pt x="376" y="482" on="0"/>
        <pt x="376" y="509" on="1"/>
        <pt x="376" y="554" on="1"/>
        <pt x="376" y="594" on="0"/>
        <pt x="332" y="594" on="1"/>
        <pt x="311" y="594" on="0"/>
        <pt x="287" y="573" on="0"/>
        <pt x="287" y="554" on="1"/>
        <pt x="288" y="328" on="1"/>
      </contour>
      <contour>
        <pt x="182" y="594" on="0"/>
        <pt x="140" y="594" on="0"/>
        <pt x="115" y="573" on="0"/>
        <pt x="115" y="554" on="1"/>
        <pt x="116" y="328" on="1"/>
        <pt x="209" y="328" on="1"/>
        <pt x="208" y="554" on="1"/>
        <pt x="208" y="573" on="0"/>
      </contour>
    </TTGlyph>
    <TTGlyph name="Aacute" xMin="36" yMin="-10" xMax="325" yMax="846">
      <contour>
        <pt x="36" y="12" on="1"/>
        <pt x="36" y="554" on="1"/>
        <pt x="36" y="604" on="0"/>
        <pt x="104" y="660" on="0"/>
        <pt x="222" y="660" on="0"/>
        <pt x="287" y="608" on="0"/>
        <pt x="287" y="558" on="1"/>
        <pt x="287" y="85" on="1"/>
        <pt x="287" y="64" on="0"/>
        <pt x="304" y="47" on="0"/>
        <pt x="325" y="47" on="1"/>
        <pt x="325" y="-10" on="0"/>
        <pt x="261" y="-10" on="1"/>
        <pt x="208" y="-10" on="0"/>
        <pt x="208" y="59" on="1"/>
        <pt x="208" y="250" on="1"/>
        <pt x="115" y="250" on="1"/>
        <pt x="115" y="94" on="1"/>
        <pt x="119" y="0" on="1"/>
        <pt x="85" y="-5" on="0"/>
        <pt x="52" y="-5" on="1"/>
        <pt x="36" y="-5" on="0"/>
      </contour>
      <contour>
        <pt x="115" y="554" on="1"/>
        <pt x="115" y="316" on="1"/>
        <pt x="208" y="316" on="1"/>
        <pt x="208" y="554" on="1"/>
        <pt x="208" y="573" on="0"/>
        <pt x="182" y="594" on="0"/>
        <pt x="140" y="594" on="0"/>
        <pt x="115" y="573" on="0"/>
      </contour>
      <contour>
        <pt x="182" y="846" on="1"/>
        <pt x="253" y="824" on="0"/>
        <pt x="253" y="811" on="1"/>
        <pt x="253" y="808" on="0"/>
        <pt x="250" y="803" on="1"/>
        <pt x="192" y="718" on="1"/>
        <pt x="174" y="688" on="1"/>
        <pt x="133" y="703" on="0"/>
        <pt x="133" y="714" on="1"/>
        <pt x="133" y="717" on="0"/>
        <pt x="135" y="720" on="1"/>
        <pt x="169" y="802" on="1"/>
      </contour>
    </TTGlyph>
    <TTGlyph name="Acircumflex" xMin="36" yMin="-10" xMax="325" yMax="844">
      <contour>
        <pt x="36" y="12" on="1"/>
        <pt x="36" y="554" on="1"/>
        <pt x="36" y="604" on="0"/>
        <pt x="104" y="660" on="0"/>
        <pt x="222" y="660" on="0"/>
        <pt x="287" y="608" on="0"/>
        <pt x="287" y="558" on="1"/>
        <pt x="287" y="85" on="1"/>
        <pt x="287" y="64" on="0"/>
        <pt x="304" y="47" on="0"/>
        <pt x="325" y="47" on="1"/>
        <pt x="325" y="-10" on="0"/>
        <pt x="261" y="-10" on="1"/>
        <pt x="208" y="-10" on="0"/>
        <pt x="208" y="59" on="1"/>
        <pt x="208" y="250" on="1"/>
        <pt x="115" y="250" on="1"/>
        <pt x="115" y="94" on="1"/>
        <pt x="119" y="0" on="1"/>
        <pt x="85" y="-5" on="0"/>
        <pt x="52" y="-5" on="1"/>
        <pt x="36" y="-5" on="0"/>
      </contour>
      <contour>
        <pt x="115" y="554" on="1"/>
        <pt x="115" y="316" on="1"/>
        <pt x="208" y="316" on="1"/>
        <pt x="208" y="554" on="1"/>
        <pt x="208" y="573" on="0"/>
        <pt x="182" y="594" on="0"/>
        <pt x="140" y="594" on="0"/>
        <pt x="115" y="573" on="0"/>
      </contour>
      <contour>
        <pt x="105" y="688" on="1"/>
        <pt x="63" y="703" on="0"/>
        <pt x="63" y="714" on="1"/>
        <pt x="63" y="717" on="0"/>
        <pt x="65" y="720" on="1"/>
        <pt x="109" y="802" on="1"/>
        <pt x="124" y="836" on="1"/>
        <pt x="134" y="844" on="0"/>
        <pt x="188" y="844" on="0"/>
        <pt x="202" y="837" on="1"/>
        <pt x="207" y="822" on="0"/>
        <pt x="218" y="802" on="1"/>
        <pt x="262" y="720" on="1"/>
        <pt x="264" y="717" on="0"/>
        <pt x="264" y="709" on="0"/>
        <pt x="259" y="706" on="1"/>
        <pt x="222" y="688" on="1"/>
        <pt x="217" y="701" on="0"/>
        <pt x="205" y="718" on="1"/>
        <pt x="163" y="778" on="1"/>
        <pt x="122" y="718" on="1"/>
      </contour>
    </TTGlyph>
    <TTGlyph name="Adieresis" xMin="36" yMin="-10" xMax="325" yMax="815">
      <contour>
        <pt x="36" y="12" on="1"/>
        <pt x="36" y="554" on="1"/>
        <pt x="36" y="604" on="0"/>
        <pt x="104" y="660" on="0"/>
        <pt x="222" y="660" on="0"/>
        <pt x="287" y="608" on="0"/>
        <pt x="287" y="558" on="1"/>
        <pt x="287" y="85" on="1"/>
        <pt x="287" y="64" on="0"/>
        <pt x="304" y="47" on="0"/>
        <pt x="325" y="47" on="1"/>
        <pt x="325" y="-10" on="0"/>
        <pt x="261" y="-10" on="1"/>
        <pt x="208" y="-10" on="0"/>
        <pt x="208" y="59" on="1"/>
        <pt x="208" y="250" on="1"/>
        <pt x="115" y="250" on="1"/>
        <pt x="115" y="94" on="1"/>
        <pt x="119" y="0" on="1"/>
        <pt x="85" y="-5" on="0"/>
        <pt x="52" y="-5" on="1"/>
        <pt x="36" y="-5" on="0"/>
      </contour>
      <contour>
        <pt x="115" y="554" on="1"/>
        <pt x="115" y="316" on="1"/>
        <pt x="208" y="316" on="1"/>
        <pt x="208" y="554" on="1"/>
        <pt x="208" y="573" on="0"/>
        <pt x="182" y="594" on="0"/>
        <pt x="140" y="594" on="0"/>
        <pt x="115" y="573" on="0"/>
      </contour>
      <contour>
        <pt x="63" y="701" on="0"/>
        <pt x="63" y="815" on="0"/>
        <pt x="149" y="815" on="0"/>
        <pt x="149" y="701" on="0"/>
      </contour>
      <contour>
        <pt x="176" y="701" on="0"/>
        <pt x="176" y="815" on="0"/>
        <pt x="262" y="815" on="0"/>
        <pt x="262" y="701" on="0"/>
      </contour>
    </TTGlyph>
    <TTGlyph name="Agrave" xMin="36" yMin="-10" xMax="325" yMax="846">
      <contour>
        <pt x="36" y="12" on="1"/>
        <pt x="36" y="554" on="1"/>
        <pt x="36" y="604" on="0"/>
        <pt x="104" y="660" on="0"/>
        <pt x="222" y="660" on="0"/>
        <pt x="287" y="608" on="0"/>
        <pt x="287" y="558" on="1"/>
        <pt x="287" y="85" on="1"/>
        <pt x="287" y="64" on="0"/>
        <pt x="304" y="47" on="0"/>
        <pt x="325" y="47" on="1"/>
        <pt x="325" y="-10" on="0"/>
        <pt x="261" y="-10" on="1"/>
        <pt x="208" y="-10" on="0"/>
        <pt x="208" y="59" on="1"/>
        <pt x="208" y="250" on="1"/>
        <pt x="115" y="250" on="1"/>
        <pt x="115" y="94" on="1"/>
        <pt x="119" y="0" on="1"/>
        <pt x="85" y="-5" on="0"/>
        <pt x="52" y="-5" on="1"/>
        <pt x="36" y="-5" on="0"/>
      </contour>
      <contour>
        <pt x="115" y="554" on="1"/>
        <pt x="115" y="316" on="1"/>
        <pt x="208" y="316" on="1"/>
        <pt x="208" y="554" on="1"/>
        <pt x="208" y="573" on="0"/>
        <pt x="182" y="594" on="0"/>
        <pt x="140" y="594" on="0"/>
        <pt x="115" y="573" on="0"/>
      </contour>
      <contour>
        <pt x="198" y="720" on="1"/>
        <pt x="200" y="717" on="0"/>
        <pt x="200" y="709" on="0"/>
        <pt x="195" y="706" on="1"/>
        <pt x="159" y="688" on="1"/>
        <pt x="152" y="701" on="0"/>
        <pt x="141" y="718" on="1"/>
        <pt x="83" y="803" on="1"/>
        <pt x="80" y="808" on="0"/>
        <pt x="80" y="812" on="1"/>
        <pt x="80" y="819" on="0"/>
        <pt x="131" y="840" on="0"/>
        <pt x="141" y="843" on="1"/>
        <pt x="151" y="846" on="1"/>
        <pt x="155" y="823" on="0"/>
        <pt x="164" y="802" on="1"/>
      </contour>
    </TTGlyph>
    <TTGlyph name="Aring" xMin="36" yMin="-10" xMax="325" yMax="831">
      <contour>
        <pt x="36" y="12" on="1"/>
        <pt x="36" y="554" on="1"/>
        <pt x="36" y="604" on="0"/>
        <pt x="104" y="660" on="0"/>
        <pt x="222" y="660" on="0"/>
        <pt x="287" y="608" on="0"/>
        <pt x="287" y="558" on="1"/>
        <pt x="287" y="85" on="1"/>
        <pt x="287" y="64" on="0"/>
        <pt x="304" y="47" on="0"/>
        <pt x="325" y="47" on="1"/>
        <pt x="325" y="-10" on="0"/>
        <pt x="261" y="-10" on="1"/>
        <pt x="208" y="-10" on="0"/>
        <pt x="208" y="59" on="1"/>
        <pt x="208" y="250" on="1"/>
        <pt x="115" y="250" on="1"/>
        <pt x="115" y="94" on="1"/>
        <pt x="119" y="0" on="1"/>
        <pt x="85" y="-5" on="0"/>
        <pt x="52" y="-5" on="1"/>
        <pt x="36" y="-5" on="0"/>
      </contour>
      <contour>
        <pt x="115" y="554" on="1"/>
        <pt x="115" y="316" on="1"/>
        <pt x="208" y="316" on="1"/>
        <pt x="208" y="554" on="1"/>
        <pt x="208" y="573" on="0"/>
        <pt x="182" y="594" on="0"/>
        <pt x="140" y="594" on="0"/>
        <pt x="115" y="573" on="0"/>
      </contour>
      <contour>
        <pt x="78" y="738" on="1"/>
        <pt x="78" y="772" on="1"/>
        <pt x="78" y="831" on="0"/>
        <pt x="244" y="831" on="0"/>
        <pt x="244" y="774" on="1"/>
        <pt x="244" y="740" on="1"/>
        <pt x="244" y="681" on="0"/>
        <pt x="78" y="681" on="0"/>
      </contour>
      <contour>
        <pt x="124" y="770" on="1"/>
        <pt x="124" y="742" on="1"/>
        <pt x="124" y="718" on="0"/>
        <pt x="198" y="718" on="0"/>
        <pt x="198" y="742" on="1"/>
        <pt x="198" y="770" on="1"/>
        <pt x="198" y="794" on="0"/>
        <pt x="124" y="794" on="0"/>
      </contour>
    </TTGlyph>
    <TTGlyph name="Atilde" xMin="36" yMin="-10" xMax="325" yMax="808">
      <contour>
        <pt x="36" y="12" on="1"/>
        <pt x="36" y="554" on="1"/>
        <pt x="36" y="604" on="0"/>
        <pt x="104" y="660" on="0"/>
        <pt x="222" y="660" on="0"/>
        <pt x="287" y="608" on="0"/>
        <pt x="287" y="558" on="1"/>
        <pt x="287" y="85" on="1"/>
        <pt x="287" y="64" on="0"/>
        <pt x="304" y="47" on="0"/>
        <pt x="325" y="47" on="1"/>
        <pt x="325" y="-10" on="0"/>
        <pt x="261" y="-10" on="1"/>
        <pt x="208" y="-10" on="0"/>
        <pt x="208" y="59" on="1"/>
        <pt x="208" y="250" on="1"/>
        <pt x="115" y="250" on="1"/>
        <pt x="115" y="94" on="1"/>
        <pt x="119" y="0" on="1"/>
        <pt x="85" y="-5" on="0"/>
        <pt x="52" y="-5" on="1"/>
        <pt x="36" y="-5" on="0"/>
      </contour>
      <contour>
        <pt x="115" y="554" on="1"/>
        <pt x="115" y="316" on="1"/>
        <pt x="208" y="316" on="1"/>
        <pt x="208" y="554" on="1"/>
        <pt x="208" y="573" on="0"/>
        <pt x="182" y="594" on="0"/>
        <pt x="140" y="594" on="0"/>
        <pt x="115" y="573" on="0"/>
      </contour>
      <contour>
        <pt x="88" y="712" on="1"/>
        <pt x="50" y="716" on="0"/>
        <pt x="50" y="751" on="1"/>
        <pt x="50" y="755" on="0"/>
        <pt x="51" y="760" on="1"/>
        <pt x="56" y="797" on="0"/>
        <pt x="98" y="797" on="1"/>
        <pt x="104" y="797" on="0"/>
        <pt x="111" y="796" on="1"/>
        <pt x="202" y="783" on="1"/>
        <pt x="217" y="782" on="0"/>
        <pt x="230" y="792" on="0"/>
        <pt x="233" y="808" on="1"/>
        <pt x="252" y="807" on="0"/>
        <pt x="270" y="783" on="0"/>
        <pt x="270" y="773" on="1"/>
        <pt x="270" y="723" on="0"/>
        <pt x="222" y="723" on="1"/>
        <pt x="216" y="723" on="0"/>
        <pt x="209" y="724" on="1"/>
        <pt x="119" y="738" on="1"/>
        <pt x="104" y="738" on="0"/>
        <pt x="91" y="727" on="0"/>
      </contour>
    </TTGlyph>
    <TTGlyph name="B" xMin="6" yMin="0" xMax="299" yMax="650">
      <contour>
        <pt x="43" y="0" on="1"/>
        <pt x="43" y="553" on="1"/>
        <pt x="43" y="575" on="0"/>
        <pt x="27" y="594" on="0"/>
        <pt x="6" y="594" on="1"/>
        <pt x="5" y="620" on="0"/>
        <pt x="35" y="650" on="0"/>
        <pt x="102" y="650" on="0"/>
        <pt x="115" y="617" on="1"/>
        <pt x="154" y="650" on="0"/>
        <pt x="195" y="650" on="1"/>
        <pt x="294" y="650" on="0"/>
        <pt x="294" y="552" on="1"/>
        <pt x="294" y="377" on="1"/>
        <pt x="294" y="331" on="0"/>
        <pt x="265" y="307" on="1"/>
        <pt x="299" y="284" on="0"/>
        <pt x="299" y="231" on="1"/>
        <pt x="299" y="106" on="1"/>
        <pt x="299" y="56" on="0"/>
        <pt x="230" y="0" on="0"/>
        <pt x="171" y="0" on="1"/>
      </contour>
      <contour>
        <pt x="176" y="584" on="1"/>
        <pt x="149" y="584" on="0"/>
        <pt x="122" y="557" on="1"/>
        <pt x="122" y="337" on="1"/>
        <pt x="171" y="337" on="1"/>
        <pt x="191" y="337" on="0"/>
        <pt x="215" y="359" on="0"/>
        <pt x="215" y="377" on="1"/>
        <pt x="215" y="546" on="1"/>
        <pt x="215" y="584" on="0"/>
      </contour>
      <contour>
        <pt x="122" y="271" on="1"/>
        <pt x="122" y="66" on="1"/>
        <pt x="173" y="66" on="1"/>
        <pt x="194" y="66" on="0"/>
        <pt x="220" y="87" on="0"/>
        <pt x="220" y="106" on="1"/>
        <pt x="220" y="231" on="1"/>
        <pt x="220" y="250" on="0"/>
        <pt x="194" y="271" on="0"/>
        <pt x="173" y="271" on="1"/>
      </contour>
    </TTGlyph>
    <TTGlyph name="C" xMin="33" yMin="-10" xMax="284" yMax="660">
      <contour>
        <pt x="284" y="46" on="0"/>
        <pt x="213" y="-10" on="0"/>
        <pt x="99" y="-10" on="0"/>
        <pt x="33" y="42" on="0"/>
        <pt x="33" y="92" on="1"/>
        <pt x="33" y="554" on="1"/>
        <pt x="33" y="604" on="0"/>
        <pt x="101" y="660" on="0"/>
        <pt x="216" y="660" on="0"/>
        <pt x="284" y="609" on="0"/>
        <pt x="284" y="568" on="1"/>
        <pt x="284" y="444" on="1"/>
        <pt x="284" y="426" on="0"/>
        <pt x="258" y="419" on="1"/>
        <pt x="244" y="415" on="0"/>
        <pt x="216" y="415" on="0"/>
        <pt x="202" y="418" on="1"/>
        <pt x="205" y="442" on="0"/>
        <pt x="205" y="469" on="1"/>
        <pt x="205" y="554" on="1"/>
        <pt x="205" y="573" on="0"/>
        <pt x="179" y="594" on="0"/>
        <pt x="137" y="594" on="0"/>
        <pt x="112" y="573" on="0"/>
        <pt x="112" y="554" on="1"/>
        <pt x="112" y="96" on="1"/>
        <pt x="112" y="78" on="0"/>
        <pt x="137" y="56" on="0"/>
        <pt x="179" y="56" on="0"/>
        <pt x="205" y="77" on="0"/>
        <pt x="205" y="96" on="1"/>
        <pt x="205" y="118" on="1"/>
        <pt x="202" y="169" on="1"/>
        <pt x="216" y="172" on="0"/>
        <pt x="244" y="172" on="0"/>
        <pt x="258" y="168" on="1"/>
        <pt x="284" y="161" on="0"/>
        <pt x="284" y="143" on="1"/>
        <pt x="284" y="88" on="1"/>
      </contour>
    </TTGlyph>
    <TTGlyph name="Ccedilla" xMin="33" yMin="-155" xMax="284" yMax="660">
      <contour>
        <pt x="216" y="-152" on="1"/>
        <pt x="170" y="-152" on="1"/>
        <pt x="137" y="-155" on="1"/>
        <pt x="133" y="-138" on="0"/>
        <pt x="133" y="-113" on="0"/>
        <pt x="142" y="-113" on="1"/>
        <pt x="209" y="-113" on="1"/>
        <pt x="230" y="-113" on="0"/>
        <pt x="230" y="-69" on="0"/>
        <pt x="209" y="-69" on="1"/>
        <pt x="146" y="-69" on="1"/>
        <pt x="146" y="-9" on="1"/>
        <pt x="33" y="-4" on="0"/>
        <pt x="33" y="92" on="1"/>
        <pt x="33" y="554" on="1"/>
        <pt x="33" y="604" on="0"/>
        <pt x="101" y="660" on="0"/>
        <pt x="216" y="660" on="0"/>
        <pt x="284" y="609" on="0"/>
        <pt x="284" y="568" on="1"/>
        <pt x="284" y="444" on="1"/>
        <pt x="284" y="426" on="0"/>
        <pt x="258" y="419" on="1"/>
        <pt x="244" y="415" on="0"/>
        <pt x="216" y="415" on="0"/>
        <pt x="202" y="418" on="1"/>
        <pt x="205" y="442" on="0"/>
        <pt x="205" y="469" on="1"/>
        <pt x="205" y="554" on="1"/>
        <pt x="205" y="573" on="0"/>
        <pt x="179" y="594" on="0"/>
        <pt x="137" y="594" on="0"/>
        <pt x="112" y="573" on="0"/>
        <pt x="112" y="554" on="1"/>
        <pt x="112" y="96" on="1"/>
        <pt x="112" y="78" on="0"/>
        <pt x="137" y="56" on="0"/>
        <pt x="179" y="56" on="0"/>
        <pt x="205" y="77" on="0"/>
        <pt x="205" y="96" on="1"/>
        <pt x="205" y="118" on="1"/>
        <pt x="202" y="169" on="1"/>
        <pt x="216" y="172" on="0"/>
        <pt x="244" y="172" on="0"/>
        <pt x="258" y="168" on="1"/>
        <pt x="284" y="161" on="0"/>
        <pt x="284" y="143" on="1"/>
        <pt x="284" y="88" on="1"/>
        <pt x="284" y="54" on="0"/>
        <pt x="237" y="4" on="0"/>
        <pt x="198" y="-5" on="1"/>
        <pt x="198" y="-29" on="1"/>
        <pt x="212" y="-29" on="1"/>
        <pt x="279" y="-29" on="0"/>
        <pt x="279" y="-91" on="1"/>
        <pt x="279" y="-123" on="0"/>
        <pt x="249" y="-152" on="0"/>
      </contour>
    </TTGlyph>
    <TTGlyph name="D" xMin="6" yMin="0" xMax="294" yMax="650">
      <contour>
        <pt x="176" y="584" on="1"/>
        <pt x="149" y="584" on="0"/>
        <pt x="122" y="557" on="1"/>
        <pt x="122" y="66" on="1"/>
        <pt x="168" y="66" on="1"/>
        <pt x="189" y="66" on="0"/>
        <pt x="215" y="87" on="0"/>
        <pt x="215" y="106" on="1"/>
        <pt x="215" y="546" on="1"/>
        <pt x="215" y="584" on="0"/>
      </contour>
      <contour>
        <pt x="195" y="650" on="1"/>
        <pt x="294" y="650" on="0"/>
        <pt x="294" y="552" on="1"/>
        <pt x="294" y="106" on="1"/>
        <pt x="294" y="56" on="0"/>
        <pt x="225" y="0" on="0"/>
        <pt x="166" y="0" on="1"/>
        <pt x="43" y="0" on="1"/>
        <pt x="43" y="553" on="1"/>
        <pt x="43" y="575" on="0"/>
        <pt x="27" y="594" on="0"/>
        <pt x="6" y="594" on="1"/>
        <pt x="5" y="620" on="0"/>
        <pt x="35" y="650" on="0"/>
        <pt x="102" y="650" on="0"/>
        <pt x="115" y="617" on="1"/>
        <pt x="154" y="650" on="0"/>
      </contour>
    </TTGlyph>
    <TTGlyph name="E" xMin="32" yMin="-10" xMax="283" yMax="660">
      <contour>
        <pt x="168" y="338" on="1"/>
        <pt x="204" y="338" on="0"/>
        <pt x="222" y="343" on="1"/>
        <pt x="230" y="315" on="0"/>
        <pt x="230" y="288" on="1"/>
        <pt x="230" y="272" on="0"/>
        <pt x="216" y="272" on="1"/>
        <pt x="157" y="272" on="1"/>
        <pt x="136" y="272" on="0"/>
        <pt x="111" y="250" on="0"/>
        <pt x="111" y="232" on="1"/>
        <pt x="111" y="96" on="1"/>
        <pt x="111" y="77" on="0"/>
        <pt x="136" y="56" on="0"/>
        <pt x="178" y="56" on="0"/>
        <pt x="204" y="77" on="0"/>
        <pt x="204" y="96" on="1"/>
        <pt x="204" y="121" on="1"/>
        <pt x="201" y="172" on="1"/>
        <pt x="215" y="175" on="0"/>
        <pt x="243" y="175" on="0"/>
        <pt x="257" y="171" on="1"/>
        <pt x="283" y="164" on="0"/>
        <pt x="283" y="146" on="1"/>
        <pt x="283" y="82" on="1"/>
        <pt x="283" y="41" on="0"/>
        <pt x="215" y="-10" on="0"/>
        <pt x="100" y="-10" on="0"/>
        <pt x="32" y="46" on="0"/>
        <pt x="32" y="96" on="1"/>
        <pt x="32" y="236" on="1"/>
        <pt x="32" y="281" on="0"/>
        <pt x="61" y="305" on="1"/>
        <pt x="32" y="329" on="0"/>
        <pt x="32" y="374" on="1"/>
        <pt x="32" y="554" on="1"/>
        <pt x="32" y="604" on="0"/>
        <pt x="100" y="660" on="0"/>
        <pt x="213" y="660" on="0"/>
        <pt x="279" y="609" on="0"/>
        <pt x="279" y="568" on="1"/>
        <pt x="279" y="484" on="1"/>
        <pt x="279" y="466" on="0"/>
        <pt x="253" y="459" on="1"/>
        <pt x="239" y="455" on="0"/>
        <pt x="211" y="455" on="0"/>
        <pt x="197" y="458" on="1"/>
        <pt x="200" y="482" on="0"/>
        <pt x="200" y="509" on="1"/>
        <pt x="200" y="554" on="1"/>
        <pt x="200" y="594" on="0"/>
        <pt x="156" y="594" on="1"/>
        <pt x="135" y="594" on="0"/>
        <pt x="111" y="573" on="0"/>
        <pt x="111" y="554" on="1"/>
        <pt x="111" y="378" on="1"/>
        <pt x="111" y="360" on="0"/>
        <pt x="134" y="338" on="0"/>
        <pt x="153" y="338" on="1"/>
      </contour>
    </TTGlyph>
    <TTGlyph name="Eacute" xMin="32" yMin="-10" xMax="283" yMax="846">
      <contour>
        <pt x="168" y="338" on="1"/>
        <pt x="204" y="338" on="0"/>
        <pt x="222" y="343" on="1"/>
        <pt x="230" y="315" on="0"/>
        <pt x="230" y="288" on="1"/>
        <pt x="230" y="272" on="0"/>
        <pt x="216" y="272" on="1"/>
        <pt x="157" y="272" on="1"/>
        <pt x="136" y="272" on="0"/>
        <pt x="111" y="250" on="0"/>
        <pt x="111" y="232" on="1"/>
        <pt x="111" y="96" on="1"/>
        <pt x="111" y="77" on="0"/>
        <pt x="136" y="56" on="0"/>
        <pt x="178" y="56" on="0"/>
        <pt x="204" y="77" on="0"/>
        <pt x="204" y="96" on="1"/>
        <pt x="204" y="121" on="1"/>
        <pt x="201" y="172" on="1"/>
        <pt x="215" y="175" on="0"/>
        <pt x="243" y="175" on="0"/>
        <pt x="257" y="171" on="1"/>
        <pt x="283" y="164" on="0"/>
        <pt x="283" y="146" on="1"/>
        <pt x="283" y="82" on="1"/>
        <pt x="283" y="41" on="0"/>
        <pt x="215" y="-10" on="0"/>
        <pt x="100" y="-10" on="0"/>
        <pt x="32" y="46" on="0"/>
        <pt x="32" y="96" on="1"/>
        <pt x="32" y="236" on="1"/>
        <pt x="32" y="281" on="0"/>
        <pt x="61" y="305" on="1"/>
        <pt x="32" y="329" on="0"/>
        <pt x="32" y="374" on="1"/>
        <pt x="32" y="554" on="1"/>
        <pt x="32" y="604" on="0"/>
        <pt x="100" y="660" on="0"/>
        <pt x="213" y="660" on="0"/>
        <pt x="279" y="609" on="0"/>
        <pt x="279" y="568" on="1"/>
        <pt x="279" y="484" on="1"/>
        <pt x="279" y="466" on="0"/>
        <pt x="253" y="459" on="1"/>
        <pt x="239" y="455" on="0"/>
        <pt x="211" y="455" on="0"/>
        <pt x="197" y="458" on="1"/>
        <pt x="200" y="482" on="0"/>
        <pt x="200" y="509" on="1"/>
        <pt x="200" y="554" on="1"/>
        <pt x="200" y="594" on="0"/>
        <pt x="156" y="594" on="1"/>
        <pt x="135" y="594" on="0"/>
        <pt x="111" y="573" on="0"/>
        <pt x="111" y="554" on="1"/>
        <pt x="111" y="378" on="1"/>
        <pt x="111" y="360" on="0"/>
        <pt x="134" y="338" on="0"/>
        <pt x="153" y="338" on="1"/>
      </contour>
      <contour>
        <pt x="175" y="846" on="1"/>
        <pt x="246" y="824" on="0"/>
        <pt x="246" y="811" on="1"/>
        <pt x="246" y="808" on="0"/>
        <pt x="243" y="803" on="1"/>
        <pt x="185" y="718" on="1"/>
        <pt x="167" y="688" on="1"/>
        <pt x="126" y="703" on="0"/>
        <pt x="126" y="714" on="1"/>
        <pt x="126" y="717" on="0"/>
        <pt x="128" y="720" on="1"/>
        <pt x="162" y="802" on="1"/>
      </contour>
    </TTGlyph>
    <TTGlyph name="Ecircumflex" xMin="32" yMin="-10" xMax="283" yMax="844">
      <contour>
        <pt x="168" y="338" on="1"/>
        <pt x="204" y="338" on="0"/>
        <pt x="222" y="343" on="1"/>
        <pt x="230" y="315" on="0"/>
        <pt x="230" y="288" on="1"/>
        <pt x="230" y="272" on="0"/>
        <pt x="216" y="272" on="1"/>
        <pt x="157" y="272" on="1"/>
        <pt x="136" y="272" on="0"/>
        <pt x="111" y="250" on="0"/>
        <pt x="111" y="232" on="1"/>
        <pt x="111" y="96" on="1"/>
        <pt x="111" y="77" on="0"/>
        <pt x="136" y="56" on="0"/>
        <pt x="178" y="56" on="0"/>
        <pt x="204" y="77" on="0"/>
        <pt x="204" y="96" on="1"/>
        <pt x="204" y="121" on="1"/>
        <pt x="201" y="172" on="1"/>
        <pt x="215" y="175" on="0"/>
        <pt x="243" y="175" on="0"/>
        <pt x="257" y="171" on="1"/>
        <pt x="283" y="164" on="0"/>
        <pt x="283" y="146" on="1"/>
        <pt x="283" y="82" on="1"/>
        <pt x="283" y="41" on="0"/>
        <pt x="215" y="-10" on="0"/>
        <pt x="100" y="-10" on="0"/>
        <pt x="32" y="46" on="0"/>
        <pt x="32" y="96" on="1"/>
        <pt x="32" y="236" on="1"/>
        <pt x="32" y="281" on="0"/>
        <pt x="61" y="305" on="1"/>
        <pt x="32" y="329" on="0"/>
        <pt x="32" y="374" on="1"/>
        <pt x="32" y="554" on="1"/>
        <pt x="32" y="604" on="0"/>
        <pt x="100" y="660" on="0"/>
        <pt x="213" y="660" on="0"/>
        <pt x="279" y="609" on="0"/>
        <pt x="279" y="568" on="1"/>
        <pt x="279" y="484" on="1"/>
        <pt x="279" y="466" on="0"/>
        <pt x="253" y="459" on="1"/>
        <pt x="239" y="455" on="0"/>
        <pt x="211" y="455" on="0"/>
        <pt x="197" y="458" on="1"/>
        <pt x="200" y="482" on="0"/>
        <pt x="200" y="509" on="1"/>
        <pt x="200" y="554" on="1"/>
        <pt x="200" y="594" on="0"/>
        <pt x="156" y="594" on="1"/>
        <pt x="135" y="594" on="0"/>
        <pt x="111" y="573" on="0"/>
        <pt x="111" y="554" on="1"/>
        <pt x="111" y="378" on="1"/>
        <pt x="111" y="360" on="0"/>
        <pt x="134" y="338" on="0"/>
        <pt x="153" y="338" on="1"/>
      </contour>
      <contour>
        <pt x="96" y="688" on="1"/>
        <pt x="54" y="703" on="0"/>
        <pt x="54" y="714" on="1"/>
        <pt x="54" y="717" on="0"/>
        <pt x="56" y="720" on="1"/>
        <pt x="100" y="802" on="1"/>
        <pt x="115" y="836" on="1"/>
        <pt x="125" y="844" on="0"/>
        <pt x="179" y="844" on="0"/>
        <pt x="193" y="837" on="1"/>
        <pt x="198" y="822" on="0"/>
        <pt x="209" y="802" on="1"/>
        <pt x="253" y="720" on="1"/>
        <pt x="255" y="717" on="0"/>
        <pt x="255" y="709" on="0"/>
        <pt x="250" y="706" on="1"/>
        <pt x="213" y="688" on="1"/>
        <pt x="208" y="701" on="0"/>
        <pt x="196" y="718" on="1"/>
        <pt x="154" y="778" on="1"/>
        <pt x="113" y="718" on="1"/>
      </contour>
    </TTGlyph>
    <TTGlyph name="Edieresis" xMin="32" yMin="-10" xMax="283" yMax="815">
      <contour>
        <pt x="168" y="338" on="1"/>
        <pt x="204" y="338" on="0"/>
        <pt x="222" y="343" on="1"/>
        <pt x="230" y="315" on="0"/>
        <pt x="230" y="288" on="1"/>
        <pt x="230" y="272" on="0"/>
        <pt x="216" y="272" on="1"/>
        <pt x="157" y="272" on="1"/>
        <pt x="136" y="272" on="0"/>
        <pt x="111" y="250" on="0"/>
        <pt x="111" y="232" on="1"/>
        <pt x="111" y="96" on="1"/>
        <pt x="111" y="77" on="0"/>
        <pt x="136" y="56" on="0"/>
        <pt x="178" y="56" on="0"/>
        <pt x="204" y="77" on="0"/>
        <pt x="204" y="96" on="1"/>
        <pt x="204" y="121" on="1"/>
        <pt x="201" y="172" on="1"/>
        <pt x="215" y="175" on="0"/>
        <pt x="243" y="175" on="0"/>
        <pt x="257" y="171" on="1"/>
        <pt x="283" y="164" on="0"/>
        <pt x="283" y="146" on="1"/>
        <pt x="283" y="82" on="1"/>
        <pt x="283" y="41" on="0"/>
        <pt x="215" y="-10" on="0"/>
        <pt x="100" y="-10" on="0"/>
        <pt x="32" y="46" on="0"/>
        <pt x="32" y="96" on="1"/>
        <pt x="32" y="236" on="1"/>
        <pt x="32" y="281" on="0"/>
        <pt x="61" y="305" on="1"/>
        <pt x="32" y="329" on="0"/>
        <pt x="32" y="374" on="1"/>
        <pt x="32" y="554" on="1"/>
        <pt x="32" y="604" on="0"/>
        <pt x="100" y="660" on="0"/>
        <pt x="213" y="660" on="0"/>
        <pt x="279" y="609" on="0"/>
        <pt x="279" y="568" on="1"/>
        <pt x="279" y="484" on="1"/>
        <pt x="279" y="466" on="0"/>
        <pt x="253" y="459" on="1"/>
        <pt x="239" y="455" on="0"/>
        <pt x="211" y="455" on="0"/>
        <pt x="197" y="458" on="1"/>
        <pt x="200" y="482" on="0"/>
        <pt x="200" y="509" on="1"/>
        <pt x="200" y="554" on="1"/>
        <pt x="200" y="594" on="0"/>
        <pt x="156" y="594" on="1"/>
        <pt x="135" y="594" on="0"/>
        <pt x="111" y="573" on="0"/>
        <pt x="111" y="554" on="1"/>
        <pt x="111" y="378" on="1"/>
        <pt x="111" y="360" on="0"/>
        <pt x="134" y="338" on="0"/>
        <pt x="153" y="338" on="1"/>
      </contour>
      <contour>
        <pt x="56" y="701" on="0"/>
        <pt x="56" y="815" on="0"/>
        <pt x="142" y="815" on="0"/>
        <pt x="142" y="701" on="0"/>
      </contour>
      <contour>
        <pt x="169" y="701" on="0"/>
        <pt x="169" y="815" on="0"/>
        <pt x="255" y="815" on="0"/>
        <pt x="255" y="701" on="0"/>
      </contour>
    </TTGlyph>
    <TTGlyph name="Egrave" xMin="32" yMin="-10" xMax="283" yMax="846">
      <contour>
        <pt x="168" y="338" on="1"/>
        <pt x="204" y="338" on="0"/>
        <pt x="222" y="343" on="1"/>
        <pt x="230" y="315" on="0"/>
        <pt x="230" y="288" on="1"/>
        <pt x="230" y="272" on="0"/>
        <pt x="216" y="272" on="1"/>
        <pt x="157" y="272" on="1"/>
        <pt x="136" y="272" on="0"/>
        <pt x="111" y="250" on="0"/>
        <pt x="111" y="232" on="1"/>
        <pt x="111" y="96" on="1"/>
        <pt x="111" y="77" on="0"/>
        <pt x="136" y="56" on="0"/>
        <pt x="178" y="56" on="0"/>
        <pt x="204" y="77" on="0"/>
        <pt x="204" y="96" on="1"/>
        <pt x="204" y="121" on="1"/>
        <pt x="201" y="172" on="1"/>
        <pt x="215" y="175" on="0"/>
        <pt x="243" y="175" on="0"/>
        <pt x="257" y="171" on="1"/>
        <pt x="283" y="164" on="0"/>
        <pt x="283" y="146" on="1"/>
        <pt x="283" y="82" on="1"/>
        <pt x="283" y="41" on="0"/>
        <pt x="215" y="-10" on="0"/>
        <pt x="100" y="-10" on="0"/>
        <pt x="32" y="46" on="0"/>
        <pt x="32" y="96" on="1"/>
        <pt x="32" y="236" on="1"/>
        <pt x="32" y="281" on="0"/>
        <pt x="61" y="305" on="1"/>
        <pt x="32" y="329" on="0"/>
        <pt x="32" y="374" on="1"/>
        <pt x="32" y="554" on="1"/>
        <pt x="32" y="604" on="0"/>
        <pt x="100" y="660" on="0"/>
        <pt x="213" y="660" on="0"/>
        <pt x="279" y="609" on="0"/>
        <pt x="279" y="568" on="1"/>
        <pt x="279" y="484" on="1"/>
        <pt x="279" y="466" on="0"/>
        <pt x="253" y="459" on="1"/>
        <pt x="239" y="455" on="0"/>
        <pt x="211" y="455" on="0"/>
        <pt x="197" y="458" on="1"/>
        <pt x="200" y="482" on="0"/>
        <pt x="200" y="509" on="1"/>
        <pt x="200" y="554" on="1"/>
        <pt x="200" y="594" on="0"/>
        <pt x="156" y="594" on="1"/>
        <pt x="135" y="594" on="0"/>
        <pt x="111" y="573" on="0"/>
        <pt x="111" y="554" on="1"/>
        <pt x="111" y="378" on="1"/>
        <pt x="111" y="360" on="0"/>
        <pt x="134" y="338" on="0"/>
        <pt x="153" y="338" on="1"/>
      </contour>
      <contour>
        <pt x="199" y="720" on="1"/>
        <pt x="201" y="717" on="0"/>
        <pt x="201" y="709" on="0"/>
        <pt x="196" y="706" on="1"/>
        <pt x="160" y="688" on="1"/>
        <pt x="153" y="701" on="0"/>
        <pt x="142" y="718" on="1"/>
        <pt x="84" y="803" on="1"/>
        <pt x="81" y="808" on="0"/>
        <pt x="81" y="812" on="1"/>
        <pt x="81" y="819" on="0"/>
        <pt x="132" y="840" on="0"/>
        <pt x="142" y="843" on="1"/>
        <pt x="152" y="846" on="1"/>
        <pt x="156" y="823" on="0"/>
        <pt x="165" y="802" on="1"/>
      </contour>
    </TTGlyph>
    <TTGlyph name="Eth" xMin="8" yMin="0" xMax="296" yMax="650">
      <contour>
        <pt x="21" y="332" on="1"/>
        <pt x="45" y="332" on="1"/>
        <pt x="45" y="553" on="1"/>
        <pt x="45" y="575" on="0"/>
        <pt x="29" y="594" on="0"/>
        <pt x="8" y="594" on="1"/>
        <pt x="7" y="620" on="0"/>
        <pt x="37" y="650" on="0"/>
        <pt x="103" y="650" on="0"/>
        <pt x="117" y="617" on="1"/>
        <pt x="156" y="650" on="0"/>
        <pt x="197" y="650" on="1"/>
        <pt x="296" y="650" on="0"/>
        <pt x="296" y="552" on="1"/>
        <pt x="296" y="106" on="1"/>
        <pt x="296" y="56" on="0"/>
        <pt x="227" y="0" on="0"/>
        <pt x="168" y="0" on="1"/>
        <pt x="45" y="0" on="1"/>
        <pt x="45" y="271" on="1"/>
        <pt x="13" y="267" on="1"/>
        <pt x="8" y="293" on="0"/>
        <pt x="8" y="332" on="0"/>
      </contour>
      <contour>
        <pt x="178" y="584" on="1"/>
        <pt x="151" y="584" on="0"/>
        <pt x="124" y="557" on="1"/>
        <pt x="124" y="332" on="1"/>
        <pt x="133" y="332" on="1"/>
        <pt x="185" y="337" on="1"/>
        <pt x="190" y="311" on="0"/>
        <pt x="190" y="272" on="0"/>
        <pt x="177" y="272" on="1"/>
        <pt x="124" y="272" on="1"/>
        <pt x="124" y="66" on="1"/>
        <pt x="170" y="66" on="1"/>
        <pt x="191" y="66" on="0"/>
        <pt x="217" y="87" on="0"/>
        <pt x="217" y="106" on="1"/>
        <pt x="217" y="546" on="1"/>
        <pt x="217" y="584" on="0"/>
      </contour>
    </TTGlyph>
    <TTGlyph name="Euro" xMin="17" yMin="-15" xMax="306" yMax="665">
      <contour>
        <pt x="74" y="354" on="1"/>
        <pt x="41" y="354" on="0"/>
        <pt x="24" y="349" on="1"/>
        <pt x="17" y="375" on="0"/>
        <pt x="17" y="414" on="0"/>
        <pt x="30" y="414" on="1"/>
        <pt x="74" y="414" on="1"/>
        <pt x="74" y="554" on="1"/>
        <pt x="74" y="604" on="0"/>
        <pt x="142" y="660" on="0"/>
        <pt x="201" y="660" on="1"/>
        <pt x="248" y="660" on="1"/>
        <pt x="298" y="665" on="1"/>
        <pt x="306" y="637" on="0"/>
        <pt x="306" y="610" on="1"/>
        <pt x="306" y="594" on="0"/>
        <pt x="292" y="594" on="1"/>
        <pt x="199" y="594" on="1"/>
        <pt x="178" y="594" on="0"/>
        <pt x="153" y="573" on="0"/>
        <pt x="153" y="554" on="1"/>
        <pt x="153" y="414" on="1"/>
        <pt x="208" y="414" on="1"/>
        <pt x="260" y="419" on="1"/>
        <pt x="265" y="393" on="0"/>
        <pt x="265" y="354" on="0"/>
        <pt x="252" y="354" on="1"/>
        <pt x="153" y="354" on="1"/>
        <pt x="153" y="271" on="1"/>
        <pt x="208" y="271" on="1"/>
        <pt x="260" y="276" on="1"/>
        <pt x="265" y="250" on="0"/>
        <pt x="265" y="211" on="0"/>
        <pt x="252" y="211" on="1"/>
        <pt x="153" y="211" on="1"/>
        <pt x="153" y="96" on="1"/>
        <pt x="153" y="78" on="0"/>
        <pt x="178" y="56" on="0"/>
        <pt x="199" y="56" on="1"/>
        <pt x="290" y="56" on="1"/>
        <pt x="304" y="56" on="0"/>
        <pt x="304" y="42" on="1"/>
        <pt x="304" y="15" on="0"/>
        <pt x="296" y="-15" on="1"/>
        <pt x="274" y="-10" on="0"/>
        <pt x="246" y="-10" on="1"/>
        <pt x="199" y="-10" on="1"/>
        <pt x="140" y="-10" on="0"/>
        <pt x="74" y="42" on="0"/>
        <pt x="74" y="92" on="1"/>
        <pt x="74" y="211" on="1"/>
        <pt x="49" y="211" on="0"/>
        <pt x="24" y="206" on="1"/>
        <pt x="17" y="232" on="0"/>
        <pt x="17" y="271" on="0"/>
        <pt x="30" y="271" on="1"/>
        <pt x="74" y="271" on="1"/>
      </contour>
    </TTGlyph>
    <TTGlyph name="F" xMin="5" yMin="-10" xMax="247" yMax="655">
      <contour>
        <pt x="171" y="348" on="1"/>
        <pt x="207" y="348" on="0"/>
        <pt x="225" y="353" on="1"/>
        <pt x="233" y="325" on="0"/>
        <pt x="233" y="298" on="1"/>
        <pt x="233" y="282" on="0"/>
        <pt x="219" y="282" on="1"/>
        <pt x="121" y="282" on="1"/>
        <pt x="121" y="85" on="1"/>
        <pt x="121" y="64" on="0"/>
        <pt x="138" y="47" on="0"/>
        <pt x="159" y="47" on="1"/>
        <pt x="159" y="-10" on="0"/>
        <pt x="95" y="-10" on="1"/>
        <pt x="42" y="-10" on="0"/>
        <pt x="42" y="59" on="1"/>
        <pt x="42" y="553" on="1"/>
        <pt x="42" y="575" on="0"/>
        <pt x="26" y="594" on="0"/>
        <pt x="5" y="594" on="1"/>
        <pt x="4" y="620" on="0"/>
        <pt x="34" y="650" on="0"/>
        <pt x="62" y="650" on="1"/>
        <pt x="189" y="650" on="1"/>
        <pt x="239" y="655" on="1"/>
        <pt x="247" y="627" on="0"/>
        <pt x="247" y="600" on="1"/>
        <pt x="247" y="584" on="0"/>
        <pt x="233" y="584" on="1"/>
        <pt x="121" y="584" on="1"/>
        <pt x="121" y="348" on="1"/>
      </contour>
    </TTGlyph>
    <TTGlyph name="G" xMin="35" yMin="-10" xMax="323" yMax="660">
      <contour>
        <pt x="207" y="241" on="1"/>
        <pt x="180" y="241" on="0"/>
        <pt x="153" y="236" on="1"/>
        <pt x="145" y="264" on="0"/>
        <pt x="145" y="291" on="1"/>
        <pt x="145" y="307" on="0"/>
        <pt x="159" y="307" on="1"/>
        <pt x="286" y="307" on="1"/>
        <pt x="286" y="85" on="1"/>
        <pt x="286" y="64" on="0"/>
        <pt x="302" y="46" on="0"/>
        <pt x="323" y="46" on="1"/>
        <pt x="324" y="20" on="0"/>
        <pt x="295" y="-10" on="0"/>
        <pt x="268" y="-10" on="1"/>
        <pt x="226" y="-10" on="0"/>
        <pt x="214" y="21" on="1"/>
        <pt x="186" y="-10" on="0"/>
        <pt x="137" y="-10" on="1"/>
        <pt x="35" y="-10" on="0"/>
        <pt x="35" y="86" on="1"/>
        <pt x="35" y="554" on="1"/>
        <pt x="35" y="604" on="0"/>
        <pt x="103" y="660" on="0"/>
        <pt x="218" y="660" on="0"/>
        <pt x="286" y="609" on="0"/>
        <pt x="286" y="568" on="1"/>
        <pt x="286" y="454" on="1"/>
        <pt x="286" y="436" on="0"/>
        <pt x="260" y="429" on="1"/>
        <pt x="246" y="425" on="0"/>
        <pt x="218" y="425" on="0"/>
        <pt x="204" y="428" on="1"/>
        <pt x="207" y="452" on="0"/>
        <pt x="207" y="479" on="1"/>
        <pt x="207" y="554" on="1"/>
        <pt x="207" y="573" on="0"/>
        <pt x="181" y="594" on="0"/>
        <pt x="139" y="594" on="0"/>
        <pt x="114" y="573" on="0"/>
        <pt x="114" y="554" on="1"/>
        <pt x="114" y="92" on="1"/>
        <pt x="114" y="56" on="0"/>
        <pt x="187" y="56" on="0"/>
        <pt x="207" y="91" on="1"/>
      </contour>
    </TTGlyph>
    <TTGlyph name="H" xMin="5" yMin="-10" xMax="332" yMax="659">
      <contour>
        <pt x="43" y="12" on="1"/>
        <pt x="43" y="564" on="1"/>
        <pt x="43" y="585" on="0"/>
        <pt x="26" y="602" on="0"/>
        <pt x="5" y="602" on="1"/>
        <pt x="5" y="659" on="0"/>
        <pt x="69" y="659" on="1"/>
        <pt x="122" y="659" on="0"/>
        <pt x="122" y="590" on="1"/>
        <pt x="122" y="329" on="1"/>
        <pt x="215" y="329" on="1"/>
        <pt x="215" y="556" on="1"/>
        <pt x="211" y="650" on="1"/>
        <pt x="245" y="655" on="0"/>
        <pt x="278" y="655" on="1"/>
        <pt x="294" y="655" on="0"/>
        <pt x="294" y="638" on="1"/>
        <pt x="294" y="85" on="1"/>
        <pt x="294" y="64" on="0"/>
        <pt x="311" y="47" on="0"/>
        <pt x="332" y="47" on="1"/>
        <pt x="332" y="-10" on="0"/>
        <pt x="268" y="-10" on="1"/>
        <pt x="215" y="-10" on="0"/>
        <pt x="215" y="59" on="1"/>
        <pt x="215" y="263" on="1"/>
        <pt x="122" y="263" on="1"/>
        <pt x="122" y="94" on="1"/>
        <pt x="126" y="0" on="1"/>
        <pt x="92" y="-5" on="0"/>
        <pt x="59" y="-5" on="1"/>
        <pt x="43" y="-5" on="0"/>
      </contour>
    </TTGlyph>
    <TTGlyph name="I" xMin="33" yMin="-5" xMax="120" yMax="655">
      <contour>
        <pt x="37" y="12" on="1"/>
        <pt x="37" y="556" on="1"/>
        <pt x="33" y="650" on="1"/>
        <pt x="67" y="655" on="0"/>
        <pt x="100" y="655" on="1"/>
        <pt x="116" y="655" on="0"/>
        <pt x="116" y="638" on="1"/>
        <pt x="116" y="94" on="1"/>
        <pt x="120" y="0" on="1"/>
        <pt x="86" y="-5" on="0"/>
        <pt x="53" y="-5" on="1"/>
        <pt x="37" y="-5" on="0"/>
      </contour>
    </TTGlyph>
    <TTGlyph name="Iacute" xMin="33" yMin="-5" xMax="157" yMax="846">
      <contour>
        <pt x="37" y="12" on="1"/>
        <pt x="37" y="556" on="1"/>
        <pt x="33" y="650" on="1"/>
        <pt x="67" y="655" on="0"/>
        <pt x="100" y="655" on="1"/>
        <pt x="116" y="655" on="0"/>
        <pt x="116" y="638" on="1"/>
        <pt x="116" y="94" on="1"/>
        <pt x="120" y="0" on="1"/>
        <pt x="86" y="-5" on="0"/>
        <pt x="53" y="-5" on="1"/>
        <pt x="37" y="-5" on="0"/>
      </contour>
      <contour>
        <pt x="86" y="846" on="1"/>
        <pt x="157" y="824" on="0"/>
        <pt x="157" y="811" on="1"/>
        <pt x="157" y="808" on="0"/>
        <pt x="154" y="803" on="1"/>
        <pt x="96" y="718" on="1"/>
        <pt x="78" y="688" on="1"/>
        <pt x="37" y="703" on="0"/>
        <pt x="37" y="714" on="1"/>
        <pt x="37" y="717" on="0"/>
        <pt x="39" y="720" on="1"/>
        <pt x="73" y="802" on="1"/>
      </contour>
    </TTGlyph>
    <TTGlyph name="Icircumflex" xMin="-24" yMin="-5" xMax="177" yMax="844">
      <contour>
        <pt x="37" y="12" on="1"/>
        <pt x="37" y="556" on="1"/>
        <pt x="33" y="650" on="1"/>
        <pt x="67" y="655" on="0"/>
        <pt x="100" y="655" on="1"/>
        <pt x="116" y="655" on="0"/>
        <pt x="116" y="638" on="1"/>
        <pt x="116" y="94" on="1"/>
        <pt x="120" y="0" on="1"/>
        <pt x="86" y="-5" on="0"/>
        <pt x="53" y="-5" on="1"/>
        <pt x="37" y="-5" on="0"/>
      </contour>
      <contour>
        <pt x="18" y="688" on="1"/>
        <pt x="-24" y="703" on="0"/>
        <pt x="-24" y="714" on="1"/>
        <pt x="-24" y="717" on="0"/>
        <pt x="-22" y="720" on="1"/>
        <pt x="22" y="802" on="1"/>
        <pt x="37" y="836" on="1"/>
        <pt x="47" y="844" on="0"/>
        <pt x="101" y="844" on="0"/>
        <pt x="115" y="837" on="1"/>
        <pt x="120" y="822" on="0"/>
        <pt x="131" y="802" on="1"/>
        <pt x="175" y="720" on="1"/>
        <pt x="177" y="717" on="0"/>
        <pt x="177" y="709" on="0"/>
        <pt x="172" y="706" on="1"/>
        <pt x="135" y="688" on="1"/>
        <pt x="130" y="701" on="0"/>
        <pt x="118" y="718" on="1"/>
        <pt x="76" y="778" on="1"/>
        <pt x="35" y="718" on="1"/>
      </contour>
    </TTGlyph>
    <TTGlyph name="Idieresis" xMin="-23" yMin="-5" xMax="176" yMax="815">
      <contour>
        <pt x="37" y="12" on="1"/>
        <pt x="37" y="556" on="1"/>
        <pt x="33" y="650" on="1"/>
        <pt x="67" y="655" on="0"/>
        <pt x="100" y="655" on="1"/>
        <pt x="116" y="655" on="0"/>
        <pt x="116" y="638" on="1"/>
        <pt x="116" y="94" on="1"/>
        <pt x="120" y="0" on="1"/>
        <pt x="86" y="-5" on="0"/>
        <pt x="53" y="-5" on="1"/>
        <pt x="37" y="-5" on="0"/>
      </contour>
      <contour>
        <pt x="-23" y="701" on="0"/>
        <pt x="-23" y="815" on="0"/>
        <pt x="63" y="815" on="0"/>
        <pt x="63" y="701" on="0"/>
      </contour>
      <contour>
        <pt x="90" y="701" on="0"/>
        <pt x="90" y="815" on="0"/>
        <pt x="176" y="815" on="0"/>
        <pt x="176" y="701" on="0"/>
      </contour>
    </TTGlyph>
    <TTGlyph name="Igrave" xMin="-5" yMin="-5" xMax="119" yMax="846">
      <contour>
        <pt x="36" y="12" on="1"/>
        <pt x="36" y="556" on="1"/>
        <pt x="32" y="650" on="1"/>
        <pt x="66" y="655" on="0"/>
        <pt x="99" y="655" on="1"/>
        <pt x="115" y="655" on="0"/>
        <pt x="115" y="638" on="1"/>
        <pt x="115" y="94" on="1"/>
        <pt x="119" y="0" on="1"/>
        <pt x="85" y="-5" on="0"/>
        <pt x="52" y="-5" on="1"/>
        <pt x="36" y="-5" on="0"/>
      </contour>
      <contour>
        <pt x="113" y="720" on="1"/>
        <pt x="115" y="717" on="0"/>
        <pt x="115" y="709" on="0"/>
        <pt x="110" y="706" on="1"/>
        <pt x="74" y="688" on="1"/>
        <pt x="67" y="701" on="0"/>
        <pt x="56" y="718" on="1"/>
        <pt x="-2" y="803" on="1"/>
        <pt x="-5" y="808" on="0"/>
        <pt x="-5" y="812" on="1"/>
        <pt x="-5" y="819" on="0"/>
        <pt x="46" y="840" on="0"/>
        <pt x="56" y="843" on="1"/>
        <pt x="66" y="846" on="1"/>
        <pt x="70" y="823" on="0"/>
        <pt x="79" y="802" on="1"/>
      </contour>
    </TTGlyph>
    <TTGlyph name="J" xMin="30" yMin="-10" xMax="281" yMax="650">
      <contour>
        <pt x="102" y="584" on="1"/>
        <pt x="66" y="584" on="0"/>
        <pt x="48" y="579" on="1"/>
        <pt x="40" y="607" on="0"/>
        <pt x="40" y="634" on="1"/>
        <pt x="40" y="650" on="0"/>
        <pt x="54" y="650" on="1"/>
        <pt x="281" y="650" on="1"/>
        <pt x="281" y="96" on="1"/>
        <pt x="281" y="46" on="0"/>
        <pt x="213" y="-10" on="0"/>
        <pt x="98" y="-10" on="0"/>
        <pt x="30" y="41" on="0"/>
        <pt x="30" y="82" on="1"/>
        <pt x="30" y="206" on="1"/>
        <pt x="30" y="224" on="0"/>
        <pt x="56" y="231" on="1"/>
        <pt x="70" y="235" on="0"/>
        <pt x="98" y="235" on="0"/>
        <pt x="112" y="232" on="1"/>
        <pt x="109" y="208" on="0"/>
        <pt x="109" y="181" on="1"/>
        <pt x="109" y="96" on="1"/>
        <pt x="109" y="77" on="0"/>
        <pt x="135" y="56" on="0"/>
        <pt x="177" y="56" on="0"/>
        <pt x="202" y="77" on="0"/>
        <pt x="202" y="96" on="1"/>
        <pt x="202" y="584" on="1"/>
      </contour>
    </TTGlyph>
    <TTGlyph name="K" xMin="5" yMin="-10" xMax="332" yMax="660">
      <contour>
        <pt x="215" y="568" on="1"/>
        <pt x="215" y="617" on="0"/>
        <pt x="208" y="650" on="1"/>
        <pt x="242" y="654" on="0"/>
        <pt x="277" y="654" on="1"/>
        <pt x="294" y="654" on="0"/>
        <pt x="294" y="639" on="1"/>
        <pt x="294" y="380" on="1"/>
        <pt x="294" y="335" on="0"/>
        <pt x="262" y="309" on="1"/>
        <pt x="294" y="284" on="0"/>
        <pt x="294" y="238" on="1"/>
        <pt x="294" y="85" on="1"/>
        <pt x="294" y="64" on="0"/>
        <pt x="311" y="47" on="0"/>
        <pt x="332" y="47" on="1"/>
        <pt x="332" y="-10" on="0"/>
        <pt x="268" y="-10" on="1"/>
        <pt x="215" y="-10" on="0"/>
        <pt x="215" y="59" on="1"/>
        <pt x="215" y="234" on="1"/>
        <pt x="215" y="252" on="0"/>
        <pt x="188" y="274" on="0"/>
        <pt x="167" y="274" on="1"/>
        <pt x="122" y="274" on="1"/>
        <pt x="122" y="82" on="1"/>
        <pt x="122" y="44" on="0"/>
        <pt x="129" y="0" on="1"/>
        <pt x="95" y="-4" on="0"/>
        <pt x="60" y="-4" on="1"/>
        <pt x="43" y="-4" on="0"/>
        <pt x="43" y="11" on="1"/>
        <pt x="43" y="565" on="1"/>
        <pt x="43" y="586" on="0"/>
        <pt x="26" y="603" on="0"/>
        <pt x="5" y="603" on="1"/>
        <pt x="5" y="660" on="0"/>
        <pt x="69" y="660" on="1"/>
        <pt x="122" y="660" on="0"/>
        <pt x="122" y="591" on="1"/>
        <pt x="122" y="340" on="1"/>
        <pt x="167" y="340" on="1"/>
        <pt x="187" y="340" on="0"/>
        <pt x="215" y="362" on="0"/>
        <pt x="215" y="380" on="1"/>
      </contour>
    </TTGlyph>
    <TTGlyph name="L" xMin="33" yMin="0" xMax="248" yMax="655">
      <contour>
        <pt x="186" y="66" on="1"/>
        <pt x="222" y="66" on="0"/>
        <pt x="240" y="71" on="1"/>
        <pt x="248" y="43" on="0"/>
        <pt x="248" y="16" on="1"/>
        <pt x="248" y="0" on="0"/>
        <pt x="234" y="0" on="1"/>
        <pt x="37" y="0" on="1"/>
        <pt x="37" y="556" on="1"/>
        <pt x="33" y="650" on="1"/>
        <pt x="67" y="655" on="0"/>
        <pt x="100" y="655" on="1"/>
        <pt x="116" y="655" on="0"/>
        <pt x="116" y="638" on="1"/>
        <pt x="116" y="66" on="1"/>
      </contour>
    </TTGlyph>
    <TTGlyph name="M" xMin="5" yMin="-10" xMax="501" yMax="650">
      <contour>
        <pt x="175" y="584" on="1"/>
        <pt x="148" y="584" on="0"/>
        <pt x="121" y="557" on="1"/>
        <pt x="121" y="94" on="1"/>
        <pt x="125" y="0" on="1"/>
        <pt x="91" y="-5" on="0"/>
        <pt x="58" y="-5" on="1"/>
        <pt x="42" y="-5" on="0"/>
        <pt x="42" y="12" on="1"/>
        <pt x="42" y="553" on="1"/>
        <pt x="42" y="575" on="0"/>
        <pt x="26" y="594" on="0"/>
        <pt x="5" y="594" on="1"/>
        <pt x="4" y="620" on="0"/>
        <pt x="34" y="650" on="0"/>
        <pt x="100" y="650" on="0"/>
        <pt x="114" y="617" on="1"/>
        <pt x="153" y="650" on="0"/>
        <pt x="194" y="650" on="1"/>
        <pt x="255" y="650" on="0"/>
        <pt x="278" y="612" on="1"/>
        <pt x="319" y="650" on="0"/>
        <pt x="364" y="650" on="1"/>
        <pt x="463" y="650" on="0"/>
        <pt x="463" y="552" on="1"/>
        <pt x="463" y="85" on="1"/>
        <pt x="463" y="64" on="0"/>
        <pt x="480" y="47" on="0"/>
        <pt x="501" y="47" on="1"/>
        <pt x="501" y="-10" on="0"/>
        <pt x="437" y="-10" on="1"/>
        <pt x="384" y="-10" on="0"/>
        <pt x="384" y="59" on="1"/>
        <pt x="384" y="546" on="1"/>
        <pt x="384" y="584" on="0"/>
        <pt x="345" y="584" on="1"/>
        <pt x="314" y="584" on="0"/>
        <pt x="293" y="559" on="1"/>
        <pt x="293" y="94" on="1"/>
        <pt x="297" y="0" on="1"/>
        <pt x="263" y="-5" on="0"/>
        <pt x="230" y="-5" on="1"/>
        <pt x="214" y="-5" on="0"/>
        <pt x="214" y="12" on="1"/>
        <pt x="214" y="546" on="1"/>
        <pt x="214" y="584" on="0"/>
      </contour>
    </TTGlyph>
    <TTGlyph name="N" xMin="5" yMin="-10" xMax="331" yMax="650">
      <contour>
        <pt x="175" y="584" on="1"/>
        <pt x="148" y="584" on="0"/>
        <pt x="121" y="557" on="1"/>
        <pt x="121" y="94" on="1"/>
        <pt x="125" y="0" on="1"/>
        <pt x="91" y="-5" on="0"/>
        <pt x="58" y="-5" on="1"/>
        <pt x="42" y="-5" on="0"/>
        <pt x="42" y="12" on="1"/>
        <pt x="42" y="553" on="1"/>
        <pt x="42" y="575" on="0"/>
        <pt x="26" y="594" on="0"/>
        <pt x="5" y="594" on="1"/>
        <pt x="4" y="620" on="0"/>
        <pt x="34" y="650" on="0"/>
        <pt x="100" y="650" on="0"/>
        <pt x="114" y="617" on="1"/>
        <pt x="153" y="650" on="0"/>
        <pt x="194" y="650" on="1"/>
        <pt x="293" y="650" on="0"/>
        <pt x="293" y="552" on="1"/>
        <pt x="293" y="85" on="1"/>
        <pt x="293" y="64" on="0"/>
        <pt x="310" y="47" on="0"/>
        <pt x="331" y="47" on="1"/>
        <pt x="331" y="-10" on="0"/>
        <pt x="267" y="-10" on="1"/>
        <pt x="214" y="-10" on="0"/>
        <pt x="214" y="59" on="1"/>
        <pt x="214" y="546" on="1"/>
        <pt x="214" y="584" on="0"/>
      </contour>
    </TTGlyph>
    <TTGlyph name="Ntilde" xMin="5" yMin="-10" xMax="331" yMax="808">
      <contour>
        <pt x="175" y="584" on="1"/>
        <pt x="148" y="584" on="0"/>
        <pt x="121" y="557" on="1"/>
        <pt x="121" y="94" on="1"/>
        <pt x="125" y="0" on="1"/>
        <pt x="91" y="-5" on="0"/>
        <pt x="58" y="-5" on="1"/>
        <pt x="42" y="-5" on="0"/>
        <pt x="42" y="12" on="1"/>
        <pt x="42" y="553" on="1"/>
        <pt x="42" y="575" on="0"/>
        <pt x="26" y="594" on="0"/>
        <pt x="5" y="594" on="1"/>
        <pt x="4" y="620" on="0"/>
        <pt x="34" y="650" on="0"/>
        <pt x="100" y="650" on="0"/>
        <pt x="114" y="617" on="1"/>
        <pt x="153" y="650" on="0"/>
        <pt x="194" y="650" on="1"/>
        <pt x="293" y="650" on="0"/>
        <pt x="293" y="552" on="1"/>
        <pt x="293" y="85" on="1"/>
        <pt x="293" y="64" on="0"/>
        <pt x="310" y="47" on="0"/>
        <pt x="331" y="47" on="1"/>
        <pt x="331" y="-10" on="0"/>
        <pt x="267" y="-10" on="1"/>
        <pt x="214" y="-10" on="0"/>
        <pt x="214" y="59" on="1"/>
        <pt x="214" y="546" on="1"/>
        <pt x="214" y="584" on="0"/>
      </contour>
      <contour>
        <pt x="93" y="712" on="1"/>
        <pt x="55" y="716" on="0"/>
        <pt x="55" y="751" on="1"/>
        <pt x="55" y="755" on="0"/>
        <pt x="56" y="760" on="1"/>
        <pt x="61" y="797" on="0"/>
        <pt x="103" y="797" on="1"/>
        <pt x="109" y="797" on="0"/>
        <pt x="116" y="796" on="1"/>
        <pt x="207" y="783" on="1"/>
        <pt x="222" y="782" on="0"/>
        <pt x="235" y="792" on="0"/>
        <pt x="238" y="808" on="1"/>
        <pt x="257" y="807" on="0"/>
        <pt x="275" y="783" on="0"/>
        <pt x="275" y="773" on="1"/>
        <pt x="275" y="723" on="0"/>
        <pt x="227" y="723" on="1"/>
        <pt x="221" y="723" on="0"/>
        <pt x="214" y="724" on="1"/>
        <pt x="124" y="738" on="1"/>
        <pt x="109" y="738" on="0"/>
        <pt x="96" y="727" on="0"/>
      </contour>
    </TTGlyph>
    <TTGlyph name="O" xMin="33" yMin="-10" xMax="284" yMax="660">
      <contour>
        <pt x="33" y="92" on="1"/>
        <pt x="33" y="554" on="1"/>
        <pt x="33" y="604" on="0"/>
        <pt x="101" y="660" on="0"/>
        <pt x="219" y="660" on="0"/>
        <pt x="284" y="608" on="0"/>
        <pt x="284" y="558" on="1"/>
        <pt x="284" y="96" on="1"/>
        <pt x="284" y="46" on="0"/>
        <pt x="215" y="-10" on="0"/>
        <pt x="97" y="-10" on="0"/>
        <pt x="33" y="42" on="0"/>
      </contour>
      <contour>
        <pt x="112" y="554" on="1"/>
        <pt x="112" y="96" on="1"/>
        <pt x="112" y="78" on="0"/>
        <pt x="137" y="56" on="0"/>
        <pt x="179" y="56" on="0"/>
        <pt x="205" y="77" on="0"/>
        <pt x="205" y="96" on="1"/>
        <pt x="205" y="554" on="1"/>
        <pt x="205" y="573" on="0"/>
        <pt x="179" y="594" on="0"/>
        <pt x="137" y="594" on="0"/>
        <pt x="112" y="573" on="0"/>
      </contour>
    </TTGlyph>
    <TTGlyph name="OE" xMin="33" yMin="-10" xMax="456" yMax="660">
      <contour>
        <pt x="342" y="335" on="1"/>
        <pt x="368" y="335" on="0"/>
        <pt x="396" y="340" on="1"/>
        <pt x="404" y="312" on="0"/>
        <pt x="404" y="285" on="1"/>
        <pt x="404" y="269" on="0"/>
        <pt x="390" y="269" on="1"/>
        <pt x="284" y="269" on="1"/>
        <pt x="284" y="96" on="1"/>
        <pt x="284" y="77" on="0"/>
        <pt x="309" y="56" on="0"/>
        <pt x="351" y="56" on="0"/>
        <pt x="377" y="77" on="0"/>
        <pt x="377" y="96" on="1"/>
        <pt x="377" y="121" on="1"/>
        <pt x="374" y="172" on="1"/>
        <pt x="388" y="175" on="0"/>
        <pt x="416" y="175" on="0"/>
        <pt x="430" y="171" on="1"/>
        <pt x="456" y="164" on="0"/>
        <pt x="456" y="146" on="1"/>
        <pt x="456" y="82" on="1"/>
        <pt x="456" y="41" on="0"/>
        <pt x="388" y="-10" on="0"/>
        <pt x="277" y="-10" on="0"/>
        <pt x="244" y="18" on="1"/>
        <pt x="209" y="-10" on="0"/>
        <pt x="97" y="-10" on="0"/>
        <pt x="33" y="42" on="0"/>
        <pt x="33" y="92" on="1"/>
        <pt x="33" y="554" on="1"/>
        <pt x="33" y="604" on="0"/>
        <pt x="101" y="660" on="0"/>
        <pt x="212" y="660" on="0"/>
        <pt x="246" y="634" on="1"/>
        <pt x="278" y="660" on="0"/>
        <pt x="386" y="660" on="0"/>
        <pt x="452" y="609" on="0"/>
        <pt x="452" y="568" on="1"/>
        <pt x="452" y="484" on="1"/>
        <pt x="452" y="466" on="0"/>
        <pt x="426" y="459" on="1"/>
        <pt x="412" y="455" on="0"/>
        <pt x="384" y="455" on="0"/>
        <pt x="370" y="458" on="1"/>
        <pt x="373" y="482" on="0"/>
        <pt x="373" y="509" on="1"/>
        <pt x="373" y="554" on="1"/>
        <pt x="373" y="594" on="0"/>
        <pt x="329" y="594" on="1"/>
        <pt x="309" y="594" on="0"/>
        <pt x="284" y="574" on="0"/>
        <pt x="284" y="557" on="1"/>
        <pt x="284" y="335" on="1"/>
      </contour>
      <contour>
        <pt x="112" y="554" on="1"/>
        <pt x="112" y="96" on="1"/>
        <pt x="112" y="78" on="0"/>
        <pt x="137" y="56" on="0"/>
        <pt x="179" y="56" on="0"/>
        <pt x="205" y="77" on="0"/>
        <pt x="205" y="96" on="1"/>
        <pt x="205" y="554" on="1"/>
        <pt x="205" y="573" on="0"/>
        <pt x="179" y="594" on="0"/>
        <pt x="137" y="594" on="0"/>
        <pt x="112" y="573" on="0"/>
      </contour>
    </TTGlyph>
    <TTGlyph name="Oacute" xMin="33" yMin="-10" xMax="284" yMax="846">
      <contour>
        <pt x="33" y="92" on="1"/>
        <pt x="33" y="554" on="1"/>
        <pt x="33" y="604" on="0"/>
        <pt x="101" y="660" on="0"/>
        <pt x="219" y="660" on="0"/>
        <pt x="284" y="608" on="0"/>
        <pt x="284" y="558" on="1"/>
        <pt x="284" y="96" on="1"/>
        <pt x="284" y="46" on="0"/>
        <pt x="215" y="-10" on="0"/>
        <pt x="97" y="-10" on="0"/>
        <pt x="33" y="42" on="0"/>
      </contour>
      <contour>
        <pt x="112" y="554" on="1"/>
        <pt x="112" y="96" on="1"/>
        <pt x="112" y="78" on="0"/>
        <pt x="137" y="56" on="0"/>
        <pt x="179" y="56" on="0"/>
        <pt x="205" y="77" on="0"/>
        <pt x="205" y="96" on="1"/>
        <pt x="205" y="554" on="1"/>
        <pt x="205" y="573" on="0"/>
        <pt x="179" y="594" on="0"/>
        <pt x="137" y="594" on="0"/>
        <pt x="112" y="573" on="0"/>
      </contour>
      <contour>
        <pt x="173" y="846" on="1"/>
        <pt x="244" y="824" on="0"/>
        <pt x="244" y="811" on="1"/>
        <pt x="244" y="808" on="0"/>
        <pt x="241" y="803" on="1"/>
        <pt x="183" y="718" on="1"/>
        <pt x="165" y="688" on="1"/>
        <pt x="124" y="703" on="0"/>
        <pt x="124" y="714" on="1"/>
        <pt x="124" y="717" on="0"/>
        <pt x="126" y="720" on="1"/>
        <pt x="160" y="802" on="1"/>
      </contour>
    </TTGlyph>
    <TTGlyph name="Ocircumflex" xMin="33" yMin="-10" xMax="284" yMax="844">
      <contour>
        <pt x="33" y="92" on="1"/>
        <pt x="33" y="554" on="1"/>
        <pt x="33" y="604" on="0"/>
        <pt x="101" y="660" on="0"/>
        <pt x="219" y="660" on="0"/>
        <pt x="284" y="608" on="0"/>
        <pt x="284" y="558" on="1"/>
        <pt x="284" y="96" on="1"/>
        <pt x="284" y="46" on="0"/>
        <pt x="215" y="-10" on="0"/>
        <pt x="97" y="-10" on="0"/>
        <pt x="33" y="42" on="0"/>
      </contour>
      <contour>
        <pt x="112" y="554" on="1"/>
        <pt x="112" y="96" on="1"/>
        <pt x="112" y="78" on="0"/>
        <pt x="137" y="56" on="0"/>
        <pt x="179" y="56" on="0"/>
        <pt x="205" y="77" on="0"/>
        <pt x="205" y="96" on="1"/>
        <pt x="205" y="554" on="1"/>
        <pt x="205" y="573" on="0"/>
        <pt x="179" y="594" on="0"/>
        <pt x="137" y="594" on="0"/>
        <pt x="112" y="573" on="0"/>
      </contour>
      <contour>
        <pt x="100" y="688" on="1"/>
        <pt x="58" y="703" on="0"/>
        <pt x="58" y="714" on="1"/>
        <pt x="58" y="717" on="0"/>
        <pt x="60" y="720" on="1"/>
        <pt x="104" y="802" on="1"/>
        <pt x="119" y="836" on="1"/>
        <pt x="129" y="844" on="0"/>
        <pt x="183" y="844" on="0"/>
        <pt x="197" y="837" on="1"/>
        <pt x="202" y="822" on="0"/>
        <pt x="213" y="802" on="1"/>
        <pt x="257" y="720" on="1"/>
        <pt x="259" y="717" on="0"/>
        <pt x="259" y="709" on="0"/>
        <pt x="254" y="706" on="1"/>
        <pt x="217" y="688" on="1"/>
        <pt x="212" y="701" on="0"/>
        <pt x="200" y="718" on="1"/>
        <pt x="158" y="778" on="1"/>
        <pt x="117" y="718" on="1"/>
      </contour>
    </TTGlyph>
    <TTGlyph name="Odieresis" xMin="33" yMin="-10" xMax="284" yMax="815">
      <contour>
        <pt x="33" y="92" on="1"/>
        <pt x="33" y="554" on="1"/>
        <pt x="33" y="604" on="0"/>
        <pt x="101" y="660" on="0"/>
        <pt x="219" y="660" on="0"/>
        <pt x="284" y="608" on="0"/>
        <pt x="284" y="558" on="1"/>
        <pt x="284" y="96" on="1"/>
        <pt x="284" y="46" on="0"/>
        <pt x="215" y="-10" on="0"/>
        <pt x="97" y="-10" on="0"/>
        <pt x="33" y="42" on="0"/>
      </contour>
      <contour>
        <pt x="112" y="554" on="1"/>
        <pt x="112" y="96" on="1"/>
        <pt x="112" y="78" on="0"/>
        <pt x="137" y="56" on="0"/>
        <pt x="179" y="56" on="0"/>
        <pt x="205" y="77" on="0"/>
        <pt x="205" y="96" on="1"/>
        <pt x="205" y="554" on="1"/>
        <pt x="205" y="573" on="0"/>
        <pt x="179" y="594" on="0"/>
        <pt x="137" y="594" on="0"/>
        <pt x="112" y="573" on="0"/>
      </contour>
      <contour>
        <pt x="59" y="701" on="0"/>
        <pt x="59" y="815" on="0"/>
        <pt x="145" y="815" on="0"/>
        <pt x="145" y="701" on="0"/>
      </contour>
      <contour>
        <pt x="172" y="701" on="0"/>
        <pt x="172" y="815" on="0"/>
        <pt x="258" y="815" on="0"/>
        <pt x="258" y="701" on="0"/>
      </contour>
    </TTGlyph>
    <TTGlyph name="Ograve" xMin="33" yMin="-10" xMax="284" yMax="846">
      <contour>
        <pt x="33" y="92" on="1"/>
        <pt x="33" y="554" on="1"/>
        <pt x="33" y="604" on="0"/>
        <pt x="101" y="660" on="0"/>
        <pt x="219" y="660" on="0"/>
        <pt x="284" y="608" on="0"/>
        <pt x="284" y="558" on="1"/>
        <pt x="284" y="96" on="1"/>
        <pt x="284" y="46" on="0"/>
        <pt x="215" y="-10" on="0"/>
        <pt x="97" y="-10" on="0"/>
        <pt x="33" y="42" on="0"/>
      </contour>
      <contour>
        <pt x="112" y="554" on="1"/>
        <pt x="112" y="96" on="1"/>
        <pt x="112" y="78" on="0"/>
        <pt x="137" y="56" on="0"/>
        <pt x="179" y="56" on="0"/>
        <pt x="205" y="77" on="0"/>
        <pt x="205" y="96" on="1"/>
        <pt x="205" y="554" on="1"/>
        <pt x="205" y="573" on="0"/>
        <pt x="179" y="594" on="0"/>
        <pt x="137" y="594" on="0"/>
        <pt x="112" y="573" on="0"/>
      </contour>
      <contour>
        <pt x="194" y="720" on="1"/>
        <pt x="196" y="717" on="0"/>
        <pt x="196" y="709" on="0"/>
        <pt x="191" y="706" on="1"/>
        <pt x="155" y="688" on="1"/>
        <pt x="148" y="701" on="0"/>
        <pt x="137" y="718" on="1"/>
        <pt x="79" y="803" on="1"/>
        <pt x="76" y="808" on="0"/>
        <pt x="76" y="812" on="1"/>
        <pt x="76" y="819" on="0"/>
        <pt x="127" y="840" on="0"/>
        <pt x="137" y="843" on="1"/>
        <pt x="147" y="846" on="1"/>
        <pt x="151" y="823" on="0"/>
        <pt x="160" y="802" on="1"/>
      </contour>
    </TTGlyph>
    <TTGlyph name="Oslash" xMin="-8" yMin="-41" xMax="342" yMax="692">
      <contour>
        <pt x="28" y="-41" on="1"/>
        <pt x="-7" y="-41" on="0"/>
        <pt x="-7" y="-24" on="1"/>
        <pt x="-7" y="-20" on="0"/>
        <pt x="-5" y="-16" on="1"/>
        <pt x="42" y="96" on="1"/>
        <pt x="42" y="554" on="1"/>
        <pt x="42" y="604" on="0"/>
        <pt x="110" y="660" on="0"/>
        <pt x="232" y="660" on="0"/>
        <pt x="266" y="629" on="1"/>
        <pt x="277" y="651" on="0"/>
        <pt x="284" y="690" on="1"/>
        <pt x="296" y="692" on="0"/>
        <pt x="321" y="692" on="0"/>
        <pt x="341" y="683" on="0"/>
        <pt x="341" y="675" on="1"/>
        <pt x="341" y="671" on="0"/>
        <pt x="339" y="667" on="1"/>
        <pt x="293" y="557" on="1"/>
        <pt x="293" y="96" on="1"/>
        <pt x="293" y="46" on="0"/>
        <pt x="224" y="-10" on="0"/>
        <pt x="99" y="-10" on="0"/>
        <pt x="68" y="21" on="1"/>
        <pt x="68" y="20" on="1"/>
        <pt x="59" y="-3" on="0"/>
        <pt x="50" y="-39" on="1"/>
        <pt x="38" y="-41" on="0"/>
      </contour>
      <contour>
        <pt x="146" y="56" on="0"/>
        <pt x="188" y="56" on="0"/>
        <pt x="214" y="77" on="0"/>
        <pt x="214" y="96" on="1"/>
        <pt x="214" y="369" on="1"/>
        <pt x="121" y="147" on="1"/>
        <pt x="121" y="96" on="1"/>
        <pt x="121" y="78" on="0"/>
      </contour>
      <contour>
        <pt x="121" y="554" on="1"/>
        <pt x="121" y="283" on="1"/>
        <pt x="214" y="504" on="1"/>
        <pt x="214" y="554" on="1"/>
        <pt x="214" y="573" on="0"/>
        <pt x="188" y="594" on="0"/>
        <pt x="146" y="594" on="0"/>
        <pt x="121" y="573" on="0"/>
      </contour>
    </TTGlyph>
    <TTGlyph name="Otilde" xMin="33" yMin="-10" xMax="284" yMax="808">
      <contour>
        <pt x="33" y="92" on="1"/>
        <pt x="33" y="554" on="1"/>
        <pt x="33" y="604" on="0"/>
        <pt x="101" y="660" on="0"/>
        <pt x="219" y="660" on="0"/>
        <pt x="284" y="608" on="0"/>
        <pt x="284" y="558" on="1"/>
        <pt x="284" y="96" on="1"/>
        <pt x="284" y="46" on="0"/>
        <pt x="215" y="-10" on="0"/>
        <pt x="97" y="-10" on="0"/>
        <pt x="33" y="42" on="0"/>
      </contour>
      <contour>
        <pt x="112" y="554" on="1"/>
        <pt x="112" y="96" on="1"/>
        <pt x="112" y="78" on="0"/>
        <pt x="137" y="56" on="0"/>
        <pt x="179" y="56" on="0"/>
        <pt x="205" y="77" on="0"/>
        <pt x="205" y="96" on="1"/>
        <pt x="205" y="554" on="1"/>
        <pt x="205" y="573" on="0"/>
        <pt x="179" y="594" on="0"/>
        <pt x="137" y="594" on="0"/>
        <pt x="112" y="573" on="0"/>
      </contour>
      <contour>
        <pt x="87" y="712" on="1"/>
        <pt x="49" y="716" on="0"/>
        <pt x="49" y="751" on="1"/>
        <pt x="49" y="755" on="0"/>
        <pt x="50" y="760" on="1"/>
        <pt x="55" y="797" on="0"/>
        <pt x="97" y="797" on="1"/>
        <pt x="103" y="797" on="0"/>
        <pt x="110" y="796" on="1"/>
        <pt x="201" y="783" on="1"/>
        <pt x="216" y="782" on="0"/>
        <pt x="229" y="792" on="0"/>
        <pt x="232" y="808" on="1"/>
        <pt x="251" y="807" on="0"/>
        <pt x="269" y="783" on="0"/>
        <pt x="269" y="773" on="1"/>
        <pt x="269" y="723" on="0"/>
        <pt x="221" y="723" on="1"/>
        <pt x="215" y="723" on="0"/>
        <pt x="208" y="724" on="1"/>
        <pt x="118" y="738" on="1"/>
        <pt x="103" y="738" on="0"/>
        <pt x="90" y="727" on="0"/>
      </contour>
    </TTGlyph>
    <TTGlyph name="P" xMin="5" yMin="-5" xMax="293" yMax="650">
      <contour>
        <pt x="42" y="12" on="1"/>
        <pt x="42" y="553" on="1"/>
        <pt x="42" y="575" on="0"/>
        <pt x="26" y="594" on="0"/>
        <pt x="5" y="594" on="1"/>
        <pt x="4" y="620" on="0"/>
        <pt x="34" y="650" on="0"/>
        <pt x="100" y="650" on="0"/>
        <pt x="114" y="617" on="1"/>
        <pt x="153" y="650" on="0"/>
        <pt x="194" y="650" on="1"/>
        <pt x="293" y="650" on="0"/>
        <pt x="293" y="552" on="1"/>
        <pt x="293" y="306" on="1"/>
        <pt x="293" y="256" on="0"/>
        <pt x="224" y="200" on="0"/>
        <pt x="165" y="200" on="1"/>
        <pt x="121" y="200" on="1"/>
        <pt x="121" y="94" on="1"/>
        <pt x="125" y="0" on="1"/>
        <pt x="91" y="-5" on="0"/>
        <pt x="58" y="-5" on="1"/>
        <pt x="42" y="-5" on="0"/>
      </contour>
      <contour>
        <pt x="175" y="584" on="1"/>
        <pt x="148" y="584" on="0"/>
        <pt x="121" y="557" on="1"/>
        <pt x="121" y="266" on="1"/>
        <pt x="167" y="266" on="1"/>
        <pt x="188" y="266" on="0"/>
        <pt x="214" y="287" on="0"/>
        <pt x="214" y="306" on="1"/>
        <pt x="214" y="546" on="1"/>
        <pt x="214" y="584" on="0"/>
      </contour>
    </TTGlyph>
    <TTGlyph name="Q" xMin="33" yMin="-158" xMax="284" yMax="660">
      <contour>
        <pt x="33" y="92" on="1"/>
        <pt x="33" y="554" on="1"/>
        <pt x="33" y="604" on="0"/>
        <pt x="101" y="660" on="0"/>
        <pt x="219" y="660" on="0"/>
        <pt x="284" y="608" on="0"/>
        <pt x="284" y="558" on="1"/>
        <pt x="284" y="96" on="1"/>
        <pt x="284" y="13" on="0"/>
        <pt x="198" y="-5" on="1"/>
        <pt x="206" y="-52" on="1"/>
        <pt x="211" y="-84" on="0"/>
        <pt x="237" y="-84" on="1"/>
        <pt x="245" y="-84" on="0"/>
        <pt x="256" y="-80" on="1"/>
        <pt x="260" y="-92" on="0"/>
        <pt x="260" y="-125" on="0"/>
        <pt x="227" y="-158" on="0"/>
        <pt x="202" y="-158" on="1"/>
        <pt x="142" y="-158" on="0"/>
        <pt x="134" y="-107" on="1"/>
        <pt x="117" y="-7" on="1"/>
        <pt x="33" y="9" on="0"/>
      </contour>
      <contour>
        <pt x="112" y="554" on="1"/>
        <pt x="112" y="96" on="1"/>
        <pt x="112" y="78" on="0"/>
        <pt x="137" y="56" on="0"/>
        <pt x="179" y="56" on="0"/>
        <pt x="205" y="77" on="0"/>
        <pt x="205" y="96" on="1"/>
        <pt x="205" y="554" on="1"/>
        <pt x="205" y="573" on="0"/>
        <pt x="179" y="594" on="0"/>
        <pt x="137" y="594" on="0"/>
        <pt x="112" y="573" on="0"/>
      </contour>
    </TTGlyph>
    <TTGlyph name="R" xMin="5" yMin="-10" xMax="315" yMax="650">
      <contour>
        <pt x="42" y="12" on="1"/>
        <pt x="42" y="553" on="1"/>
        <pt x="42" y="575" on="0"/>
        <pt x="26" y="594" on="0"/>
        <pt x="5" y="594" on="1"/>
        <pt x="4" y="620" on="0"/>
        <pt x="34" y="650" on="0"/>
        <pt x="100" y="650" on="0"/>
        <pt x="114" y="617" on="1"/>
        <pt x="153" y="650" on="0"/>
        <pt x="194" y="650" on="1"/>
        <pt x="293" y="650" on="0"/>
        <pt x="293" y="552" on="1"/>
        <pt x="293" y="320" on="1"/>
        <pt x="293" y="257" on="0"/>
        <pt x="240" y="230" on="1"/>
        <pt x="261" y="96" on="1"/>
        <pt x="266" y="64" on="0"/>
        <pt x="292" y="64" on="1"/>
        <pt x="300" y="64" on="0"/>
        <pt x="311" y="68" on="1"/>
        <pt x="315" y="56" on="0"/>
        <pt x="315" y="23" on="0"/>
        <pt x="282" y="-10" on="0"/>
        <pt x="256" y="-10" on="1"/>
        <pt x="197" y="-10" on="0"/>
        <pt x="189" y="41" on="1"/>
        <pt x="160" y="214" on="1"/>
        <pt x="121" y="214" on="1"/>
        <pt x="121" y="94" on="1"/>
        <pt x="125" y="0" on="1"/>
        <pt x="91" y="-5" on="0"/>
        <pt x="58" y="-5" on="1"/>
        <pt x="42" y="-5" on="0"/>
      </contour>
      <contour>
        <pt x="175" y="584" on="1"/>
        <pt x="148" y="584" on="0"/>
        <pt x="121" y="557" on="1"/>
        <pt x="121" y="280" on="1"/>
        <pt x="167" y="280" on="1"/>
        <pt x="188" y="280" on="0"/>
        <pt x="214" y="301" on="0"/>
        <pt x="214" y="320" on="1"/>
        <pt x="214" y="546" on="1"/>
        <pt x="214" y="584" on="0"/>
      </contour>
    </TTGlyph>
    <TTGlyph name="S" xMin="29" yMin="-10" xMax="284" yMax="660">
      <contour>
        <pt x="31" y="419" on="1"/>
        <pt x="31" y="554" on="1"/>
        <pt x="31" y="604" on="0"/>
        <pt x="99" y="660" on="0"/>
        <pt x="214" y="660" on="0"/>
        <pt x="282" y="609" on="0"/>
        <pt x="282" y="568" on="1"/>
        <pt x="282" y="444" on="1"/>
        <pt x="282" y="426" on="0"/>
        <pt x="256" y="419" on="1"/>
        <pt x="242" y="415" on="0"/>
        <pt x="214" y="415" on="0"/>
        <pt x="200" y="418" on="1"/>
        <pt x="203" y="442" on="0"/>
        <pt x="203" y="469" on="1"/>
        <pt x="203" y="554" on="1"/>
        <pt x="203" y="573" on="0"/>
        <pt x="177" y="594" on="0"/>
        <pt x="135" y="594" on="0"/>
        <pt x="110" y="573" on="0"/>
        <pt x="110" y="554" on="1"/>
        <pt x="110" y="437" on="1"/>
        <pt x="110" y="402" on="0"/>
        <pt x="133" y="388" on="1"/>
        <pt x="239" y="320" on="1"/>
        <pt x="284" y="292" on="0"/>
        <pt x="284" y="234" on="1"/>
        <pt x="284" y="96" on="1"/>
        <pt x="284" y="46" on="0"/>
        <pt x="214" y="-10" on="0"/>
        <pt x="99" y="-10" on="0"/>
        <pt x="29" y="41" on="0"/>
        <pt x="29" y="82" on="1"/>
        <pt x="29" y="206" on="1"/>
        <pt x="29" y="224" on="0"/>
        <pt x="55" y="231" on="1"/>
        <pt x="69" y="235" on="0"/>
        <pt x="97" y="235" on="0"/>
        <pt x="111" y="232" on="1"/>
        <pt x="108" y="208" on="0"/>
        <pt x="108" y="181" on="1"/>
        <pt x="108" y="96" on="1"/>
        <pt x="108" y="78" on="0"/>
        <pt x="136" y="56" on="0"/>
        <pt x="178" y="56" on="0"/>
        <pt x="205" y="78" on="0"/>
        <pt x="205" y="96" on="1"/>
        <pt x="205" y="209" on="1"/>
        <pt x="205" y="248" on="0"/>
        <pt x="178" y="265" on="1"/>
        <pt x="72" y="334" on="1"/>
        <pt x="31" y="360" on="0"/>
      </contour>
    </TTGlyph>
    <TTGlyph name="Scaron" xMin="29" yMin="-10" xMax="284" yMax="844">
      <contour>
        <pt x="31" y="419" on="1"/>
        <pt x="31" y="554" on="1"/>
        <pt x="31" y="604" on="0"/>
        <pt x="99" y="660" on="0"/>
        <pt x="214" y="660" on="0"/>
        <pt x="282" y="609" on="0"/>
        <pt x="282" y="568" on="1"/>
        <pt x="282" y="444" on="1"/>
        <pt x="282" y="426" on="0"/>
        <pt x="256" y="419" on="1"/>
        <pt x="242" y="415" on="0"/>
        <pt x="214" y="415" on="0"/>
        <pt x="200" y="418" on="1"/>
        <pt x="203" y="442" on="0"/>
        <pt x="203" y="469" on="1"/>
        <pt x="203" y="554" on="1"/>
        <pt x="203" y="573" on="0"/>
        <pt x="177" y="594" on="0"/>
        <pt x="135" y="594" on="0"/>
        <pt x="110" y="573" on="0"/>
        <pt x="110" y="554" on="1"/>
        <pt x="110" y="437" on="1"/>
        <pt x="110" y="402" on="0"/>
        <pt x="133" y="388" on="1"/>
        <pt x="239" y="320" on="1"/>
        <pt x="284" y="292" on="0"/>
        <pt x="284" y="234" on="1"/>
        <pt x="284" y="96" on="1"/>
        <pt x="284" y="46" on="0"/>
        <pt x="214" y="-10" on="0"/>
        <pt x="99" y="-10" on="0"/>
        <pt x="29" y="41" on="0"/>
        <pt x="29" y="82" on="1"/>
        <pt x="29" y="206" on="1"/>
        <pt x="29" y="224" on="0"/>
        <pt x="55" y="231" on="1"/>
        <pt x="69" y="235" on="0"/>
        <pt x="97" y="235" on="0"/>
        <pt x="111" y="232" on="1"/>
        <pt x="108" y="208" on="0"/>
        <pt x="108" y="181" on="1"/>
        <pt x="108" y="96" on="1"/>
        <pt x="108" y="78" on="0"/>
        <pt x="136" y="56" on="0"/>
        <pt x="178" y="56" on="0"/>
        <pt x="205" y="78" on="0"/>
        <pt x="205" y="96" on="1"/>
        <pt x="205" y="209" on="1"/>
        <pt x="205" y="248" on="0"/>
        <pt x="178" y="265" on="1"/>
        <pt x="72" y="334" on="1"/>
        <pt x="31" y="360" on="0"/>
      </contour>
      <contour>
        <pt x="218" y="844" on="1"/>
        <pt x="260" y="829" on="0"/>
        <pt x="260" y="818" on="1"/>
        <pt x="260" y="815" on="0"/>
        <pt x="258" y="812" on="1"/>
        <pt x="214" y="730" on="1"/>
        <pt x="198" y="695" on="1"/>
        <pt x="184" y="688" on="0"/>
        <pt x="130" y="688" on="0"/>
        <pt x="120" y="696" on="1"/>
        <pt x="115" y="712" on="0"/>
        <pt x="105" y="730" on="1"/>
        <pt x="61" y="812" on="1"/>
        <pt x="59" y="815" on="0"/>
        <pt x="59" y="823" on="0"/>
        <pt x="64" y="826" on="1"/>
        <pt x="101" y="844" on="1"/>
        <pt x="107" y="830" on="0"/>
        <pt x="118" y="814" on="1"/>
        <pt x="159" y="754" on="1"/>
        <pt x="201" y="814" on="1"/>
      </contour>
    </TTGlyph>
    <TTGlyph name="T" xMin="8" yMin="-5" xMax="271" yMax="655">
      <contour>
        <pt x="209" y="650" on="1"/>
        <pt x="245" y="650" on="0"/>
        <pt x="263" y="655" on="1"/>
        <pt x="271" y="627" on="0"/>
        <pt x="271" y="600" on="1"/>
        <pt x="271" y="584" on="0"/>
        <pt x="257" y="584" on="1"/>
        <pt x="179" y="584" on="1"/>
        <pt x="179" y="94" on="1"/>
        <pt x="183" y="0" on="1"/>
        <pt x="149" y="-5" on="0"/>
        <pt x="116" y="-5" on="1"/>
        <pt x="100" y="-5" on="0"/>
        <pt x="100" y="12" on="1"/>
        <pt x="100" y="584" on="1"/>
        <pt x="70" y="584" on="1"/>
        <pt x="34" y="584" on="0"/>
        <pt x="16" y="579" on="1"/>
        <pt x="8" y="607" on="0"/>
        <pt x="8" y="634" on="1"/>
        <pt x="8" y="650" on="0"/>
        <pt x="22" y="650" on="1"/>
      </contour>
    </TTGlyph>
    <TTGlyph name="Thorn" xMin="5" yMin="-5" xMax="294" yMax="659">
      <contour>
        <pt x="176" y="418" on="1"/>
        <pt x="149" y="418" on="0"/>
        <pt x="122" y="391" on="1"/>
        <pt x="122" y="196" on="1"/>
        <pt x="168" y="196" on="1"/>
        <pt x="189" y="196" on="0"/>
        <pt x="215" y="217" on="0"/>
        <pt x="215" y="236" on="1"/>
        <pt x="215" y="380" on="1"/>
        <pt x="215" y="418" on="0"/>
      </contour>
      <contour>
        <pt x="122" y="594" on="1"/>
        <pt x="122" y="457" on="1"/>
        <pt x="154" y="484" on="0"/>
        <pt x="195" y="484" on="1"/>
        <pt x="294" y="484" on="0"/>
        <pt x="294" y="386" on="1"/>
        <pt x="294" y="236" on="1"/>
        <pt x="294" y="186" on="0"/>
        <pt x="225" y="130" on="0"/>
        <pt x="166" y="130" on="1"/>
        <pt x="122" y="130" on="1"/>
        <pt x="122" y="94" on="1"/>
        <pt x="126" y="0" on="1"/>
        <pt x="92" y="-5" on="0"/>
        <pt x="59" y="-5" on="1"/>
        <pt x="43" y="-5" on="0"/>
        <pt x="43" y="12" on="1"/>
        <pt x="43" y="562" on="1"/>
        <pt x="43" y="584" on="0"/>
        <pt x="26" y="602" on="0"/>
        <pt x="5" y="602" on="1"/>
        <pt x="4" y="628" on="0"/>
        <pt x="35" y="659" on="0"/>
        <pt x="97" y="659" on="0"/>
        <pt x="122" y="625" on="0"/>
      </contour>
    </TTGlyph>
    <TTGlyph name="U" xMin="3" yMin="-10" xMax="329" yMax="660">
      <contour>
        <pt x="213" y="568" on="1"/>
        <pt x="213" y="617" on="0"/>
        <pt x="206" y="650" on="1"/>
        <pt x="240" y="654" on="0"/>
        <pt x="275" y="654" on="1"/>
        <pt x="292" y="654" on="0"/>
        <pt x="292" y="639" on="1"/>
        <pt x="292" y="85" on="1"/>
        <pt x="292" y="64" on="0"/>
        <pt x="308" y="46" on="0"/>
        <pt x="329" y="46" on="1"/>
        <pt x="330" y="20" on="0"/>
        <pt x="301" y="-10" on="0"/>
        <pt x="274" y="-10" on="1"/>
        <pt x="232" y="-10" on="0"/>
        <pt x="220" y="21" on="1"/>
        <pt x="192" y="-10" on="0"/>
        <pt x="143" y="-10" on="1"/>
        <pt x="41" y="-10" on="0"/>
        <pt x="41" y="86" on="1"/>
        <pt x="41" y="565" on="1"/>
        <pt x="41" y="586" on="0"/>
        <pt x="24" y="603" on="0"/>
        <pt x="3" y="603" on="1"/>
        <pt x="3" y="660" on="0"/>
        <pt x="67" y="660" on="1"/>
        <pt x="120" y="660" on="0"/>
        <pt x="120" y="591" on="1"/>
        <pt x="120" y="92" on="1"/>
        <pt x="120" y="56" on="0"/>
        <pt x="193" y="56" on="0"/>
        <pt x="213" y="91" on="1"/>
      </contour>
    </TTGlyph>
    <TTGlyph name="Uacute" xMin="3" yMin="-10" xMax="329" yMax="846">
      <contour>
        <pt x="213" y="568" on="1"/>
        <pt x="213" y="617" on="0"/>
        <pt x="206" y="650" on="1"/>
        <pt x="240" y="654" on="0"/>
        <pt x="275" y="654" on="1"/>
        <pt x="292" y="654" on="0"/>
        <pt x="292" y="639" on="1"/>
        <pt x="292" y="85" on="1"/>
        <pt x="292" y="64" on="0"/>
        <pt x="308" y="46" on="0"/>
        <pt x="329" y="46" on="1"/>
        <pt x="330" y="20" on="0"/>
        <pt x="301" y="-10" on="0"/>
        <pt x="274" y="-10" on="1"/>
        <pt x="232" y="-10" on="0"/>
        <pt x="220" y="21" on="1"/>
        <pt x="192" y="-10" on="0"/>
        <pt x="143" y="-10" on="1"/>
        <pt x="41" y="-10" on="0"/>
        <pt x="41" y="86" on="1"/>
        <pt x="41" y="565" on="1"/>
        <pt x="41" y="586" on="0"/>
        <pt x="24" y="603" on="0"/>
        <pt x="3" y="603" on="1"/>
        <pt x="3" y="660" on="0"/>
        <pt x="67" y="660" on="1"/>
        <pt x="120" y="660" on="0"/>
        <pt x="120" y="591" on="1"/>
        <pt x="120" y="92" on="1"/>
        <pt x="120" y="56" on="0"/>
        <pt x="193" y="56" on="0"/>
        <pt x="213" y="91" on="1"/>
      </contour>
      <contour>
        <pt x="171" y="846" on="1"/>
        <pt x="242" y="824" on="0"/>
        <pt x="242" y="811" on="1"/>
        <pt x="242" y="808" on="0"/>
        <pt x="239" y="803" on="1"/>
        <pt x="181" y="718" on="1"/>
        <pt x="163" y="688" on="1"/>
        <pt x="122" y="703" on="0"/>
        <pt x="122" y="714" on="1"/>
        <pt x="122" y="717" on="0"/>
        <pt x="124" y="720" on="1"/>
        <pt x="158" y="802" on="1"/>
      </contour>
    </TTGlyph>
    <TTGlyph name="Ucircumflex" xMin="3" yMin="-10" xMax="329" yMax="844">
      <contour>
        <pt x="213" y="568" on="1"/>
        <pt x="213" y="617" on="0"/>
        <pt x="206" y="650" on="1"/>
        <pt x="240" y="654" on="0"/>
        <pt x="275" y="654" on="1"/>
        <pt x="292" y="654" on="0"/>
        <pt x="292" y="639" on="1"/>
        <pt x="292" y="85" on="1"/>
        <pt x="292" y="64" on="0"/>
        <pt x="308" y="46" on="0"/>
        <pt x="329" y="46" on="1"/>
        <pt x="330" y="20" on="0"/>
        <pt x="301" y="-10" on="0"/>
        <pt x="274" y="-10" on="1"/>
        <pt x="232" y="-10" on="0"/>
        <pt x="220" y="21" on="1"/>
        <pt x="192" y="-10" on="0"/>
        <pt x="143" y="-10" on="1"/>
        <pt x="41" y="-10" on="0"/>
        <pt x="41" y="86" on="1"/>
        <pt x="41" y="565" on="1"/>
        <pt x="41" y="586" on="0"/>
        <pt x="24" y="603" on="0"/>
        <pt x="3" y="603" on="1"/>
        <pt x="3" y="660" on="0"/>
        <pt x="67" y="660" on="1"/>
        <pt x="120" y="660" on="0"/>
        <pt x="120" y="591" on="1"/>
        <pt x="120" y="92" on="1"/>
        <pt x="120" y="56" on="0"/>
        <pt x="193" y="56" on="0"/>
        <pt x="213" y="91" on="1"/>
      </contour>
      <contour>
        <pt x="108" y="688" on="1"/>
        <pt x="66" y="703" on="0"/>
        <pt x="66" y="714" on="1"/>
        <pt x="66" y="717" on="0"/>
        <pt x="68" y="720" on="1"/>
        <pt x="112" y="802" on="1"/>
        <pt x="127" y="836" on="1"/>
        <pt x="137" y="844" on="0"/>
        <pt x="191" y="844" on="0"/>
        <pt x="205" y="837" on="1"/>
        <pt x="210" y="822" on="0"/>
        <pt x="221" y="802" on="1"/>
        <pt x="265" y="720" on="1"/>
        <pt x="267" y="717" on="0"/>
        <pt x="267" y="709" on="0"/>
        <pt x="262" y="706" on="1"/>
        <pt x="225" y="688" on="1"/>
        <pt x="220" y="701" on="0"/>
        <pt x="208" y="718" on="1"/>
        <pt x="166" y="778" on="1"/>
        <pt x="125" y="718" on="1"/>
      </contour>
    </TTGlyph>
    <TTGlyph name="Udieresis" xMin="3" yMin="-10" xMax="329" yMax="815">
      <contour>
        <pt x="213" y="568" on="1"/>
        <pt x="213" y="617" on="0"/>
        <pt x="206" y="650" on="1"/>
        <pt x="240" y="654" on="0"/>
        <pt x="275" y="654" on="1"/>
        <pt x="292" y="654" on="0"/>
        <pt x="292" y="639" on="1"/>
        <pt x="292" y="85" on="1"/>
        <pt x="292" y="64" on="0"/>
        <pt x="308" y="46" on="0"/>
        <pt x="329" y="46" on="1"/>
        <pt x="330" y="20" on="0"/>
        <pt x="301" y="-10" on="0"/>
        <pt x="274" y="-10" on="1"/>
        <pt x="232" y="-10" on="0"/>
        <pt x="220" y="21" on="1"/>
        <pt x="192" y="-10" on="0"/>
        <pt x="143" y="-10" on="1"/>
        <pt x="41" y="-10" on="0"/>
        <pt x="41" y="86" on="1"/>
        <pt x="41" y="565" on="1"/>
        <pt x="41" y="586" on="0"/>
        <pt x="24" y="603" on="0"/>
        <pt x="3" y="603" on="1"/>
        <pt x="3" y="660" on="0"/>
        <pt x="67" y="660" on="1"/>
        <pt x="120" y="660" on="0"/>
        <pt x="120" y="591" on="1"/>
        <pt x="120" y="92" on="1"/>
        <pt x="120" y="56" on="0"/>
        <pt x="193" y="56" on="0"/>
        <pt x="213" y="91" on="1"/>
      </contour>
      <contour>
        <pt x="68" y="701" on="0"/>
        <pt x="68" y="815" on="0"/>
        <pt x="154" y="815" on="0"/>
        <pt x="154" y="701" on="0"/>
      </contour>
      <contour>
        <pt x="181" y="701" on="0"/>
        <pt x="181" y="815" on="0"/>
        <pt x="267" y="815" on="0"/>
        <pt x="267" y="701" on="0"/>
      </contour>
    </TTGlyph>
    <TTGlyph name="Ugrave" xMin="3" yMin="-10" xMax="329" yMax="846">
      <contour>
        <pt x="213" y="568" on="1"/>
        <pt x="213" y="617" on="0"/>
        <pt x="206" y="650" on="1"/>
        <pt x="240" y="654" on="0"/>
        <pt x="275" y="654" on="1"/>
        <pt x="292" y="654" on="0"/>
        <pt x="292" y="639" on="1"/>
        <pt x="292" y="85" on="1"/>
        <pt x="292" y="64" on="0"/>
        <pt x="308" y="46" on="0"/>
        <pt x="329" y="46" on="1"/>
        <pt x="330" y="20" on="0"/>
        <pt x="301" y="-10" on="0"/>
        <pt x="274" y="-10" on="1"/>
        <pt x="232" y="-10" on="0"/>
        <pt x="220" y="21" on="1"/>
        <pt x="192" y="-10" on="0"/>
        <pt x="143" y="-10" on="1"/>
        <pt x="41" y="-10" on="0"/>
        <pt x="41" y="86" on="1"/>
        <pt x="41" y="565" on="1"/>
        <pt x="41" y="586" on="0"/>
        <pt x="24" y="603" on="0"/>
        <pt x="3" y="603" on="1"/>
        <pt x="3" y="660" on="0"/>
        <pt x="67" y="660" on="1"/>
        <pt x="120" y="660" on="0"/>
        <pt x="120" y="591" on="1"/>
        <pt x="120" y="92" on="1"/>
        <pt x="120" y="56" on="0"/>
        <pt x="193" y="56" on="0"/>
        <pt x="213" y="91" on="1"/>
      </contour>
      <contour>
        <pt x="195" y="720" on="1"/>
        <pt x="197" y="717" on="0"/>
        <pt x="197" y="709" on="0"/>
        <pt x="192" y="706" on="1"/>
        <pt x="156" y="688" on="1"/>
        <pt x="149" y="701" on="0"/>
        <pt x="138" y="718" on="1"/>
        <pt x="80" y="803" on="1"/>
        <pt x="77" y="808" on="0"/>
        <pt x="77" y="812" on="1"/>
        <pt x="77" y="819" on="0"/>
        <pt x="128" y="840" on="0"/>
        <pt x="138" y="843" on="1"/>
        <pt x="148" y="846" on="1"/>
        <pt x="152" y="823" on="0"/>
        <pt x="161" y="802" on="1"/>
      </contour>
    </TTGlyph>
    <TTGlyph name="V" xMin="-2" yMin="0" xMax="303" yMax="660">
      <contour>
        <pt x="186" y="159" on="0"/>
        <pt x="221" y="469" on="0"/>
        <pt x="221" y="617" on="0"/>
        <pt x="214" y="650" on="1"/>
        <pt x="251" y="654" on="0"/>
        <pt x="284" y="654" on="1"/>
        <pt x="303" y="654" on="0"/>
        <pt x="303" y="634" on="1"/>
        <pt x="303" y="507" on="0"/>
        <pt x="261" y="148" on="0"/>
        <pt x="233" y="48" on="1"/>
        <pt x="219" y="0" on="0"/>
        <pt x="191" y="0" on="1"/>
        <pt x="132" y="0" on="1"/>
        <pt x="101" y="0" on="0"/>
        <pt x="90" y="48" on="1"/>
        <pt x="36" y="280" on="0"/>
        <pt x="36" y="565" on="1"/>
        <pt x="36" y="586" on="0"/>
        <pt x="19" y="603" on="0"/>
        <pt x="-2" y="603" on="1"/>
        <pt x="-2" y="660" on="0"/>
        <pt x="64" y="660" on="1"/>
        <pt x="117" y="660" on="0"/>
        <pt x="117" y="591" on="1"/>
        <pt x="117" y="458" on="0"/>
        <pt x="142" y="150" on="0"/>
        <pt x="164" y="60" on="1"/>
      </contour>
    </TTGlyph>
    <TTGlyph name="W" xMin="3" yMin="-10" xMax="460" yMax="660">
      <contour>
        <pt x="381" y="568" on="1"/>
        <pt x="381" y="617" on="0"/>
        <pt x="374" y="650" on="1"/>
        <pt x="408" y="654" on="0"/>
        <pt x="443" y="654" on="1"/>
        <pt x="460" y="654" on="0"/>
        <pt x="460" y="639" on="1"/>
        <pt x="460" y="96" on="1"/>
        <pt x="460" y="46" on="0"/>
        <pt x="392" y="-10" on="0"/>
        <pt x="275" y="-10" on="0"/>
        <pt x="247" y="18" on="1"/>
        <pt x="219" y="-10" on="0"/>
        <pt x="104" y="-10" on="0"/>
        <pt x="41" y="42" on="0"/>
        <pt x="41" y="92" on="1"/>
        <pt x="41" y="565" on="1"/>
        <pt x="41" y="586" on="0"/>
        <pt x="24" y="603" on="0"/>
        <pt x="3" y="603" on="1"/>
        <pt x="3" y="660" on="0"/>
        <pt x="67" y="660" on="1"/>
        <pt x="120" y="660" on="0"/>
        <pt x="120" y="591" on="1"/>
        <pt x="120" y="96" on="1"/>
        <pt x="120" y="77" on="0"/>
        <pt x="145" y="56" on="0"/>
        <pt x="185" y="56" on="0"/>
        <pt x="211" y="75" on="0"/>
        <pt x="211" y="92" on="1"/>
        <pt x="211" y="568" on="1"/>
        <pt x="211" y="617" on="0"/>
        <pt x="204" y="650" on="1"/>
        <pt x="238" y="654" on="0"/>
        <pt x="273" y="654" on="1"/>
        <pt x="290" y="654" on="0"/>
        <pt x="290" y="639" on="1"/>
        <pt x="290" y="96" on="1"/>
        <pt x="290" y="77" on="0"/>
        <pt x="315" y="56" on="0"/>
        <pt x="356" y="56" on="0"/>
        <pt x="381" y="77" on="0"/>
        <pt x="381" y="96" on="1"/>
      </contour>
    </TTGlyph>
    <TTGlyph name="X" xMin="6" yMin="-10" xMax="333" yMax="660">
      <contour>
        <pt x="216" y="568" on="1"/>
        <pt x="216" y="606" on="0"/>
        <pt x="209" y="650" on="1"/>
        <pt x="243" y="654" on="0"/>
        <pt x="278" y="654" on="1"/>
        <pt x="295" y="654" on="0"/>
        <pt x="295" y="639" on="1"/>
        <pt x="295" y="379" on="1"/>
        <pt x="295" y="334" on="0"/>
        <pt x="263" y="308" on="1"/>
        <pt x="295" y="283" on="0"/>
        <pt x="295" y="237" on="1"/>
        <pt x="295" y="85" on="1"/>
        <pt x="295" y="64" on="0"/>
        <pt x="312" y="47" on="0"/>
        <pt x="333" y="47" on="1"/>
        <pt x="333" y="-10" on="0"/>
        <pt x="269" y="-10" on="1"/>
        <pt x="216" y="-10" on="0"/>
        <pt x="216" y="59" on="1"/>
        <pt x="216" y="233" on="1"/>
        <pt x="216" y="251" on="0"/>
        <pt x="189" y="273" on="0"/>
        <pt x="149" y="273" on="0"/>
        <pt x="123" y="250" on="0"/>
        <pt x="123" y="233" on="1"/>
        <pt x="123" y="82" on="1"/>
        <pt x="123" y="33" on="0"/>
        <pt x="130" y="0" on="1"/>
        <pt x="96" y="-4" on="0"/>
        <pt x="61" y="-4" on="1"/>
        <pt x="44" y="-4" on="0"/>
        <pt x="44" y="11" on="1"/>
        <pt x="44" y="233" on="1"/>
        <pt x="44" y="279" on="0"/>
        <pt x="74" y="304" on="1"/>
        <pt x="44" y="327" on="0"/>
        <pt x="44" y="375" on="1"/>
        <pt x="44" y="565" on="1"/>
        <pt x="44" y="586" on="0"/>
        <pt x="27" y="603" on="0"/>
        <pt x="6" y="603" on="1"/>
        <pt x="6" y="660" on="0"/>
        <pt x="70" y="660" on="1"/>
        <pt x="123" y="660" on="0"/>
        <pt x="123" y="591" on="1"/>
        <pt x="123" y="379" on="1"/>
        <pt x="123" y="361" on="0"/>
        <pt x="149" y="339" on="0"/>
        <pt x="188" y="339" on="0"/>
        <pt x="216" y="361" on="0"/>
        <pt x="216" y="379" on="1"/>
      </contour>
    </TTGlyph>
    <TTGlyph name="Y" xMin="5" yMin="-10" xMax="294" yMax="660">
      <contour>
        <pt x="215" y="568" on="1"/>
        <pt x="215" y="617" on="0"/>
        <pt x="208" y="650" on="1"/>
        <pt x="242" y="654" on="0"/>
        <pt x="277" y="654" on="1"/>
        <pt x="294" y="654" on="0"/>
        <pt x="294" y="639" on="1"/>
        <pt x="294" y="96" on="1"/>
        <pt x="294" y="46" on="0"/>
        <pt x="226" y="-10" on="0"/>
        <pt x="111" y="-10" on="0"/>
        <pt x="43" y="41" on="0"/>
        <pt x="43" y="82" on="1"/>
        <pt x="43" y="150" on="1"/>
        <pt x="43" y="168" on="0"/>
        <pt x="69" y="175" on="1"/>
        <pt x="83" y="179" on="0"/>
        <pt x="111" y="179" on="0"/>
        <pt x="125" y="176" on="1"/>
        <pt x="122" y="152" on="0"/>
        <pt x="122" y="125" on="1"/>
        <pt x="122" y="96" on="1"/>
        <pt x="122" y="77" on="0"/>
        <pt x="148" y="56" on="0"/>
        <pt x="190" y="56" on="0"/>
        <pt x="215" y="77" on="0"/>
        <pt x="215" y="96" on="1"/>
        <pt x="215" y="252" on="1"/>
        <pt x="189" y="226" on="0"/>
        <pt x="145" y="226" on="1"/>
        <pt x="43" y="226" on="0"/>
        <pt x="43" y="322" on="1"/>
        <pt x="43" y="565" on="1"/>
        <pt x="43" y="586" on="0"/>
        <pt x="26" y="603" on="0"/>
        <pt x="5" y="603" on="1"/>
        <pt x="5" y="660" on="0"/>
        <pt x="69" y="660" on="1"/>
        <pt x="122" y="660" on="0"/>
        <pt x="122" y="591" on="1"/>
        <pt x="122" y="328" on="1"/>
        <pt x="122" y="292" on="0"/>
        <pt x="195" y="292" on="0"/>
        <pt x="215" y="327" on="1"/>
      </contour>
    </TTGlyph>
    <TTGlyph name="Yacute" xMin="5" yMin="-10" xMax="294" yMax="846">
      <contour>
        <pt x="215" y="568" on="1"/>
        <pt x="215" y="617" on="0"/>
        <pt x="208" y="650" on="1"/>
        <pt x="242" y="654" on="0"/>
        <pt x="277" y="654" on="1"/>
        <pt x="294" y="654" on="0"/>
        <pt x="294" y="639" on="1"/>
        <pt x="294" y="96" on="1"/>
        <pt x="294" y="46" on="0"/>
        <pt x="226" y="-10" on="0"/>
        <pt x="111" y="-10" on="0"/>
        <pt x="43" y="41" on="0"/>
        <pt x="43" y="82" on="1"/>
        <pt x="43" y="150" on="1"/>
        <pt x="43" y="168" on="0"/>
        <pt x="69" y="175" on="1"/>
        <pt x="83" y="179" on="0"/>
        <pt x="111" y="179" on="0"/>
        <pt x="125" y="176" on="1"/>
        <pt x="122" y="152" on="0"/>
        <pt x="122" y="125" on="1"/>
        <pt x="122" y="96" on="1"/>
        <pt x="122" y="77" on="0"/>
        <pt x="148" y="56" on="0"/>
        <pt x="190" y="56" on="0"/>
        <pt x="215" y="77" on="0"/>
        <pt x="215" y="96" on="1"/>
        <pt x="215" y="252" on="1"/>
        <pt x="189" y="226" on="0"/>
        <pt x="145" y="226" on="1"/>
        <pt x="43" y="226" on="0"/>
        <pt x="43" y="322" on="1"/>
        <pt x="43" y="565" on="1"/>
        <pt x="43" y="586" on="0"/>
        <pt x="26" y="603" on="0"/>
        <pt x="5" y="603" on="1"/>
        <pt x="5" y="660" on="0"/>
        <pt x="69" y="660" on="1"/>
        <pt x="122" y="660" on="0"/>
        <pt x="122" y="591" on="1"/>
        <pt x="122" y="328" on="1"/>
        <pt x="122" y="292" on="0"/>
        <pt x="195" y="292" on="0"/>
        <pt x="215" y="327" on="1"/>
      </contour>
      <contour>
        <pt x="180" y="846" on="1"/>
        <pt x="251" y="824" on="0"/>
        <pt x="251" y="811" on="1"/>
        <pt x="251" y="808" on="0"/>
        <pt x="248" y="803" on="1"/>
        <pt x="190" y="718" on="1"/>
        <pt x="172" y="688" on="1"/>
        <pt x="131" y="703" on="0"/>
        <pt x="131" y="714" on="1"/>
        <pt x="131" y="717" on="0"/>
        <pt x="133" y="720" on="1"/>
        <pt x="167" y="802" on="1"/>
      </contour>
    </TTGlyph>
    <TTGlyph name="Ydieresis" xMin="5" yMin="-10" xMax="294" yMax="815">
      <contour>
        <pt x="215" y="568" on="1"/>
        <pt x="215" y="617" on="0"/>
        <pt x="208" y="650" on="1"/>
        <pt x="242" y="654" on="0"/>
        <pt x="277" y="654" on="1"/>
        <pt x="294" y="654" on="0"/>
        <pt x="294" y="639" on="1"/>
        <pt x="294" y="96" on="1"/>
        <pt x="294" y="46" on="0"/>
        <pt x="226" y="-10" on="0"/>
        <pt x="111" y="-10" on="0"/>
        <pt x="43" y="41" on="0"/>
        <pt x="43" y="82" on="1"/>
        <pt x="43" y="150" on="1"/>
        <pt x="43" y="168" on="0"/>
        <pt x="69" y="175" on="1"/>
        <pt x="83" y="179" on="0"/>
        <pt x="111" y="179" on="0"/>
        <pt x="125" y="176" on="1"/>
        <pt x="122" y="152" on="0"/>
        <pt x="122" y="125" on="1"/>
        <pt x="122" y="96" on="1"/>
        <pt x="122" y="77" on="0"/>
        <pt x="148" y="56" on="0"/>
        <pt x="190" y="56" on="0"/>
        <pt x="215" y="77" on="0"/>
        <pt x="215" y="96" on="1"/>
        <pt x="215" y="252" on="1"/>
        <pt x="189" y="226" on="0"/>
        <pt x="145" y="226" on="1"/>
        <pt x="43" y="226" on="0"/>
        <pt x="43" y="322" on="1"/>
        <pt x="43" y="565" on="1"/>
        <pt x="43" y="586" on="0"/>
        <pt x="26" y="603" on="0"/>
        <pt x="5" y="603" on="1"/>
        <pt x="5" y="660" on="0"/>
        <pt x="69" y="660" on="1"/>
        <pt x="122" y="660" on="0"/>
        <pt x="122" y="591" on="1"/>
        <pt x="122" y="328" on="1"/>
        <pt x="122" y="292" on="0"/>
        <pt x="195" y="292" on="0"/>
        <pt x="215" y="327" on="1"/>
      </contour>
      <contour>
        <pt x="68" y="701" on="0"/>
        <pt x="68" y="815" on="0"/>
        <pt x="154" y="815" on="0"/>
        <pt x="154" y="701" on="0"/>
      </contour>
      <contour>
        <pt x="181" y="701" on="0"/>
        <pt x="181" y="815" on="0"/>
        <pt x="267" y="815" on="0"/>
        <pt x="267" y="701" on="0"/>
      </contour>
    </TTGlyph>
    <TTGlyph name="Z" xMin="16" yMin="0" xMax="267" yMax="650">
      <contour>
        <pt x="197" y="66" on="1"/>
        <pt x="235" y="66" on="0"/>
        <pt x="261" y="72" on="1"/>
        <pt x="267" y="52" on="0"/>
        <pt x="267" y="20" on="1"/>
        <pt x="267" y="0" on="0"/>
        <pt x="251" y="0" on="1"/>
        <pt x="22" y="0" on="1"/>
        <pt x="17" y="28" on="0"/>
        <pt x="17" y="90" on="0"/>
        <pt x="35" y="188" on="0"/>
        <pt x="87" y="303" on="0"/>
        <pt x="114" y="358" on="1"/>
        <pt x="181" y="496" on="0"/>
        <pt x="181" y="584" on="1"/>
        <pt x="93" y="584" on="1"/>
        <pt x="55" y="584" on="0"/>
        <pt x="31" y="578" on="1"/>
        <pt x="22" y="598" on="0"/>
        <pt x="22" y="630" on="1"/>
        <pt x="22" y="650" on="0"/>
        <pt x="38" y="650" on="1"/>
        <pt x="262" y="650" on="1"/>
        <pt x="266" y="624" on="0"/>
        <pt x="266" y="545" on="0"/>
        <pt x="229" y="405" on="0"/>
        <pt x="196" y="342" on="1"/>
        <pt x="105" y="167" on="0"/>
        <pt x="102" y="66" on="1"/>
      </contour>
    </TTGlyph>
    <TTGlyph name="Zcaron" xMin="16" yMin="0" xMax="267" yMax="844">
      <contour>
        <pt x="197" y="66" on="1"/>
        <pt x="235" y="66" on="0"/>
        <pt x="261" y="72" on="1"/>
        <pt x="267" y="52" on="0"/>
        <pt x="267" y="20" on="1"/>
        <pt x="267" y="0" on="0"/>
        <pt x="251" y="0" on="1"/>
        <pt x="22" y="0" on="1"/>
        <pt x="17" y="28" on="0"/>
        <pt x="17" y="90" on="0"/>
        <pt x="35" y="188" on="0"/>
        <pt x="87" y="303" on="0"/>
        <pt x="114" y="358" on="1"/>
        <pt x="181" y="496" on="0"/>
        <pt x="181" y="584" on="1"/>
        <pt x="93" y="584" on="1"/>
        <pt x="55" y="584" on="0"/>
        <pt x="31" y="578" on="1"/>
        <pt x="22" y="598" on="0"/>
        <pt x="22" y="630" on="1"/>
        <pt x="22" y="650" on="0"/>
        <pt x="38" y="650" on="1"/>
        <pt x="262" y="650" on="1"/>
        <pt x="266" y="624" on="0"/>
        <pt x="266" y="545" on="0"/>
        <pt x="229" y="405" on="0"/>
        <pt x="196" y="342" on="1"/>
        <pt x="105" y="167" on="0"/>
        <pt x="102" y="66" on="1"/>
      </contour>
      <contour>
        <pt x="200" y="844" on="1"/>
        <pt x="242" y="829" on="0"/>
        <pt x="242" y="818" on="1"/>
        <pt x="242" y="815" on="0"/>
        <pt x="240" y="812" on="1"/>
        <pt x="196" y="730" on="1"/>
        <pt x="180" y="695" on="1"/>
        <pt x="166" y="688" on="0"/>
        <pt x="112" y="688" on="0"/>
        <pt x="102" y="696" on="1"/>
        <pt x="97" y="712" on="0"/>
        <pt x="87" y="730" on="1"/>
        <pt x="43" y="812" on="1"/>
        <pt x="41" y="815" on="0"/>
        <pt x="41" y="823" on="0"/>
        <pt x="46" y="826" on="1"/>
        <pt x="83" y="844" on="1"/>
        <pt x="89" y="830" on="0"/>
        <pt x="100" y="814" on="1"/>
        <pt x="141" y="754" on="1"/>
        <pt x="183" y="814" on="1"/>
      </contour>
    </TTGlyph>
    <TTGlyph name="a" xMin="21" yMin="-10" xMax="292" yMax="500">
      <contour>
        <pt x="133" y="183" on="1"/>
        <pt x="100" y="161" on="0"/>
        <pt x="100" y="58" on="0"/>
        <pt x="163" y="58" on="0"/>
        <pt x="181" y="94" on="1"/>
        <pt x="181" y="215" on="1"/>
      </contour>
      <contour>
        <pt x="144" y="500" on="1"/>
        <pt x="256" y="500" on="0"/>
        <pt x="256" y="401" on="1"/>
        <pt x="256" y="83" on="1"/>
        <pt x="256" y="62" on="0"/>
        <pt x="271" y="44" on="0"/>
        <pt x="292" y="44" on="1"/>
        <pt x="293" y="18" on="0"/>
        <pt x="264" y="-10" on="0"/>
        <pt x="237" y="-10" on="1"/>
        <pt x="195" y="-10" on="0"/>
        <pt x="186" y="21" on="1"/>
        <pt x="155" y="-10" on="0"/>
        <pt x="71" y="-10" on="0"/>
        <pt x="21" y="54" on="0"/>
        <pt x="21" y="108" on="1"/>
        <pt x="21" y="190" on="0"/>
        <pt x="90" y="232" on="1"/>
        <pt x="181" y="286" on="1"/>
        <pt x="181" y="394" on="1"/>
        <pt x="181" y="436" on="0"/>
        <pt x="102" y="436" on="0"/>
        <pt x="102" y="389" on="1"/>
        <pt x="102" y="356" on="1"/>
        <pt x="105" y="309" on="1"/>
        <pt x="92" y="306" on="0"/>
        <pt x="65" y="306" on="0"/>
        <pt x="53" y="310" on="1"/>
        <pt x="29" y="316" on="0"/>
        <pt x="29" y="333" on="1"/>
        <pt x="29" y="415" on="1"/>
        <pt x="29" y="455" on="0"/>
        <pt x="92" y="500" on="0"/>
      </contour>
    </TTGlyph>
    <TTGlyph name="aacute" xMin="21" yMin="-10" xMax="292" yMax="686">
      <contour>
        <pt x="181" y="94" on="1"/>
        <pt x="181" y="215" on="1"/>
        <pt x="133" y="183" on="1"/>
        <pt x="100" y="161" on="0"/>
        <pt x="100" y="58" on="0"/>
        <pt x="163" y="58" on="0"/>
      </contour>
      <contour>
        <pt x="144" y="500" on="1"/>
        <pt x="256" y="500" on="0"/>
        <pt x="256" y="401" on="1"/>
        <pt x="256" y="83" on="1"/>
        <pt x="256" y="62" on="0"/>
        <pt x="271" y="44" on="0"/>
        <pt x="292" y="44" on="1"/>
        <pt x="293" y="18" on="0"/>
        <pt x="264" y="-10" on="0"/>
        <pt x="237" y="-10" on="1"/>
        <pt x="195" y="-10" on="0"/>
        <pt x="186" y="21" on="1"/>
        <pt x="155" y="-10" on="0"/>
        <pt x="71" y="-10" on="0"/>
        <pt x="21" y="54" on="0"/>
        <pt x="21" y="108" on="1"/>
        <pt x="21" y="190" on="0"/>
        <pt x="90" y="232" on="1"/>
        <pt x="181" y="286" on="1"/>
        <pt x="181" y="394" on="1"/>
        <pt x="181" y="436" on="0"/>
        <pt x="102" y="436" on="0"/>
        <pt x="102" y="389" on="1"/>
        <pt x="102" y="356" on="1"/>
        <pt x="102" y="331" on="0"/>
        <pt x="105" y="309" on="1"/>
        <pt x="92" y="306" on="0"/>
        <pt x="65" y="306" on="0"/>
        <pt x="53" y="310" on="1"/>
        <pt x="29" y="316" on="0"/>
        <pt x="29" y="333" on="1"/>
        <pt x="29" y="415" on="1"/>
        <pt x="29" y="455" on="0"/>
        <pt x="92" y="500" on="0"/>
      </contour>
      <contour>
        <pt x="164" y="686" on="1"/>
        <pt x="235" y="664" on="0"/>
        <pt x="235" y="651" on="1"/>
        <pt x="235" y="648" on="0"/>
        <pt x="232" y="643" on="1"/>
        <pt x="174" y="558" on="1"/>
        <pt x="156" y="528" on="1"/>
        <pt x="115" y="543" on="0"/>
        <pt x="115" y="554" on="1"/>
        <pt x="115" y="557" on="0"/>
        <pt x="117" y="560" on="1"/>
        <pt x="151" y="642" on="1"/>
      </contour>
    </TTGlyph>
    <TTGlyph name="acircumflex" xMin="21" yMin="-10" xMax="292" yMax="684">
      <contour>
        <pt x="181" y="94" on="1"/>
        <pt x="181" y="215" on="1"/>
        <pt x="133" y="183" on="1"/>
        <pt x="100" y="161" on="0"/>
        <pt x="100" y="58" on="0"/>
        <pt x="163" y="58" on="0"/>
      </contour>
      <contour>
        <pt x="144" y="500" on="1"/>
        <pt x="256" y="500" on="0"/>
        <pt x="256" y="401" on="1"/>
        <pt x="256" y="83" on="1"/>
        <pt x="256" y="62" on="0"/>
        <pt x="271" y="44" on="0"/>
        <pt x="292" y="44" on="1"/>
        <pt x="293" y="18" on="0"/>
        <pt x="264" y="-10" on="0"/>
        <pt x="237" y="-10" on="1"/>
        <pt x="195" y="-10" on="0"/>
        <pt x="186" y="21" on="1"/>
        <pt x="155" y="-10" on="0"/>
        <pt x="71" y="-10" on="0"/>
        <pt x="21" y="54" on="0"/>
        <pt x="21" y="108" on="1"/>
        <pt x="21" y="190" on="0"/>
        <pt x="90" y="232" on="1"/>
        <pt x="181" y="286" on="1"/>
        <pt x="181" y="394" on="1"/>
        <pt x="181" y="436" on="0"/>
        <pt x="102" y="436" on="0"/>
        <pt x="102" y="389" on="1"/>
        <pt x="102" y="356" on="1"/>
        <pt x="102" y="331" on="0"/>
        <pt x="105" y="309" on="1"/>
        <pt x="92" y="306" on="0"/>
        <pt x="65" y="306" on="0"/>
        <pt x="53" y="310" on="1"/>
        <pt x="29" y="316" on="0"/>
        <pt x="29" y="333" on="1"/>
        <pt x="29" y="415" on="1"/>
        <pt x="29" y="455" on="0"/>
        <pt x="92" y="500" on="0"/>
      </contour>
      <contour>
        <pt x="86" y="528" on="1"/>
        <pt x="44" y="543" on="0"/>
        <pt x="44" y="554" on="1"/>
        <pt x="44" y="557" on="0"/>
        <pt x="46" y="560" on="1"/>
        <pt x="90" y="642" on="1"/>
        <pt x="105" y="676" on="1"/>
        <pt x="115" y="684" on="0"/>
        <pt x="169" y="684" on="0"/>
        <pt x="183" y="677" on="1"/>
        <pt x="188" y="662" on="0"/>
        <pt x="199" y="642" on="1"/>
        <pt x="243" y="560" on="1"/>
        <pt x="245" y="557" on="0"/>
        <pt x="245" y="549" on="0"/>
        <pt x="240" y="546" on="1"/>
        <pt x="203" y="528" on="1"/>
        <pt x="198" y="541" on="0"/>
        <pt x="186" y="558" on="1"/>
        <pt x="144" y="618" on="1"/>
        <pt x="103" y="558" on="1"/>
      </contour>
    </TTGlyph>
    <TTGlyph name="acute" xMin="116" yMin="528" xMax="236" yMax="686">
      <contour>
        <pt x="165" y="686" on="1"/>
        <pt x="236" y="664" on="0"/>
        <pt x="236" y="651" on="1"/>
        <pt x="236" y="648" on="0"/>
        <pt x="233" y="643" on="1"/>
        <pt x="175" y="558" on="1"/>
        <pt x="157" y="528" on="1"/>
        <pt x="116" y="543" on="0"/>
        <pt x="116" y="554" on="1"/>
        <pt x="116" y="557" on="0"/>
        <pt x="118" y="560" on="1"/>
        <pt x="152" y="642" on="1"/>
      </contour>
    </TTGlyph>
    <TTGlyph name="adieresis" xMin="21" yMin="-10" xMax="292" yMax="655">
      <contour>
        <pt x="133" y="183" on="1"/>
        <pt x="100" y="161" on="0"/>
        <pt x="100" y="58" on="0"/>
        <pt x="163" y="58" on="0"/>
        <pt x="181" y="94" on="1"/>
        <pt x="181" y="215" on="1"/>
      </contour>
      <contour>
        <pt x="144" y="500" on="1"/>
        <pt x="256" y="500" on="0"/>
        <pt x="256" y="401" on="1"/>
        <pt x="256" y="83" on="1"/>
        <pt x="256" y="62" on="0"/>
        <pt x="271" y="44" on="0"/>
        <pt x="292" y="44" on="1"/>
        <pt x="293" y="18" on="0"/>
        <pt x="264" y="-10" on="0"/>
        <pt x="237" y="-10" on="1"/>
        <pt x="195" y="-10" on="0"/>
        <pt x="186" y="21" on="1"/>
        <pt x="155" y="-10" on="0"/>
        <pt x="71" y="-10" on="0"/>
        <pt x="21" y="54" on="0"/>
        <pt x="21" y="108" on="1"/>
        <pt x="21" y="190" on="0"/>
        <pt x="90" y="232" on="1"/>
        <pt x="181" y="286" on="1"/>
        <pt x="181" y="394" on="1"/>
        <pt x="181" y="436" on="0"/>
        <pt x="102" y="436" on="0"/>
        <pt x="102" y="389" on="1"/>
        <pt x="102" y="356" on="1"/>
        <pt x="105" y="309" on="1"/>
        <pt x="92" y="306" on="0"/>
        <pt x="65" y="306" on="0"/>
        <pt x="53" y="310" on="1"/>
        <pt x="29" y="316" on="0"/>
        <pt x="29" y="333" on="1"/>
        <pt x="29" y="415" on="1"/>
        <pt x="29" y="455" on="0"/>
        <pt x="92" y="500" on="0"/>
      </contour>
      <contour>
        <pt x="42" y="541" on="0"/>
        <pt x="42" y="655" on="0"/>
        <pt x="128" y="655" on="0"/>
        <pt x="128" y="541" on="0"/>
      </contour>
      <contour>
        <pt x="155" y="541" on="0"/>
        <pt x="155" y="655" on="0"/>
        <pt x="241" y="655" on="0"/>
        <pt x="241" y="541" on="0"/>
      </contour>
    </TTGlyph>
    <TTGlyph name="ae" xMin="21" yMin="-10" xMax="412" yMax="500">
      <contour>
        <pt x="29" y="455" on="0"/>
        <pt x="92" y="500" on="0"/>
        <pt x="193" y="500" on="0"/>
        <pt x="218" y="475" on="1"/>
        <pt x="243" y="500" on="0"/>
        <pt x="297" y="500" on="1"/>
        <pt x="412" y="500" on="0"/>
        <pt x="412" y="390" on="1"/>
        <pt x="412" y="332" on="0"/>
        <pt x="380" y="266" on="0"/>
        <pt x="343" y="251" on="1"/>
        <pt x="256" y="217" on="1"/>
        <pt x="256" y="91" on="1"/>
        <pt x="256" y="54" on="0"/>
        <pt x="335" y="54" on="0"/>
        <pt x="335" y="101" on="1"/>
        <pt x="335" y="124" on="1"/>
        <pt x="332" y="171" on="1"/>
        <pt x="345" y="174" on="0"/>
        <pt x="372" y="174" on="0"/>
        <pt x="384" y="170" on="1"/>
        <pt x="408" y="164" on="0"/>
        <pt x="408" y="147" on="1"/>
        <pt x="408" y="75" on="1"/>
        <pt x="408" y="35" on="0"/>
        <pt x="345" y="-10" on="0"/>
        <pt x="229" y="-10" on="0"/>
        <pt x="201" y="26" on="1"/>
        <pt x="172" y="-10" on="0"/>
        <pt x="76" y="-10" on="0"/>
        <pt x="21" y="54" on="0"/>
        <pt x="21" y="108" on="1"/>
        <pt x="21" y="202" on="0"/>
        <pt x="93" y="228" on="1"/>
        <pt x="181" y="260" on="1"/>
        <pt x="181" y="400" on="1"/>
        <pt x="181" y="436" on="0"/>
        <pt x="102" y="436" on="0"/>
        <pt x="102" y="389" on="1"/>
        <pt x="102" y="356" on="1"/>
        <pt x="105" y="309" on="1"/>
        <pt x="92" y="306" on="0"/>
        <pt x="65" y="306" on="0"/>
        <pt x="53" y="310" on="1"/>
        <pt x="29" y="316" on="0"/>
        <pt x="29" y="333" on="1"/>
        <pt x="29" y="415" on="1"/>
      </contour>
      <contour>
        <pt x="335" y="393" on="1"/>
        <pt x="335" y="413" on="0"/>
        <pt x="311" y="436" on="0"/>
        <pt x="293" y="436" on="1"/>
        <pt x="256" y="436" on="0"/>
        <pt x="256" y="403" on="1"/>
        <pt x="256" y="284" on="1"/>
        <pt x="304" y="304" on="1"/>
        <pt x="335" y="316" on="0"/>
      </contour>
      <contour>
        <pt x="100" y="114" on="1"/>
        <pt x="100" y="88" on="0"/>
        <pt x="121" y="58" on="0"/>
        <pt x="137" y="58" on="1"/>
        <pt x="163" y="58" on="0"/>
        <pt x="181" y="94" on="1"/>
        <pt x="181" y="194" on="1"/>
        <pt x="133" y="175" on="1"/>
        <pt x="100" y="162" on="0"/>
      </contour>
    </TTGlyph>
    <TTGlyph name="agrave" xMin="21" yMin="-10" xMax="292" yMax="686">
      <contour>
        <pt x="133" y="183" on="1"/>
        <pt x="100" y="161" on="0"/>
        <pt x="100" y="58" on="0"/>
        <pt x="163" y="58" on="0"/>
        <pt x="181" y="94" on="1"/>
        <pt x="181" y="215" on="1"/>
      </contour>
      <contour>
        <pt x="144" y="500" on="1"/>
        <pt x="256" y="500" on="0"/>
        <pt x="256" y="401" on="1"/>
        <pt x="256" y="83" on="1"/>
        <pt x="256" y="62" on="0"/>
        <pt x="271" y="44" on="0"/>
        <pt x="292" y="44" on="1"/>
        <pt x="293" y="18" on="0"/>
        <pt x="264" y="-10" on="0"/>
        <pt x="237" y="-10" on="1"/>
        <pt x="195" y="-10" on="0"/>
        <pt x="186" y="21" on="1"/>
        <pt x="155" y="-10" on="0"/>
        <pt x="71" y="-10" on="0"/>
        <pt x="21" y="54" on="0"/>
        <pt x="21" y="108" on="1"/>
        <pt x="21" y="190" on="0"/>
        <pt x="90" y="232" on="1"/>
        <pt x="181" y="286" on="1"/>
        <pt x="181" y="394" on="1"/>
        <pt x="181" y="436" on="0"/>
        <pt x="102" y="436" on="0"/>
        <pt x="102" y="389" on="1"/>
        <pt x="102" y="356" on="1"/>
        <pt x="105" y="309" on="1"/>
        <pt x="92" y="306" on="0"/>
        <pt x="65" y="306" on="0"/>
        <pt x="53" y="310" on="1"/>
        <pt x="29" y="316" on="0"/>
        <pt x="29" y="333" on="1"/>
        <pt x="29" y="415" on="1"/>
        <pt x="29" y="455" on="0"/>
        <pt x="92" y="500" on="0"/>
      </contour>
      <contour>
        <pt x="180" y="560" on="1"/>
        <pt x="182" y="557" on="0"/>
        <pt x="182" y="549" on="0"/>
        <pt x="177" y="546" on="1"/>
        <pt x="141" y="528" on="1"/>
        <pt x="134" y="541" on="0"/>
        <pt x="123" y="558" on="1"/>
        <pt x="65" y="643" on="1"/>
        <pt x="62" y="648" on="0"/>
        <pt x="62" y="652" on="1"/>
        <pt x="62" y="659" on="0"/>
        <pt x="113" y="680" on="0"/>
        <pt x="123" y="683" on="1"/>
        <pt x="133" y="686" on="1"/>
        <pt x="137" y="663" on="0"/>
        <pt x="146" y="642" on="1"/>
      </contour>
    </TTGlyph>
    <TTGlyph name="ampersand" xMin="34" yMin="-10" xMax="360" yMax="660">
      <contour>
        <pt x="360" y="5" on="1"/>
        <pt x="360" y="-10" on="0"/>
        <pt x="341" y="-10" on="1"/>
        <pt x="261" y="-10" on="0"/>
        <pt x="234" y="13" on="1"/>
        <pt x="202" y="-10" on="0"/>
        <pt x="102" y="-10" on="0"/>
        <pt x="34" y="46" on="0"/>
        <pt x="34" y="96" on="1"/>
        <pt x="34" y="224" on="1"/>
        <pt x="34" y="269" on="0"/>
        <pt x="63" y="293" on="1"/>
        <pt x="34" y="317" on="0"/>
        <pt x="34" y="362" on="1"/>
        <pt x="34" y="554" on="1"/>
        <pt x="34" y="604" on="0"/>
        <pt x="102" y="660" on="0"/>
        <pt x="215" y="660" on="0"/>
        <pt x="281" y="609" on="0"/>
        <pt x="281" y="568" on="1"/>
        <pt x="281" y="494" on="1"/>
        <pt x="281" y="476" on="0"/>
        <pt x="255" y="469" on="1"/>
        <pt x="241" y="465" on="0"/>
        <pt x="213" y="465" on="0"/>
        <pt x="199" y="468" on="1"/>
        <pt x="202" y="492" on="0"/>
        <pt x="202" y="519" on="1"/>
        <pt x="202" y="554" on="1"/>
        <pt x="202" y="594" on="0"/>
        <pt x="158" y="594" on="1"/>
        <pt x="137" y="594" on="0"/>
        <pt x="113" y="573" on="0"/>
        <pt x="113" y="554" on="1"/>
        <pt x="113" y="366" on="1"/>
        <pt x="113" y="348" on="0"/>
        <pt x="136" y="326" on="0"/>
        <pt x="155" y="326" on="1"/>
        <pt x="208" y="326" on="1"/>
        <pt x="218" y="381" on="1"/>
        <pt x="220" y="395" on="0"/>
        <pt x="250" y="408" on="0"/>
        <pt x="273" y="408" on="0"/>
        <pt x="281" y="407" on="1"/>
        <pt x="281" y="326" on="1"/>
        <pt x="298" y="326" on="1"/>
        <pt x="350" y="331" on="1"/>
        <pt x="355" y="305" on="0"/>
        <pt x="355" y="266" on="0"/>
        <pt x="342" y="266" on="1"/>
        <pt x="281" y="266" on="1"/>
        <pt x="281" y="96" on="1"/>
        <pt x="281" y="72" on="0"/>
        <pt x="316" y="53" on="0"/>
        <pt x="345" y="53" on="0"/>
        <pt x="355" y="55" on="1"/>
        <pt x="360" y="29" on="0"/>
      </contour>
      <contour>
        <pt x="206" y="92" on="1"/>
        <pt x="206" y="260" on="1"/>
        <pt x="159" y="260" on="1"/>
        <pt x="138" y="260" on="0"/>
        <pt x="113" y="238" on="0"/>
        <pt x="113" y="220" on="1"/>
        <pt x="113" y="96" on="1"/>
        <pt x="113" y="77" on="0"/>
        <pt x="138" y="56" on="0"/>
        <pt x="179" y="56" on="0"/>
        <pt x="206" y="75" on="0"/>
      </contour>
    </TTGlyph>
    <TTGlyph name="aring" xMin="21" yMin="-10" xMax="292" yMax="707">
      <contour>
        <pt x="181" y="94" on="1"/>
        <pt x="181" y="215" on="1"/>
        <pt x="133" y="183" on="1"/>
        <pt x="100" y="161" on="0"/>
        <pt x="100" y="58" on="0"/>
        <pt x="163" y="58" on="0"/>
      </contour>
      <contour>
        <pt x="144" y="500" on="1"/>
        <pt x="256" y="500" on="0"/>
        <pt x="256" y="401" on="1"/>
        <pt x="256" y="83" on="1"/>
        <pt x="256" y="62" on="0"/>
        <pt x="271" y="44" on="0"/>
        <pt x="292" y="44" on="1"/>
        <pt x="293" y="18" on="0"/>
        <pt x="264" y="-10" on="0"/>
        <pt x="237" y="-10" on="1"/>
        <pt x="195" y="-10" on="0"/>
        <pt x="186" y="21" on="1"/>
        <pt x="155" y="-10" on="0"/>
        <pt x="71" y="-10" on="0"/>
        <pt x="21" y="54" on="0"/>
        <pt x="21" y="108" on="1"/>
        <pt x="21" y="190" on="0"/>
        <pt x="90" y="232" on="1"/>
        <pt x="181" y="286" on="1"/>
        <pt x="181" y="394" on="1"/>
        <pt x="181" y="436" on="0"/>
        <pt x="102" y="436" on="0"/>
        <pt x="102" y="389" on="1"/>
        <pt x="102" y="356" on="1"/>
        <pt x="102" y="331" on="0"/>
        <pt x="105" y="309" on="1"/>
        <pt x="92" y="306" on="0"/>
        <pt x="65" y="306" on="0"/>
        <pt x="53" y="310" on="1"/>
        <pt x="29" y="316" on="0"/>
        <pt x="29" y="333" on="1"/>
        <pt x="29" y="415" on="1"/>
        <pt x="29" y="455" on="0"/>
        <pt x="92" y="500" on="0"/>
      </contour>
      <contour>
        <pt x="58" y="614" on="1"/>
        <pt x="58" y="648" on="1"/>
        <pt x="58" y="707" on="0"/>
        <pt x="224" y="707" on="0"/>
        <pt x="224" y="650" on="1"/>
        <pt x="224" y="616" on="1"/>
        <pt x="224" y="557" on="0"/>
        <pt x="58" y="557" on="0"/>
      </contour>
      <contour>
        <pt x="104" y="646" on="1"/>
        <pt x="104" y="618" on="1"/>
        <pt x="104" y="594" on="0"/>
        <pt x="178" y="594" on="0"/>
        <pt x="178" y="618" on="1"/>
        <pt x="178" y="646" on="1"/>
        <pt x="178" y="670" on="0"/>
        <pt x="104" y="670" on="0"/>
      </contour>
    </TTGlyph>
    <TTGlyph name="asciicircum" xMin="20" yMin="513" xMax="239" yMax="684">
      <contour>
        <pt x="62" y="513" on="1"/>
        <pt x="20" y="528" on="0"/>
        <pt x="20" y="539" on="1"/>
        <pt x="20" y="542" on="0"/>
        <pt x="22" y="545" on="1"/>
        <pt x="75" y="642" on="1"/>
        <pt x="90" y="676" on="1"/>
        <pt x="100" y="684" on="0"/>
        <pt x="154" y="684" on="0"/>
        <pt x="168" y="677" on="1"/>
        <pt x="173" y="662" on="0"/>
        <pt x="184" y="642" on="1"/>
        <pt x="237" y="545" on="1"/>
        <pt x="239" y="542" on="0"/>
        <pt x="239" y="534" on="0"/>
        <pt x="234" y="531" on="1"/>
        <pt x="197" y="513" on="1"/>
        <pt x="192" y="526" on="0"/>
        <pt x="180" y="543" on="1"/>
        <pt x="129" y="618" on="1"/>
        <pt x="79" y="543" on="1"/>
      </contour>
    </TTGlyph>
    <TTGlyph name="asciitilde" xMin="26" yMin="255" xMax="314" yMax="343">
      <contour>
        <pt x="64" y="255" on="1"/>
        <pt x="26" y="259" on="0"/>
        <pt x="26" y="294" on="1"/>
        <pt x="26" y="298" on="0"/>
        <pt x="27" y="303" on="1"/>
        <pt x="32" y="340" on="0"/>
        <pt x="73" y="340" on="1"/>
        <pt x="79" y="340" on="0"/>
        <pt x="87" y="339" on="1"/>
        <pt x="245" y="318" on="1"/>
        <pt x="248" y="318" on="0"/>
        <pt x="251" y="318" on="1"/>
        <pt x="272" y="318" on="0"/>
        <pt x="276" y="343" on="1"/>
        <pt x="295" y="342" on="0"/>
        <pt x="313" y="318" on="0"/>
        <pt x="313" y="308" on="1"/>
        <pt x="313" y="258" on="0"/>
        <pt x="266" y="258" on="1"/>
        <pt x="260" y="258" on="0"/>
        <pt x="252" y="259" on="1"/>
        <pt x="95" y="281" on="1"/>
        <pt x="92" y="281" on="0"/>
        <pt x="89" y="281" on="1"/>
        <pt x="69" y="281" on="0"/>
      </contour>
    </TTGlyph>
    <TTGlyph name="asterisk" xMin="19" yMin="312" xMax="342" yMax="660">
      <contour>
        <pt x="143" y="646" on="1"/>
        <pt x="166" y="660" on="0"/>
        <pt x="210" y="660" on="0"/>
        <pt x="210" y="647" on="1"/>
        <pt x="208" y="532" on="1"/>
        <pt x="260" y="565" on="1"/>
        <pt x="287" y="584" on="0"/>
        <pt x="301" y="598" on="1"/>
        <pt x="324" y="584" on="0"/>
        <pt x="337" y="562" on="1"/>
        <pt x="341" y="555" on="0"/>
        <pt x="341" y="543" on="0"/>
        <pt x="335" y="540" on="1"/>
        <pt x="233" y="485" on="1"/>
        <pt x="288" y="456" on="1"/>
        <pt x="310" y="444" on="0"/>
        <pt x="338" y="438" on="1"/>
        <pt x="336" y="407" on="0"/>
        <pt x="316" y="372" on="0"/>
        <pt x="304" y="379" on="1"/>
        <pt x="207" y="438" on="1"/>
        <pt x="210" y="378" on="1"/>
        <pt x="217" y="326" on="1"/>
        <pt x="191" y="312" on="0"/>
        <pt x="151" y="312" on="0"/>
        <pt x="151" y="325" on="1"/>
        <pt x="154" y="440" on="1"/>
        <pt x="101" y="406" on="1"/>
        <pt x="59" y="374" on="1"/>
        <pt x="35" y="390" on="0"/>
        <pt x="19" y="416" on="0"/>
        <pt x="19" y="427" on="0"/>
        <pt x="26" y="431" on="1"/>
        <pt x="126" y="485" on="1"/>
        <pt x="71" y="514" on="1"/>
        <pt x="22" y="534" on="1"/>
        <pt x="24" y="562" on="0"/>
        <pt x="36" y="585" on="1"/>
        <pt x="45" y="599" on="0"/>
        <pt x="55" y="592" on="1"/>
        <pt x="154" y="531" on="1"/>
        <pt x="151" y="595" on="1"/>
      </contour>
    </TTGlyph>
    <TTGlyph name="at" xMin="21" yMin="-137" xMax="508" yMax="650">
      <contour>
        <pt x="276" y="422" on="1"/>
        <pt x="261" y="422" on="0"/>
        <pt x="240" y="404" on="0"/>
        <pt x="239" y="389" on="1"/>
        <pt x="221" y="102" on="1"/>
        <pt x="220" y="72" on="0"/>
        <pt x="246" y="72" on="1"/>
        <pt x="259" y="72" on="0"/>
        <pt x="284" y="92" on="0"/>
        <pt x="288" y="103" on="1"/>
        <pt x="309" y="422" on="1"/>
      </contour>
      <contour>
        <pt x="125" y="-82" on="1"/>
        <pt x="367" y="-82" on="1"/>
        <pt x="415" y="-77" on="1"/>
        <pt x="417" y="-123" on="1"/>
        <pt x="415" y="-137" on="0"/>
        <pt x="404" y="-137" on="1"/>
        <pt x="119" y="-137" on="1"/>
        <pt x="70" y="-137" on="0"/>
        <pt x="22" y="-96" on="0"/>
        <pt x="22" y="-61" on="1"/>
        <pt x="22" y="-56" on="0"/>
        <pt x="22" y="-52" on="1"/>
        <pt x="61" y="562" on="1"/>
        <pt x="64" y="604" on="0"/>
        <pt x="124" y="650" on="0"/>
        <pt x="172" y="650" on="1"/>
        <pt x="408" y="650" on="1"/>
        <pt x="456" y="650" on="0"/>
        <pt x="507" y="606" on="0"/>
        <pt x="507" y="568" on="1"/>
        <pt x="507" y="565" on="0"/>
        <pt x="507" y="562" on="1"/>
        <pt x="478" y="89" on="1"/>
        <pt x="474" y="4" on="0"/>
        <pt x="380" y="4" on="1"/>
        <pt x="323" y="4" on="0"/>
        <pt x="302" y="44" on="1"/>
        <pt x="273" y="12" on="0"/>
        <pt x="193" y="12" on="0"/>
        <pt x="156" y="55" on="0"/>
        <pt x="156" y="90" on="1"/>
        <pt x="156" y="95" on="0"/>
        <pt x="156" y="101" on="1"/>
        <pt x="174" y="386" on="1"/>
        <pt x="177" y="430" on="0"/>
        <pt x="234" y="478" on="0"/>
        <pt x="280" y="478" on="1"/>
        <pt x="378" y="478" on="1"/>
        <pt x="353" y="93" on="1"/>
        <pt x="353" y="90" on="0"/>
        <pt x="353" y="87" on="1"/>
        <pt x="353" y="59" on="0"/>
        <pt x="410" y="59" on="0"/>
        <pt x="412" y="92" on="1"/>
        <pt x="442" y="562" on="1"/>
        <pt x="443" y="578" on="0"/>
        <pt x="423" y="595" on="0"/>
        <pt x="405" y="595" on="1"/>
        <pt x="167" y="595" on="1"/>
        <pt x="128" y="595" on="0"/>
        <pt x="126" y="562" on="1"/>
        <pt x="88" y="-49" on="1"/>
        <pt x="87" y="-65" on="0"/>
        <pt x="107" y="-82" on="0"/>
      </contour>
    </TTGlyph>
    <TTGlyph name="atilde" xMin="21" yMin="-10" xMax="292" yMax="648">
      <contour>
        <pt x="133" y="183" on="1"/>
        <pt x="100" y="161" on="0"/>
        <pt x="100" y="58" on="0"/>
        <pt x="163" y="58" on="0"/>
        <pt x="181" y="94" on="1"/>
        <pt x="181" y="215" on="1"/>
      </contour>
      <contour>
        <pt x="144" y="500" on="1"/>
        <pt x="256" y="500" on="0"/>
        <pt x="256" y="401" on="1"/>
        <pt x="256" y="83" on="1"/>
        <pt x="256" y="62" on="0"/>
        <pt x="271" y="44" on="0"/>
        <pt x="292" y="44" on="1"/>
        <pt x="293" y="18" on="0"/>
        <pt x="264" y="-10" on="0"/>
        <pt x="237" y="-10" on="1"/>
        <pt x="195" y="-10" on="0"/>
        <pt x="186" y="21" on="1"/>
        <pt x="155" y="-10" on="0"/>
        <pt x="71" y="-10" on="0"/>
        <pt x="21" y="54" on="0"/>
        <pt x="21" y="108" on="1"/>
        <pt x="21" y="190" on="0"/>
        <pt x="90" y="232" on="1"/>
        <pt x="181" y="286" on="1"/>
        <pt x="181" y="394" on="1"/>
        <pt x="181" y="436" on="0"/>
        <pt x="102" y="436" on="0"/>
        <pt x="102" y="389" on="1"/>
        <pt x="102" y="356" on="1"/>
        <pt x="105" y="309" on="1"/>
        <pt x="92" y="306" on="0"/>
        <pt x="65" y="306" on="0"/>
        <pt x="53" y="310" on="1"/>
        <pt x="29" y="316" on="0"/>
        <pt x="29" y="333" on="1"/>
        <pt x="29" y="415" on="1"/>
        <pt x="29" y="455" on="0"/>
        <pt x="92" y="500" on="0"/>
      </contour>
      <contour>
        <pt x="68" y="552" on="1"/>
        <pt x="30" y="556" on="0"/>
        <pt x="30" y="591" on="1"/>
        <pt x="30" y="595" on="0"/>
        <pt x="31" y="600" on="1"/>
        <pt x="36" y="637" on="0"/>
        <pt x="78" y="637" on="1"/>
        <pt x="84" y="637" on="0"/>
        <pt x="91" y="636" on="1"/>
        <pt x="182" y="623" on="1"/>
        <pt x="197" y="622" on="0"/>
        <pt x="210" y="632" on="0"/>
        <pt x="213" y="648" on="1"/>
        <pt x="232" y="647" on="0"/>
        <pt x="250" y="623" on="0"/>
        <pt x="250" y="613" on="1"/>
        <pt x="250" y="563" on="0"/>
        <pt x="202" y="563" on="1"/>
        <pt x="196" y="563" on="0"/>
        <pt x="189" y="564" on="1"/>
        <pt x="99" y="578" on="1"/>
        <pt x="84" y="578" on="0"/>
        <pt x="71" y="567" on="0"/>
      </contour>
    </TTGlyph>
    <TTGlyph name="b" xMin="27" yMin="0" xMax="263" yMax="697">
      <contour>
        <pt x="36" y="620" on="1"/>
        <pt x="36" y="650" on="0"/>
        <pt x="27" y="681" on="1"/>
        <pt x="57" y="697" on="0"/>
        <pt x="91" y="697" on="1"/>
        <pt x="111" y="697" on="0"/>
        <pt x="111" y="682" on="1"/>
        <pt x="111" y="474" on="1"/>
        <pt x="142" y="500" on="0"/>
        <pt x="175" y="500" on="1"/>
        <pt x="263" y="500" on="0"/>
        <pt x="263" y="398" on="1"/>
        <pt x="263" y="106" on="1"/>
        <pt x="263" y="56" on="0"/>
        <pt x="201" y="0" on="0"/>
        <pt x="148" y="0" on="1"/>
        <pt x="36" y="0" on="1"/>
      </contour>
      <contour>
        <pt x="111" y="64" on="1"/>
        <pt x="150" y="64" on="1"/>
        <pt x="167" y="64" on="0"/>
        <pt x="188" y="85" on="0"/>
        <pt x="188" y="102" on="1"/>
        <pt x="188" y="397" on="1"/>
        <pt x="188" y="431" on="0"/>
        <pt x="128" y="431" on="0"/>
        <pt x="111" y="400" on="1"/>
      </contour>
    </TTGlyph>
    <TTGlyph name="backslash" xMin="8" yMin="-152" xMax="460" yMax="697">
      <contour>
        <pt x="8" y="681" on="1"/>
        <pt x="32" y="697" on="0"/>
        <pt x="84" y="697" on="0"/>
        <pt x="92" y="682" on="1"/>
        <pt x="425" y="-75" on="1"/>
        <pt x="434" y="-95" on="0"/>
        <pt x="454" y="-128" on="1"/>
        <pt x="460" y="-136" on="1"/>
        <pt x="438" y="-152" on="0"/>
        <pt x="383" y="-152" on="0"/>
        <pt x="377" y="-137" on="1"/>
        <pt x="44" y="620" on="1"/>
        <pt x="33" y="645" on="0"/>
        <pt x="14" y="672" on="1"/>
      </contour>
    </TTGlyph>
    <TTGlyph name="bar" xMin="29" yMin="-152" xMax="116" yMax="697">
      <contour>
        <pt x="107" y="-75" on="1"/>
        <pt x="107" y="-98" on="0"/>
        <pt x="116" y="-136" on="1"/>
        <pt x="86" y="-152" on="0"/>
        <pt x="38" y="-152" on="0"/>
        <pt x="38" y="-137" on="1"/>
        <pt x="38" y="620" on="1"/>
        <pt x="38" y="650" on="0"/>
        <pt x="29" y="681" on="1"/>
        <pt x="59" y="697" on="0"/>
        <pt x="107" y="697" on="0"/>
        <pt x="107" y="682" on="1"/>
      </contour>
    </TTGlyph>
    <TTGlyph name="braceleft" xMin="5" yMin="-152" xMax="231" yMax="697">
      <contour>
        <pt x="231" y="651" on="1"/>
        <pt x="231" y="635" on="0"/>
        <pt x="196" y="635" on="0"/>
        <pt x="171" y="614" on="0"/>
        <pt x="171" y="595" on="1"/>
        <pt x="171" y="319" on="1"/>
        <pt x="171" y="274" on="0"/>
        <pt x="144" y="250" on="1"/>
        <pt x="171" y="226" on="0"/>
        <pt x="171" y="181" on="1"/>
        <pt x="171" y="-50" on="1"/>
        <pt x="171" y="-69" on="0"/>
        <pt x="196" y="-90" on="0"/>
        <pt x="217" y="-90" on="1"/>
        <pt x="224" y="-112" on="0"/>
        <pt x="224" y="-152" on="0"/>
        <pt x="211" y="-152" on="1"/>
        <pt x="158" y="-152" on="0"/>
        <pt x="96" y="-96" on="0"/>
        <pt x="96" y="-46" on="1"/>
        <pt x="96" y="178" on="1"/>
        <pt x="96" y="197" on="0"/>
        <pt x="74" y="218" on="0"/>
        <pt x="55" y="218" on="1"/>
        <pt x="18" y="218" on="1"/>
        <pt x="5" y="218" on="0"/>
        <pt x="5" y="232" on="1"/>
        <pt x="5" y="262" on="0"/>
        <pt x="12" y="286" on="1"/>
        <pt x="28" y="281" on="0"/>
        <pt x="96" y="281" on="0"/>
        <pt x="96" y="321" on="1"/>
        <pt x="96" y="591" on="1"/>
        <pt x="96" y="697" on="0"/>
        <pt x="222" y="697" on="1"/>
        <pt x="231" y="678" on="0"/>
      </contour>
    </TTGlyph>
    <TTGlyph name="braceright" xMin="10" yMin="-152" xMax="236" yMax="697">
      <contour>
        <pt x="24" y="635" on="1"/>
        <pt x="10" y="635" on="0"/>
        <pt x="10" y="677" on="0"/>
        <pt x="19" y="697" on="1"/>
        <pt x="145" y="697" on="0"/>
        <pt x="145" y="591" on="1"/>
        <pt x="145" y="321" on="1"/>
        <pt x="145" y="281" on="0"/>
        <pt x="180" y="281" on="1"/>
        <pt x="229" y="286" on="1"/>
        <pt x="236" y="261" on="0"/>
        <pt x="236" y="218" on="0"/>
        <pt x="223" y="218" on="1"/>
        <pt x="186" y="218" on="1"/>
        <pt x="167" y="218" on="0"/>
        <pt x="145" y="197" on="0"/>
        <pt x="145" y="178" on="1"/>
        <pt x="145" y="-46" on="1"/>
        <pt x="145" y="-96" on="0"/>
        <pt x="83" y="-152" on="0"/>
        <pt x="30" y="-152" on="1"/>
        <pt x="17" y="-152" on="0"/>
        <pt x="17" y="-137" on="1"/>
        <pt x="17" y="-111" on="0"/>
        <pt x="24" y="-90" on="1"/>
        <pt x="45" y="-90" on="0"/>
        <pt x="70" y="-69" on="0"/>
        <pt x="70" y="-50" on="1"/>
        <pt x="70" y="181" on="1"/>
        <pt x="70" y="226" on="0"/>
        <pt x="97" y="250" on="1"/>
        <pt x="70" y="274" on="0"/>
        <pt x="70" y="319" on="1"/>
        <pt x="70" y="595" on="1"/>
        <pt x="70" y="614" on="0"/>
        <pt x="45" y="635" on="0"/>
      </contour>
    </TTGlyph>
    <TTGlyph name="bracketleft" xMin="38" yMin="-152" xMax="209" yMax="702">
      <contour>
        <pt x="147" y="697" on="1"/>
        <pt x="173" y="697" on="0"/>
        <pt x="201" y="702" on="1"/>
        <pt x="209" y="678" on="0"/>
        <pt x="209" y="651" on="1"/>
        <pt x="209" y="635" on="0"/>
        <pt x="195" y="635" on="1"/>
        <pt x="113" y="635" on="1"/>
        <pt x="113" y="-90" on="1"/>
        <pt x="147" y="-90" on="1"/>
        <pt x="183" y="-90" on="0"/>
        <pt x="201" y="-85" on="1"/>
        <pt x="209" y="-109" on="0"/>
        <pt x="209" y="-136" on="1"/>
        <pt x="209" y="-152" on="0"/>
        <pt x="195" y="-152" on="1"/>
        <pt x="38" y="-152" on="1"/>
        <pt x="38" y="697" on="1"/>
      </contour>
    </TTGlyph>
    <TTGlyph name="bracketright" xMin="12" yMin="-152" xMax="183" yMax="702">
      <contour>
        <pt x="108" y="-90" on="1"/>
        <pt x="108" y="635" on="1"/>
        <pt x="26" y="635" on="1"/>
        <pt x="12" y="635" on="0"/>
        <pt x="12" y="649" on="1"/>
        <pt x="12" y="674" on="0"/>
        <pt x="20" y="702" on="1"/>
        <pt x="37" y="697" on="0"/>
        <pt x="74" y="697" on="1"/>
        <pt x="183" y="697" on="1"/>
        <pt x="183" y="-152" on="1"/>
        <pt x="26" y="-152" on="1"/>
        <pt x="12" y="-152" on="0"/>
        <pt x="12" y="-138" on="1"/>
        <pt x="12" y="-111" on="0"/>
        <pt x="20" y="-85" on="1"/>
        <pt x="37" y="-90" on="0"/>
        <pt x="74" y="-90" on="1"/>
      </contour>
    </TTGlyph>
    <TTGlyph name="brokenbar" xMin="30" yMin="-152" xMax="117" yMax="697">
      <contour>
        <pt x="108" y="419" on="1"/>
        <pt x="108" y="389" on="0"/>
        <pt x="117" y="358" on="1"/>
        <pt x="87" y="342" on="0"/>
        <pt x="39" y="342" on="0"/>
        <pt x="39" y="357" on="1"/>
        <pt x="39" y="620" on="1"/>
        <pt x="39" y="643" on="0"/>
        <pt x="30" y="681" on="1"/>
        <pt x="60" y="697" on="0"/>
        <pt x="108" y="697" on="0"/>
        <pt x="108" y="682" on="1"/>
      </contour>
      <contour>
        <pt x="108" y="-75" on="1"/>
        <pt x="108" y="-105" on="0"/>
        <pt x="117" y="-136" on="1"/>
        <pt x="87" y="-152" on="0"/>
        <pt x="39" y="-152" on="0"/>
        <pt x="39" y="-137" on="1"/>
        <pt x="39" y="126" on="1"/>
        <pt x="39" y="149" on="0"/>
        <pt x="30" y="187" on="1"/>
        <pt x="60" y="203" on="0"/>
        <pt x="108" y="203" on="0"/>
        <pt x="108" y="188" on="1"/>
      </contour>
    </TTGlyph>
    <TTGlyph name="bullet" xMin="44" yMin="255" xMax="171" yMax="412">
      <contour>
        <pt x="44" y="255" on="0"/>
        <pt x="44" y="412" on="0"/>
        <pt x="171" y="412" on="0"/>
        <pt x="171" y="255" on="0"/>
      </contour>
    </TTGlyph>
    <TTGlyph name="c" xMin="32" yMin="-10" xMax="264" yMax="500">
      <contour>
        <pt x="224" y="101" on="1"/>
        <pt x="264" y="83" on="0"/>
        <pt x="264" y="49" on="1"/>
        <pt x="264" y="38" on="0"/>
        <pt x="255" y="31" on="1"/>
        <pt x="215" y="-10" on="0"/>
        <pt x="134" y="-10" on="1"/>
        <pt x="32" y="-10" on="0"/>
        <pt x="32" y="102" on="1"/>
        <pt x="32" y="402" on="1"/>
        <pt x="32" y="500" on="0"/>
        <pt x="148" y="500" on="1"/>
        <pt x="199" y="500" on="0"/>
        <pt x="257" y="454" on="0"/>
        <pt x="257" y="415" on="1"/>
        <pt x="257" y="333" on="1"/>
        <pt x="257" y="316" on="0"/>
        <pt x="233" y="310" on="1"/>
        <pt x="221" y="306" on="0"/>
        <pt x="194" y="306" on="0"/>
        <pt x="181" y="309" on="1"/>
        <pt x="184" y="331" on="0"/>
        <pt x="184" y="356" on="1"/>
        <pt x="184" y="389" on="1"/>
        <pt x="184" y="414" on="0"/>
        <pt x="166" y="436" on="0"/>
        <pt x="144" y="436" on="1"/>
        <pt x="107" y="436" on="0"/>
        <pt x="107" y="405" on="1"/>
        <pt x="107" y="114" on="1"/>
        <pt x="107" y="83" on="0"/>
        <pt x="127" y="55" on="0"/>
        <pt x="174" y="55" on="0"/>
        <pt x="218" y="85" on="0"/>
      </contour>
    </TTGlyph>
    <TTGlyph name="caron" xMin="106" yMin="528" xMax="307" yMax="684">
      <contour>
        <pt x="265" y="684" on="1"/>
        <pt x="307" y="669" on="0"/>
        <pt x="307" y="658" on="1"/>
        <pt x="307" y="655" on="0"/>
        <pt x="305" y="652" on="1"/>
        <pt x="261" y="570" on="1"/>
        <pt x="245" y="535" on="1"/>
        <pt x="231" y="528" on="0"/>
        <pt x="177" y="528" on="0"/>
        <pt x="167" y="536" on="1"/>
        <pt x="162" y="552" on="0"/>
        <pt x="152" y="570" on="1"/>
        <pt x="108" y="652" on="1"/>
        <pt x="106" y="655" on="0"/>
        <pt x="106" y="663" on="0"/>
        <pt x="111" y="666" on="1"/>
        <pt x="148" y="684" on="1"/>
        <pt x="154" y="670" on="0"/>
        <pt x="165" y="654" on="1"/>
        <pt x="206" y="594" on="1"/>
        <pt x="248" y="654" on="1"/>
      </contour>
    </TTGlyph>
    <TTGlyph name="ccedilla" xMin="32" yMin="-155" xMax="265" yMax="500">
      <contour>
        <pt x="224" y="101" on="1"/>
        <pt x="264" y="83" on="0"/>
        <pt x="264" y="49" on="1"/>
        <pt x="264" y="38" on="0"/>
        <pt x="255" y="31" on="1"/>
        <pt x="228" y="3" on="0"/>
        <pt x="184" y="-6" on="1"/>
        <pt x="184" y="-29" on="1"/>
        <pt x="198" y="-29" on="1"/>
        <pt x="265" y="-29" on="0"/>
        <pt x="265" y="-91" on="1"/>
        <pt x="265" y="-123" on="0"/>
        <pt x="235" y="-152" on="0"/>
        <pt x="202" y="-152" on="1"/>
        <pt x="156" y="-152" on="1"/>
        <pt x="123" y="-155" on="1"/>
        <pt x="119" y="-138" on="0"/>
        <pt x="119" y="-113" on="0"/>
        <pt x="128" y="-113" on="1"/>
        <pt x="195" y="-113" on="1"/>
        <pt x="216" y="-113" on="0"/>
        <pt x="216" y="-69" on="0"/>
        <pt x="195" y="-69" on="1"/>
        <pt x="132" y="-69" on="1"/>
        <pt x="132" y="-10" on="1"/>
        <pt x="32" y="-9" on="0"/>
        <pt x="32" y="102" on="1"/>
        <pt x="32" y="402" on="1"/>
        <pt x="32" y="500" on="0"/>
        <pt x="148" y="500" on="1"/>
        <pt x="199" y="500" on="0"/>
        <pt x="257" y="454" on="0"/>
        <pt x="257" y="415" on="1"/>
        <pt x="257" y="333" on="1"/>
        <pt x="257" y="316" on="0"/>
        <pt x="233" y="310" on="1"/>
        <pt x="221" y="306" on="0"/>
        <pt x="194" y="306" on="0"/>
        <pt x="181" y="309" on="1"/>
        <pt x="184" y="331" on="0"/>
        <pt x="184" y="356" on="1"/>
        <pt x="184" y="389" on="1"/>
        <pt x="184" y="414" on="0"/>
        <pt x="166" y="436" on="0"/>
        <pt x="144" y="436" on="1"/>
        <pt x="107" y="436" on="0"/>
        <pt x="107" y="405" on="1"/>
        <pt x="107" y="114" on="1"/>
        <pt x="107" y="83" on="0"/>
        <pt x="127" y="55" on="0"/>
        <pt x="174" y="55" on="0"/>
        <pt x="218" y="85" on="0"/>
      </contour>
    </TTGlyph>
    <TTGlyph name="cedilla" xMin="105" yMin="-155" xMax="251" yMax="7">
      <contour>
        <pt x="188" y="-152" on="1"/>
        <pt x="142" y="-152" on="1"/>
        <pt x="109" y="-155" on="1"/>
        <pt x="105" y="-138" on="0"/>
        <pt x="105" y="-113" on="0"/>
        <pt x="114" y="-113" on="1"/>
        <pt x="181" y="-113" on="1"/>
        <pt x="202" y="-113" on="0"/>
        <pt x="202" y="-69" on="0"/>
        <pt x="181" y="-69" on="1"/>
        <pt x="118" y="-69" on="1"/>
        <pt x="118" y="7" on="1"/>
        <pt x="170" y="7" on="1"/>
        <pt x="170" y="-29" on="1"/>
        <pt x="184" y="-29" on="1"/>
        <pt x="251" y="-29" on="0"/>
        <pt x="251" y="-91" on="1"/>
        <pt x="251" y="-123" on="0"/>
        <pt x="221" y="-152" on="0"/>
      </contour>
    </TTGlyph>
    <TTGlyph name="cent" xMin="25" yMin="-132" xMax="257" yMax="627">
      <contour>
        <pt x="180" y="-55" on="1"/>
        <pt x="180" y="-85" on="0"/>
        <pt x="189" y="-116" on="1"/>
        <pt x="159" y="-132" on="0"/>
        <pt x="111" y="-132" on="0"/>
        <pt x="111" y="-117" on="1"/>
        <pt x="111" y="-9" on="1"/>
        <pt x="25" y="-1" on="0"/>
        <pt x="25" y="102" on="1"/>
        <pt x="25" y="402" on="1"/>
        <pt x="25" y="487" on="0"/>
        <pt x="111" y="498" on="1"/>
        <pt x="111" y="550" on="1"/>
        <pt x="111" y="573" on="0"/>
        <pt x="102" y="611" on="1"/>
        <pt x="132" y="627" on="0"/>
        <pt x="180" y="627" on="0"/>
        <pt x="180" y="612" on="1"/>
        <pt x="180" y="495" on="1"/>
        <pt x="213" y="488" on="0"/>
        <pt x="250" y="445" on="0"/>
        <pt x="250" y="415" on="1"/>
        <pt x="250" y="333" on="1"/>
        <pt x="250" y="316" on="0"/>
        <pt x="226" y="310" on="1"/>
        <pt x="214" y="306" on="0"/>
        <pt x="187" y="306" on="0"/>
        <pt x="174" y="309" on="1"/>
        <pt x="177" y="331" on="0"/>
        <pt x="177" y="356" on="1"/>
        <pt x="177" y="389" on="1"/>
        <pt x="177" y="414" on="0"/>
        <pt x="159" y="436" on="0"/>
        <pt x="137" y="436" on="1"/>
        <pt x="100" y="436" on="0"/>
        <pt x="100" y="405" on="1"/>
        <pt x="100" y="114" on="1"/>
        <pt x="100" y="83" on="0"/>
        <pt x="120" y="55" on="0"/>
        <pt x="167" y="55" on="0"/>
        <pt x="211" y="85" on="0"/>
        <pt x="217" y="101" on="1"/>
        <pt x="257" y="83" on="0"/>
        <pt x="257" y="49" on="1"/>
        <pt x="257" y="38" on="0"/>
        <pt x="248" y="31" on="1"/>
        <pt x="221" y="4" on="0"/>
        <pt x="180" y="-5" on="1"/>
      </contour>
    </TTGlyph>
    <TTGlyph name="circumflex" xMin="106" yMin="528" xMax="307" yMax="684">
      <contour>
        <pt x="148" y="528" on="1"/>
        <pt x="106" y="543" on="0"/>
        <pt x="106" y="554" on="1"/>
        <pt x="106" y="557" on="0"/>
        <pt x="108" y="560" on="1"/>
        <pt x="152" y="642" on="1"/>
        <pt x="167" y="676" on="1"/>
        <pt x="177" y="684" on="0"/>
        <pt x="231" y="684" on="0"/>
        <pt x="245" y="677" on="1"/>
        <pt x="250" y="662" on="0"/>
        <pt x="261" y="642" on="1"/>
        <pt x="305" y="560" on="1"/>
        <pt x="307" y="557" on="0"/>
        <pt x="307" y="549" on="0"/>
        <pt x="302" y="546" on="1"/>
        <pt x="265" y="528" on="1"/>
        <pt x="260" y="541" on="0"/>
        <pt x="248" y="558" on="1"/>
        <pt x="206" y="618" on="1"/>
        <pt x="165" y="558" on="1"/>
      </contour>
    </TTGlyph>
    <TTGlyph name="colon" xMin="33" yMin="75" xMax="119" yMax="414">
      <contour>
        <pt x="33" y="300" on="0"/>
        <pt x="33" y="414" on="0"/>
        <pt x="119" y="414" on="0"/>
        <pt x="119" y="300" on="0"/>
      </contour>
      <contour>
        <pt x="33" y="75" on="0"/>
        <pt x="33" y="189" on="0"/>
        <pt x="119" y="189" on="0"/>
        <pt x="119" y="75" on="0"/>
      </contour>
    </TTGlyph>
    <TTGlyph name="comma" xMin="-6" yMin="-66" xMax="115" yMax="104">
      <contour>
        <pt x="115" y="44" on="1"/>
        <pt x="115" y="0" on="0"/>
        <pt x="75" y="-66" on="0"/>
        <pt x="48" y="-66" on="1"/>
        <pt x="-8" y="-66" on="0"/>
        <pt x="-6" y="-24" on="1"/>
        <pt x="29" y="-24" on="0"/>
        <pt x="29" y="47" on="1"/>
        <pt x="29" y="104" on="0"/>
        <pt x="115" y="104" on="0"/>
      </contour>
    </TTGlyph>
    <TTGlyph name="copyright" xMin="36" yMin="0" xMax="445" yMax="697">
      <contour>
        <pt x="330" y="433" on="1"/>
        <pt x="330" y="413" on="0"/>
        <pt x="285" y="413" on="1"/>
        <pt x="277" y="413" on="0"/>
        <pt x="268" y="414" on="1"/>
        <pt x="270" y="432" on="0"/>
        <pt x="270" y="450" on="1"/>
        <pt x="270" y="505" on="1"/>
        <pt x="270" y="531" on="0"/>
        <pt x="211" y="531" on="0"/>
        <pt x="211" y="505" on="1"/>
        <pt x="211" y="192" on="1"/>
        <pt x="211" y="166" on="0"/>
        <pt x="270" y="166" on="0"/>
        <pt x="270" y="192" on="1"/>
        <pt x="270" y="205" on="1"/>
        <pt x="268" y="240" on="1"/>
        <pt x="278" y="242" on="0"/>
        <pt x="288" y="242" on="1"/>
        <pt x="330" y="242" on="0"/>
        <pt x="330" y="223" on="1"/>
        <pt x="330" y="184" on="1"/>
        <pt x="330" y="154" on="0"/>
        <pt x="280" y="115" on="0"/>
        <pt x="198" y="115" on="0"/>
        <pt x="151" y="152" on="0"/>
        <pt x="151" y="187" on="1"/>
        <pt x="151" y="507" on="1"/>
        <pt x="151" y="543" on="0"/>
        <pt x="200" y="582" on="0"/>
        <pt x="282" y="582" on="0"/>
        <pt x="330" y="546" on="0"/>
        <pt x="330" y="517" on="1"/>
      </contour>
      <contour>
        <pt x="343" y="0" on="1"/>
        <pt x="138" y="0" on="1"/>
        <pt x="36" y="0" on="0"/>
        <pt x="36" y="85" on="1"/>
        <pt x="36" y="609" on="1"/>
        <pt x="36" y="651" on="0"/>
        <pt x="92" y="697" on="0"/>
        <pt x="141" y="697" on="1"/>
        <pt x="340" y="697" on="1"/>
        <pt x="389" y="697" on="0"/>
        <pt x="445" y="651" on="0"/>
        <pt x="445" y="609" on="1"/>
        <pt x="445" y="85" on="1"/>
        <pt x="445" y="0" on="0"/>
      </contour>
      <contour>
        <pt x="140" y="55" on="1"/>
        <pt x="341" y="55" on="1"/>
        <pt x="359" y="55" on="0"/>
        <pt x="380" y="73" on="0"/>
        <pt x="380" y="88" on="1"/>
        <pt x="380" y="609" on="1"/>
        <pt x="380" y="642" on="0"/>
        <pt x="341" y="642" on="1"/>
        <pt x="140" y="642" on="1"/>
        <pt x="101" y="642" on="0"/>
        <pt x="101" y="609" on="1"/>
        <pt x="101" y="88" on="1"/>
        <pt x="101" y="73" on="0"/>
        <pt x="122" y="55" on="0"/>
      </contour>
    </TTGlyph>
    <TTGlyph name="currency" xMin="22" yMin="112" xMax="328" yMax="496">
      <contour>
        <pt x="281" y="206" on="1"/>
        <pt x="300" y="189" on="0"/>
        <pt x="328" y="173" on="1"/>
        <pt x="318" y="141" on="0"/>
        <pt x="284" y="106" on="0"/>
        <pt x="273" y="117" on="1"/>
        <pt x="239" y="151" on="1"/>
        <pt x="213" y="135" on="0"/>
        <pt x="135" y="135" on="0"/>
        <pt x="109" y="149" on="1"/>
        <pt x="84" y="112" on="1"/>
        <pt x="49" y="123" on="0"/>
        <pt x="31" y="141" on="1"/>
        <pt x="18" y="156" on="0"/>
        <pt x="28" y="166" on="1"/>
        <pt x="68" y="206" on="1"/>
        <pt x="66" y="222" on="0"/>
        <pt x="66" y="233" on="1"/>
        <pt x="66" y="369" on="1"/>
        <pt x="66" y="384" on="0"/>
        <pt x="69" y="398" on="1"/>
        <pt x="53" y="414" on="0"/>
        <pt x="22" y="434" on="1"/>
        <pt x="33" y="469" on="0"/>
        <pt x="51" y="487" on="1"/>
        <pt x="66" y="500" on="0"/>
        <pt x="76" y="490" on="1"/>
        <pt x="111" y="455" on="1"/>
        <pt x="140" y="471" on="0"/>
        <pt x="214" y="471" on="0"/>
        <pt x="240" y="457" on="1"/>
        <pt x="267" y="496" on="1"/>
        <pt x="299" y="486" on="0"/>
        <pt x="334" y="452" on="0"/>
        <pt x="323" y="441" on="1"/>
        <pt x="282" y="400" on="1"/>
        <pt x="285" y="386" on="0"/>
        <pt x="285" y="373" on="1"/>
        <pt x="285" y="237" on="1"/>
        <pt x="285" y="219" on="0"/>
      </contour>
      <contour>
        <pt x="131" y="377" on="1"/>
        <pt x="131" y="229" on="1"/>
        <pt x="131" y="210" on="0"/>
        <pt x="156" y="186" on="0"/>
        <pt x="194" y="186" on="0"/>
        <pt x="219" y="210" on="0"/>
        <pt x="219" y="229" on="1"/>
        <pt x="219" y="377" on="1"/>
        <pt x="219" y="396" on="0"/>
        <pt x="194" y="420" on="0"/>
        <pt x="156" y="420" on="0"/>
        <pt x="131" y="396" on="0"/>
      </contour>
    </TTGlyph>
    <TTGlyph name="d" xMin="32" yMin="-10" xMax="295" yMax="697">
      <contour>
        <pt x="184" y="426" on="1"/>
        <pt x="145" y="426" on="1"/>
        <pt x="128" y="426" on="0"/>
        <pt x="107" y="405" on="0"/>
        <pt x="107" y="388" on="1"/>
        <pt x="107" y="93" on="1"/>
        <pt x="107" y="58" on="0"/>
        <pt x="136" y="58" on="1"/>
        <pt x="151" y="58" on="0"/>
        <pt x="178" y="81" on="0"/>
        <pt x="184" y="94" on="1"/>
      </contour>
      <contour>
        <pt x="184" y="620" on="1"/>
        <pt x="184" y="650" on="0"/>
        <pt x="175" y="681" on="1"/>
        <pt x="205" y="697" on="0"/>
        <pt x="239" y="697" on="1"/>
        <pt x="259" y="697" on="0"/>
        <pt x="259" y="682" on="1"/>
        <pt x="259" y="83" on="1"/>
        <pt x="259" y="62" on="0"/>
        <pt x="274" y="44" on="0"/>
        <pt x="295" y="44" on="1"/>
        <pt x="296" y="18" on="0"/>
        <pt x="267" y="-10" on="0"/>
        <pt x="240" y="-10" on="1"/>
        <pt x="200" y="-10" on="0"/>
        <pt x="189" y="21" on="1"/>
        <pt x="158" y="-10" on="0"/>
        <pt x="80" y="-10" on="0"/>
        <pt x="32" y="43" on="0"/>
        <pt x="32" y="92" on="1"/>
        <pt x="32" y="384" on="1"/>
        <pt x="32" y="434" on="0"/>
        <pt x="94" y="490" on="0"/>
        <pt x="147" y="490" on="1"/>
        <pt x="184" y="490" on="1"/>
      </contour>
    </TTGlyph>
    <TTGlyph name="dagger" xMin="12" yMin="-152" xMax="210" yMax="697">
      <contour>
        <pt x="146" y="-75" on="1"/>
        <pt x="146" y="-105" on="0"/>
        <pt x="155" y="-136" on="1"/>
        <pt x="125" y="-152" on="0"/>
        <pt x="77" y="-152" on="0"/>
        <pt x="77" y="-137" on="1"/>
        <pt x="77" y="430" on="1"/>
        <pt x="69" y="430" on="1"/>
        <pt x="36" y="430" on="0"/>
        <pt x="19" y="425" on="1"/>
        <pt x="12" y="451" on="0"/>
        <pt x="12" y="490" on="0"/>
        <pt x="25" y="490" on="1"/>
        <pt x="77" y="490" on="1"/>
        <pt x="77" y="620" on="1"/>
        <pt x="77" y="643" on="0"/>
        <pt x="68" y="681" on="1"/>
        <pt x="98" y="697" on="0"/>
        <pt x="146" y="697" on="0"/>
        <pt x="146" y="682" on="1"/>
        <pt x="146" y="490" on="1"/>
        <pt x="153" y="490" on="1"/>
        <pt x="205" y="495" on="1"/>
        <pt x="210" y="469" on="0"/>
        <pt x="210" y="430" on="0"/>
        <pt x="197" y="430" on="1"/>
        <pt x="146" y="430" on="1"/>
      </contour>
    </TTGlyph>
    <TTGlyph name="daggerdbl" xMin="16" yMin="-152" xMax="234" yMax="697">
      <contour>
        <pt x="160" y="-75" on="1"/>
        <pt x="160" y="-105" on="0"/>
        <pt x="169" y="-136" on="1"/>
        <pt x="139" y="-152" on="0"/>
        <pt x="91" y="-152" on="0"/>
        <pt x="91" y="-137" on="1"/>
        <pt x="91" y="191" on="1"/>
        <pt x="73" y="191" on="1"/>
        <pt x="48" y="191" on="0"/>
        <pt x="23" y="186" on="1"/>
        <pt x="16" y="212" on="0"/>
        <pt x="16" y="251" on="0"/>
        <pt x="29" y="251" on="1"/>
        <pt x="91" y="251" on="1"/>
        <pt x="91" y="430" on="1"/>
        <pt x="73" y="430" on="1"/>
        <pt x="40" y="430" on="0"/>
        <pt x="23" y="425" on="1"/>
        <pt x="16" y="451" on="0"/>
        <pt x="16" y="490" on="0"/>
        <pt x="29" y="490" on="1"/>
        <pt x="91" y="490" on="1"/>
        <pt x="91" y="620" on="1"/>
        <pt x="91" y="643" on="0"/>
        <pt x="82" y="681" on="1"/>
        <pt x="112" y="697" on="0"/>
        <pt x="160" y="697" on="0"/>
        <pt x="160" y="682" on="1"/>
        <pt x="160" y="490" on="1"/>
        <pt x="177" y="490" on="1"/>
        <pt x="229" y="495" on="1"/>
        <pt x="234" y="469" on="0"/>
        <pt x="234" y="430" on="0"/>
        <pt x="221" y="430" on="1"/>
        <pt x="160" y="430" on="1"/>
        <pt x="160" y="251" on="1"/>
        <pt x="177" y="251" on="1"/>
        <pt x="229" y="256" on="1"/>
        <pt x="234" y="230" on="0"/>
        <pt x="234" y="191" on="0"/>
        <pt x="221" y="191" on="1"/>
        <pt x="160" y="191" on="1"/>
      </contour>
    </TTGlyph>
    <TTGlyph name="degree" xMin="22" yMin="506" xMax="228" yMax="707">
      <contour>
        <pt x="22" y="577" on="1"/>
        <pt x="22" y="634" on="1"/>
        <pt x="22" y="707" on="0"/>
        <pt x="228" y="707" on="0"/>
        <pt x="228" y="636" on="1"/>
        <pt x="228" y="579" on="1"/>
        <pt x="228" y="548" on="0"/>
        <pt x="180" y="506" on="0"/>
        <pt x="123" y="506" on="1"/>
        <pt x="22" y="506" on="0"/>
      </contour>
      <contour>
        <pt x="79" y="631" on="1"/>
        <pt x="79" y="582" on="1"/>
        <pt x="79" y="552" on="0"/>
        <pt x="125" y="552" on="1"/>
        <pt x="145" y="552" on="0"/>
        <pt x="171" y="568" on="0"/>
        <pt x="171" y="582" on="1"/>
        <pt x="171" y="631" on="1"/>
        <pt x="171" y="645" on="0"/>
        <pt x="145" y="661" on="0"/>
        <pt x="125" y="661" on="1"/>
        <pt x="79" y="661" on="0"/>
      </contour>
    </TTGlyph>
    <TTGlyph name="dieresis" xMin="33" yMin="541" xMax="232" yMax="655">
      <contour>
        <pt x="33" y="541" on="0"/>
        <pt x="33" y="655" on="0"/>
        <pt x="119" y="655" on="0"/>
        <pt x="119" y="541" on="0"/>
      </contour>
      <contour>
        <pt x="146" y="541" on="0"/>
        <pt x="146" y="655" on="0"/>
        <pt x="232" y="655" on="0"/>
        <pt x="232" y="541" on="0"/>
      </contour>
    </TTGlyph>
    <TTGlyph name="divide" xMin="18" yMin="110" xMax="246" yMax="498">
      <contour>
        <pt x="75" y="274" on="1"/>
        <pt x="42" y="274" on="0"/>
        <pt x="25" y="269" on="1"/>
        <pt x="18" y="295" on="0"/>
        <pt x="18" y="334" on="0"/>
        <pt x="31" y="334" on="1"/>
        <pt x="189" y="334" on="1"/>
        <pt x="241" y="339" on="1"/>
        <pt x="246" y="313" on="0"/>
        <pt x="246" y="274" on="0"/>
        <pt x="233" y="274" on="1"/>
      </contour>
      <contour>
        <pt x="89" y="384" on="0"/>
        <pt x="89" y="498" on="0"/>
        <pt x="175" y="498" on="0"/>
        <pt x="175" y="384" on="0"/>
      </contour>
      <contour>
        <pt x="89" y="110" on="0"/>
        <pt x="89" y="224" on="0"/>
        <pt x="175" y="224" on="0"/>
        <pt x="175" y="110" on="0"/>
      </contour>
    </TTGlyph>
    <TTGlyph name="dollar" xMin="24" yMin="-131" xMax="279" yMax="781">
      <contour>
        <pt x="187" y="-54" on="1"/>
        <pt x="187" y="-77" on="0"/>
        <pt x="196" y="-115" on="1"/>
        <pt x="166" y="-131" on="0"/>
        <pt x="118" y="-131" on="0"/>
        <pt x="118" y="-116" on="1"/>
        <pt x="118" y="-7" on="1"/>
        <pt x="75" y="-1" on="0"/>
        <pt x="24" y="47" on="0"/>
        <pt x="24" y="82" on="1"/>
        <pt x="24" y="206" on="1"/>
        <pt x="24" y="224" on="0"/>
        <pt x="50" y="231" on="1"/>
        <pt x="64" y="235" on="0"/>
        <pt x="92" y="235" on="0"/>
        <pt x="106" y="232" on="1"/>
        <pt x="103" y="208" on="0"/>
        <pt x="103" y="181" on="1"/>
        <pt x="103" y="96" on="1"/>
        <pt x="103" y="78" on="0"/>
        <pt x="131" y="56" on="0"/>
        <pt x="173" y="56" on="0"/>
        <pt x="200" y="78" on="0"/>
        <pt x="200" y="96" on="1"/>
        <pt x="200" y="209" on="1"/>
        <pt x="200" y="248" on="0"/>
        <pt x="173" y="265" on="1"/>
        <pt x="67" y="334" on="1"/>
        <pt x="26" y="360" on="0"/>
        <pt x="26" y="419" on="1"/>
        <pt x="26" y="554" on="1"/>
        <pt x="26" y="596" on="0"/>
        <pt x="75" y="649" on="0"/>
        <pt x="118" y="657" on="1"/>
        <pt x="118" y="704" on="1"/>
        <pt x="118" y="734" on="0"/>
        <pt x="109" y="765" on="1"/>
        <pt x="139" y="781" on="0"/>
        <pt x="187" y="781" on="0"/>
        <pt x="187" y="766" on="1"/>
        <pt x="187" y="657" on="1"/>
        <pt x="229" y="649" on="0"/>
        <pt x="277" y="602" on="0"/>
        <pt x="277" y="568" on="1"/>
        <pt x="277" y="444" on="1"/>
        <pt x="277" y="426" on="0"/>
        <pt x="251" y="419" on="1"/>
        <pt x="237" y="415" on="0"/>
        <pt x="209" y="415" on="0"/>
        <pt x="195" y="418" on="1"/>
        <pt x="198" y="442" on="0"/>
        <pt x="198" y="469" on="1"/>
        <pt x="198" y="554" on="1"/>
        <pt x="198" y="573" on="0"/>
        <pt x="172" y="594" on="0"/>
        <pt x="130" y="594" on="0"/>
        <pt x="105" y="573" on="0"/>
        <pt x="105" y="554" on="1"/>
        <pt x="105" y="437" on="1"/>
        <pt x="105" y="402" on="0"/>
        <pt x="128" y="388" on="1"/>
        <pt x="234" y="320" on="1"/>
        <pt x="279" y="292" on="0"/>
        <pt x="279" y="234" on="1"/>
        <pt x="279" y="96" on="1"/>
        <pt x="279" y="54" on="0"/>
        <pt x="230" y="2" on="0"/>
        <pt x="187" y="-6" on="1"/>
      </contour>
    </TTGlyph>
    <TTGlyph name="dotaccent" xMin="24" yMin="548" xMax="110" yMax="662">
      <contour>
        <pt x="24" y="548" on="0"/>
        <pt x="24" y="662" on="0"/>
        <pt x="110" y="662" on="0"/>
        <pt x="110" y="548" on="0"/>
      </contour>
    </TTGlyph>
    <TTGlyph name="dotlessi" xMin="6" yMin="-10" xMax="155" yMax="490">
      <contour>
        <pt x="19" y="490" on="1"/>
        <pt x="119" y="490" on="1"/>
        <pt x="119" y="83" on="1"/>
        <pt x="119" y="62" on="0"/>
        <pt x="134" y="44" on="0"/>
        <pt x="155" y="44" on="1"/>
        <pt x="156" y="18" on="0"/>
        <pt x="127" y="-10" on="0"/>
        <pt x="71" y="-10" on="0"/>
        <pt x="44" y="24" on="0"/>
        <pt x="44" y="63" on="1"/>
        <pt x="44" y="430" on="1"/>
        <pt x="13" y="425" on="1"/>
        <pt x="6" y="451" on="0"/>
        <pt x="6" y="490" on="0"/>
      </contour>
    </TTGlyph>
    <TTGlyph name="e" xMin="32" yMin="-10" xMax="263" yMax="500">
      <contour>
        <pt x="186" y="393" on="1"/>
        <pt x="186" y="413" on="0"/>
        <pt x="162" y="436" on="0"/>
        <pt x="144" y="436" on="1"/>
        <pt x="107" y="436" on="0"/>
        <pt x="107" y="405" on="1"/>
        <pt x="107" y="262" on="1"/>
        <pt x="155" y="298" on="1"/>
        <pt x="186" y="321" on="0"/>
      </contour>
      <contour>
        <pt x="32" y="89" on="1"/>
        <pt x="32" y="402" on="1"/>
        <pt x="32" y="500" on="0"/>
        <pt x="263" y="500" on="0"/>
        <pt x="263" y="390" on="1"/>
        <pt x="263" y="346" on="0"/>
        <pt x="231" y="272" on="0"/>
        <pt x="203" y="253" on="1"/>
        <pt x="107" y="187" on="1"/>
        <pt x="107" y="96" on="1"/>
        <pt x="107" y="54" on="0"/>
        <pt x="186" y="54" on="0"/>
        <pt x="186" y="101" on="1"/>
        <pt x="186" y="124" on="1"/>
        <pt x="183" y="171" on="1"/>
        <pt x="196" y="174" on="0"/>
        <pt x="223" y="174" on="0"/>
        <pt x="235" y="170" on="1"/>
        <pt x="259" y="164" on="0"/>
        <pt x="259" y="147" on="1"/>
        <pt x="259" y="75" on="1"/>
        <pt x="259" y="35" on="0"/>
        <pt x="196" y="-10" on="0"/>
        <pt x="144" y="-10" on="1"/>
        <pt x="32" y="-10" on="0"/>
      </contour>
    </TTGlyph>
    <TTGlyph name="eacute" xMin="32" yMin="-10" xMax="263" yMax="686">
      <contour>
        <pt x="107" y="405" on="1"/>
        <pt x="107" y="262" on="1"/>
        <pt x="155" y="298" on="1"/>
        <pt x="186" y="321" on="0"/>
        <pt x="186" y="393" on="1"/>
        <pt x="186" y="413" on="0"/>
        <pt x="162" y="436" on="0"/>
        <pt x="144" y="436" on="1"/>
        <pt x="107" y="436" on="0"/>
      </contour>
      <contour>
        <pt x="32" y="402" on="1"/>
        <pt x="32" y="500" on="0"/>
        <pt x="263" y="500" on="0"/>
        <pt x="263" y="390" on="1"/>
        <pt x="263" y="346" on="0"/>
        <pt x="231" y="272" on="0"/>
        <pt x="203" y="253" on="1"/>
        <pt x="107" y="187" on="1"/>
        <pt x="107" y="96" on="1"/>
        <pt x="107" y="54" on="0"/>
        <pt x="186" y="54" on="0"/>
        <pt x="186" y="101" on="1"/>
        <pt x="186" y="124" on="1"/>
        <pt x="186" y="149" on="0"/>
        <pt x="183" y="171" on="1"/>
        <pt x="196" y="174" on="0"/>
        <pt x="223" y="174" on="0"/>
        <pt x="235" y="170" on="1"/>
        <pt x="259" y="164" on="0"/>
        <pt x="259" y="147" on="1"/>
        <pt x="259" y="75" on="1"/>
        <pt x="259" y="35" on="0"/>
        <pt x="196" y="-10" on="0"/>
        <pt x="144" y="-10" on="1"/>
        <pt x="32" y="-10" on="0"/>
        <pt x="32" y="89" on="1"/>
      </contour>
      <contour>
        <pt x="160" y="686" on="1"/>
        <pt x="231" y="664" on="0"/>
        <pt x="231" y="651" on="1"/>
        <pt x="231" y="648" on="0"/>
        <pt x="228" y="643" on="1"/>
        <pt x="170" y="558" on="1"/>
        <pt x="152" y="528" on="1"/>
        <pt x="111" y="543" on="0"/>
        <pt x="111" y="554" on="1"/>
        <pt x="111" y="557" on="0"/>
        <pt x="113" y="560" on="1"/>
        <pt x="147" y="642" on="1"/>
      </contour>
    </TTGlyph>
    <TTGlyph name="ecircumflex" xMin="32" yMin="-10" xMax="263" yMax="684">
      <contour>
        <pt x="107" y="405" on="1"/>
        <pt x="107" y="262" on="1"/>
        <pt x="155" y="298" on="1"/>
        <pt x="186" y="321" on="0"/>
        <pt x="186" y="393" on="1"/>
        <pt x="186" y="413" on="0"/>
        <pt x="162" y="436" on="0"/>
        <pt x="144" y="436" on="1"/>
        <pt x="107" y="436" on="0"/>
      </contour>
      <contour>
        <pt x="32" y="402" on="1"/>
        <pt x="32" y="500" on="0"/>
        <pt x="263" y="500" on="0"/>
        <pt x="263" y="390" on="1"/>
        <pt x="263" y="346" on="0"/>
        <pt x="231" y="272" on="0"/>
        <pt x="203" y="253" on="1"/>
        <pt x="107" y="187" on="1"/>
        <pt x="107" y="96" on="1"/>
        <pt x="107" y="54" on="0"/>
        <pt x="186" y="54" on="0"/>
        <pt x="186" y="101" on="1"/>
        <pt x="186" y="124" on="1"/>
        <pt x="186" y="149" on="0"/>
        <pt x="183" y="171" on="1"/>
        <pt x="196" y="174" on="0"/>
        <pt x="223" y="174" on="0"/>
        <pt x="235" y="170" on="1"/>
        <pt x="259" y="164" on="0"/>
        <pt x="259" y="147" on="1"/>
        <pt x="259" y="75" on="1"/>
        <pt x="259" y="35" on="0"/>
        <pt x="196" y="-10" on="0"/>
        <pt x="144" y="-10" on="1"/>
        <pt x="32" y="-10" on="0"/>
        <pt x="32" y="89" on="1"/>
      </contour>
      <contour>
        <pt x="88" y="528" on="1"/>
        <pt x="46" y="543" on="0"/>
        <pt x="46" y="554" on="1"/>
        <pt x="46" y="557" on="0"/>
        <pt x="48" y="560" on="1"/>
        <pt x="92" y="642" on="1"/>
        <pt x="107" y="676" on="1"/>
        <pt x="117" y="684" on="0"/>
        <pt x="171" y="684" on="0"/>
        <pt x="185" y="677" on="1"/>
        <pt x="190" y="662" on="0"/>
        <pt x="201" y="642" on="1"/>
        <pt x="245" y="560" on="1"/>
        <pt x="247" y="557" on="0"/>
        <pt x="247" y="549" on="0"/>
        <pt x="242" y="546" on="1"/>
        <pt x="205" y="528" on="1"/>
        <pt x="200" y="541" on="0"/>
        <pt x="188" y="558" on="1"/>
        <pt x="146" y="618" on="1"/>
        <pt x="105" y="558" on="1"/>
      </contour>
    </TTGlyph>
    <TTGlyph name="edieresis" xMin="32" yMin="-10" xMax="263" yMax="655">
      <contour>
        <pt x="186" y="393" on="1"/>
        <pt x="186" y="413" on="0"/>
        <pt x="162" y="436" on="0"/>
        <pt x="144" y="436" on="1"/>
        <pt x="107" y="436" on="0"/>
        <pt x="107" y="405" on="1"/>
        <pt x="107" y="262" on="1"/>
        <pt x="155" y="298" on="1"/>
        <pt x="186" y="321" on="0"/>
      </contour>
      <contour>
        <pt x="32" y="89" on="1"/>
        <pt x="32" y="402" on="1"/>
        <pt x="32" y="500" on="0"/>
        <pt x="263" y="500" on="0"/>
        <pt x="263" y="390" on="1"/>
        <pt x="263" y="346" on="0"/>
        <pt x="231" y="272" on="0"/>
        <pt x="203" y="253" on="1"/>
        <pt x="107" y="187" on="1"/>
        <pt x="107" y="96" on="1"/>
        <pt x="107" y="54" on="0"/>
        <pt x="186" y="54" on="0"/>
        <pt x="186" y="101" on="1"/>
        <pt x="186" y="124" on="1"/>
        <pt x="183" y="171" on="1"/>
        <pt x="196" y="174" on="0"/>
        <pt x="223" y="174" on="0"/>
        <pt x="235" y="170" on="1"/>
        <pt x="259" y="164" on="0"/>
        <pt x="259" y="147" on="1"/>
        <pt x="259" y="75" on="1"/>
        <pt x="259" y="35" on="0"/>
        <pt x="196" y="-10" on="0"/>
        <pt x="144" y="-10" on="1"/>
        <pt x="32" y="-10" on="0"/>
      </contour>
      <contour>
        <pt x="45" y="541" on="0"/>
        <pt x="45" y="655" on="0"/>
        <pt x="131" y="655" on="0"/>
        <pt x="131" y="541" on="0"/>
      </contour>
      <contour>
        <pt x="158" y="541" on="0"/>
        <pt x="158" y="655" on="0"/>
        <pt x="244" y="655" on="0"/>
        <pt x="244" y="541" on="0"/>
      </contour>
    </TTGlyph>
    <TTGlyph name="egrave" xMin="32" yMin="-10" xMax="263" yMax="686">
      <contour>
        <pt x="186" y="393" on="1"/>
        <pt x="186" y="413" on="0"/>
        <pt x="162" y="436" on="0"/>
        <pt x="144" y="436" on="1"/>
        <pt x="107" y="436" on="0"/>
        <pt x="107" y="405" on="1"/>
        <pt x="107" y="262" on="1"/>
        <pt x="155" y="298" on="1"/>
        <pt x="186" y="321" on="0"/>
      </contour>
      <contour>
        <pt x="32" y="89" on="1"/>
        <pt x="32" y="402" on="1"/>
        <pt x="32" y="500" on="0"/>
        <pt x="263" y="500" on="0"/>
        <pt x="263" y="390" on="1"/>
        <pt x="263" y="346" on="0"/>
        <pt x="231" y="272" on="0"/>
        <pt x="203" y="253" on="1"/>
        <pt x="107" y="187" on="1"/>
        <pt x="107" y="96" on="1"/>
        <pt x="107" y="54" on="0"/>
        <pt x="186" y="54" on="0"/>
        <pt x="186" y="101" on="1"/>
        <pt x="186" y="124" on="1"/>
        <pt x="183" y="171" on="1"/>
        <pt x="196" y="174" on="0"/>
        <pt x="223" y="174" on="0"/>
        <pt x="235" y="170" on="1"/>
        <pt x="259" y="164" on="0"/>
        <pt x="259" y="147" on="1"/>
        <pt x="259" y="75" on="1"/>
        <pt x="259" y="35" on="0"/>
        <pt x="196" y="-10" on="0"/>
        <pt x="144" y="-10" on="1"/>
        <pt x="32" y="-10" on="0"/>
      </contour>
      <contour>
        <pt x="174" y="560" on="1"/>
        <pt x="176" y="557" on="0"/>
        <pt x="176" y="549" on="0"/>
        <pt x="171" y="546" on="1"/>
        <pt x="135" y="528" on="1"/>
        <pt x="128" y="541" on="0"/>
        <pt x="117" y="558" on="1"/>
        <pt x="59" y="643" on="1"/>
        <pt x="56" y="648" on="0"/>
        <pt x="56" y="652" on="1"/>
        <pt x="56" y="659" on="0"/>
        <pt x="107" y="680" on="0"/>
        <pt x="117" y="683" on="1"/>
        <pt x="127" y="686" on="1"/>
        <pt x="131" y="663" on="0"/>
        <pt x="140" y="642" on="1"/>
      </contour>
    </TTGlyph>
    <TTGlyph name="eight" xMin="34" yMin="-10" xMax="261" yMax="660">
      <contour>
        <pt x="35" y="379" on="1"/>
        <pt x="35" y="554" on="1"/>
        <pt x="35" y="604" on="0"/>
        <pt x="96" y="660" on="0"/>
        <pt x="202" y="660" on="0"/>
        <pt x="260" y="608" on="0"/>
        <pt x="260" y="558" on="1"/>
        <pt x="260" y="383" on="1"/>
        <pt x="260" y="338" on="0"/>
        <pt x="229" y="310" on="1"/>
        <pt x="261" y="285" on="0"/>
        <pt x="261" y="237" on="1"/>
        <pt x="261" y="96" on="1"/>
        <pt x="261" y="46" on="0"/>
        <pt x="198" y="-10" on="0"/>
        <pt x="92" y="-10" on="0"/>
        <pt x="34" y="42" on="0"/>
        <pt x="34" y="92" on="1"/>
        <pt x="34" y="233" on="1"/>
        <pt x="34" y="282" on="0"/>
        <pt x="64" y="306" on="1"/>
        <pt x="35" y="333" on="0"/>
      </contour>
      <contour>
        <pt x="110" y="558" on="1"/>
        <pt x="110" y="378" on="1"/>
        <pt x="110" y="361" on="0"/>
        <pt x="132" y="338" on="0"/>
        <pt x="164" y="338" on="0"/>
        <pt x="185" y="361" on="0"/>
        <pt x="185" y="378" on="1"/>
        <pt x="185" y="558" on="1"/>
        <pt x="185" y="575" on="0"/>
        <pt x="163" y="598" on="0"/>
        <pt x="131" y="598" on="0"/>
        <pt x="110" y="575" on="0"/>
      </contour>
      <contour>
        <pt x="109" y="238" on="1"/>
        <pt x="109" y="92" on="1"/>
        <pt x="109" y="75" on="0"/>
        <pt x="131" y="52" on="0"/>
        <pt x="164" y="52" on="0"/>
        <pt x="186" y="75" on="0"/>
        <pt x="186" y="92" on="1"/>
        <pt x="186" y="238" on="1"/>
        <pt x="186" y="255" on="0"/>
        <pt x="164" y="278" on="0"/>
        <pt x="131" y="278" on="0"/>
        <pt x="109" y="255" on="0"/>
      </contour>
    </TTGlyph>
    <TTGlyph name="ellipsis" xMin="23" yMin="-10" xMax="377" yMax="104">
      <contour>
        <pt x="157" y="-10" on="0"/>
        <pt x="157" y="104" on="0"/>
        <pt x="243" y="104" on="0"/>
        <pt x="243" y="-10" on="0"/>
      </contour>
      <contour>
        <pt x="291" y="-10" on="0"/>
        <pt x="291" y="104" on="0"/>
        <pt x="377" y="104" on="0"/>
        <pt x="377" y="-10" on="0"/>
      </contour>
      <contour>
        <pt x="23" y="-10" on="0"/>
        <pt x="23" y="104" on="0"/>
        <pt x="109" y="104" on="0"/>
        <pt x="109" y="-10" on="0"/>
      </contour>
    </TTGlyph>
    <TTGlyph name="emdash" xMin="30" yMin="269" xMax="438" yMax="339">
      <contour>
        <pt x="87" y="274" on="1"/>
        <pt x="54" y="274" on="0"/>
        <pt x="37" y="269" on="1"/>
        <pt x="30" y="295" on="0"/>
        <pt x="30" y="334" on="0"/>
        <pt x="43" y="334" on="1"/>
        <pt x="381" y="334" on="1"/>
        <pt x="433" y="339" on="1"/>
        <pt x="438" y="313" on="0"/>
        <pt x="438" y="274" on="0"/>
        <pt x="425" y="274" on="1"/>
      </contour>
    </TTGlyph>
    <TTGlyph name="endash" xMin="30" yMin="269" xMax="258" yMax="339">
      <contour>
        <pt x="87" y="274" on="1"/>
        <pt x="54" y="274" on="0"/>
        <pt x="37" y="269" on="1"/>
        <pt x="30" y="295" on="0"/>
        <pt x="30" y="334" on="0"/>
        <pt x="43" y="334" on="1"/>
        <pt x="201" y="334" on="1"/>
        <pt x="253" y="339" on="1"/>
        <pt x="258" y="313" on="0"/>
        <pt x="258" y="274" on="0"/>
        <pt x="245" y="274" on="1"/>
      </contour>
    </TTGlyph>
    <TTGlyph name="equal" xMin="33" yMin="215" xMax="231" yMax="395">
      <contour>
        <pt x="90" y="220" on="1"/>
        <pt x="57" y="220" on="0"/>
        <pt x="40" y="215" on="1"/>
        <pt x="33" y="241" on="0"/>
        <pt x="33" y="280" on="0"/>
        <pt x="46" y="280" on="1"/>
        <pt x="174" y="280" on="1"/>
        <pt x="226" y="285" on="1"/>
        <pt x="231" y="259" on="0"/>
        <pt x="231" y="220" on="0"/>
        <pt x="218" y="220" on="1"/>
      </contour>
      <contour>
        <pt x="90" y="330" on="1"/>
        <pt x="57" y="330" on="0"/>
        <pt x="40" y="325" on="1"/>
        <pt x="33" y="351" on="0"/>
        <pt x="33" y="390" on="0"/>
        <pt x="46" y="390" on="1"/>
        <pt x="174" y="390" on="1"/>
        <pt x="226" y="395" on="1"/>
        <pt x="231" y="369" on="0"/>
        <pt x="231" y="330" on="0"/>
        <pt x="218" y="330" on="1"/>
      </contour>
    </TTGlyph>
    <TTGlyph name="eth" xMin="32" yMin="-10" xMax="291" yMax="678">
      <contour>
        <pt x="184" y="554" on="1"/>
        <pt x="155" y="532" on="0"/>
        <pt x="143" y="518" on="1"/>
        <pt x="129" y="527" on="0"/>
        <pt x="106" y="559" on="0"/>
        <pt x="117" y="567" on="1"/>
        <pt x="164" y="600" on="1"/>
        <pt x="154" y="605" on="0"/>
        <pt x="126" y="605" on="0"/>
        <pt x="109" y="600" on="1"/>
        <pt x="95" y="649" on="1"/>
        <pt x="115" y="660" on="0"/>
        <pt x="192" y="660" on="0"/>
        <pt x="220" y="642" on="1"/>
        <pt x="260" y="678" on="1"/>
        <pt x="273" y="668" on="0"/>
        <pt x="291" y="643" on="0"/>
        <pt x="291" y="633" on="0"/>
        <pt x="284" y="628" on="1"/>
        <pt x="252" y="606" on="1"/>
        <pt x="259" y="583" on="0"/>
        <pt x="259" y="561" on="1"/>
        <pt x="259" y="92" on="1"/>
        <pt x="259" y="42" on="0"/>
        <pt x="200" y="-10" on="0"/>
        <pt x="94" y="-10" on="0"/>
        <pt x="32" y="46" on="0"/>
        <pt x="32" y="96" on="1"/>
        <pt x="32" y="398" on="1"/>
        <pt x="32" y="500" on="0"/>
        <pt x="118" y="500" on="1"/>
        <pt x="156" y="500" on="0"/>
        <pt x="184" y="474" on="1"/>
      </contour>
      <contour>
        <pt x="107" y="74" on="0"/>
        <pt x="128" y="52" on="0"/>
        <pt x="162" y="52" on="0"/>
        <pt x="184" y="75" on="0"/>
        <pt x="184" y="92" on="1"/>
        <pt x="184" y="400" on="1"/>
        <pt x="167" y="431" on="0"/>
        <pt x="136" y="431" on="1"/>
        <pt x="107" y="431" on="0"/>
        <pt x="107" y="397" on="1"/>
        <pt x="107" y="92" on="1"/>
      </contour>
    </TTGlyph>
    <TTGlyph name="exclam" xMin="31" yMin="-10" xMax="118" yMax="655">
      <contour>
        <pt x="98" y="655" on="1"/>
        <pt x="114" y="655" on="0"/>
        <pt x="114" y="638" on="1"/>
        <pt x="104" y="250" on="1"/>
        <pt x="108" y="156" on="1"/>
        <pt x="94" y="151" on="0"/>
        <pt x="61" y="151" on="1"/>
        <pt x="45" y="151" on="0"/>
        <pt x="45" y="168" on="1"/>
        <pt x="35" y="556" on="1"/>
        <pt x="31" y="650" on="1"/>
        <pt x="65" y="655" on="0"/>
      </contour>
      <contour>
        <pt x="34" y="-10" on="0"/>
        <pt x="34" y="92" on="0"/>
        <pt x="118" y="92" on="0"/>
        <pt x="118" y="-10" on="0"/>
      </contour>
    </TTGlyph>
    <TTGlyph name="exclamdown" xMin="29" yMin="-5" xMax="116" yMax="660">
      <contour>
        <pt x="49" y="-5" on="1"/>
        <pt x="33" y="-5" on="0"/>
        <pt x="33" y="12" on="1"/>
        <pt x="43" y="400" on="1"/>
        <pt x="39" y="494" on="1"/>
        <pt x="53" y="499" on="0"/>
        <pt x="86" y="499" on="1"/>
        <pt x="102" y="499" on="0"/>
        <pt x="102" y="482" on="1"/>
        <pt x="112" y="94" on="1"/>
        <pt x="116" y="0" on="1"/>
        <pt x="82" y="-5" on="0"/>
      </contour>
      <contour>
        <pt x="113" y="660" on="0"/>
        <pt x="113" y="558" on="0"/>
        <pt x="29" y="558" on="0"/>
        <pt x="29" y="660" on="0"/>
      </contour>
    </TTGlyph>
    <TTGlyph name="f" xMin="11" yMin="-4" xMax="268" yMax="700">
      <contour>
        <pt x="124" y="82" on="1"/>
        <pt x="124" y="44" on="0"/>
        <pt x="131" y="2" on="1"/>
        <pt x="101" y="-4" on="0"/>
        <pt x="66" y="-4" on="1"/>
        <pt x="49" y="-4" on="0"/>
        <pt x="49" y="11" on="1"/>
        <pt x="49" y="410" on="1"/>
        <pt x="18" y="405" on="1"/>
        <pt x="11" y="431" on="0"/>
        <pt x="11" y="470" on="0"/>
        <pt x="24" y="470" on="1"/>
        <pt x="49" y="470" on="1"/>
        <pt x="49" y="601" on="1"/>
        <pt x="49" y="646" on="0"/>
        <pt x="103" y="700" on="0"/>
        <pt x="207" y="700" on="0"/>
        <pt x="268" y="655" on="0"/>
        <pt x="268" y="615" on="1"/>
        <pt x="268" y="564" on="1"/>
        <pt x="268" y="547" on="0"/>
        <pt x="244" y="540" on="1"/>
        <pt x="232" y="537" on="0"/>
        <pt x="205" y="537" on="0"/>
        <pt x="192" y="540" on="1"/>
        <pt x="195" y="562" on="0"/>
        <pt x="195" y="587" on="1"/>
        <pt x="195" y="593" on="1"/>
        <pt x="195" y="615" on="0"/>
        <pt x="179" y="636" on="0"/>
        <pt x="138" y="636" on="0"/>
        <pt x="124" y="614" on="0"/>
        <pt x="124" y="591" on="1"/>
        <pt x="124" y="470" on="1"/>
        <pt x="174" y="470" on="1"/>
        <pt x="226" y="475" on="1"/>
        <pt x="231" y="449" on="0"/>
        <pt x="231" y="410" on="0"/>
        <pt x="218" y="410" on="1"/>
        <pt x="124" y="410" on="1"/>
      </contour>
    </TTGlyph>
    <TTGlyph name="fi" xMin="10" yMin="-10" xMax="317" yMax="700">
      <contour>
        <pt x="123" y="82" on="1"/>
        <pt x="123" y="34" on="0"/>
        <pt x="130" y="2" on="1"/>
        <pt x="100" y="-4" on="0"/>
        <pt x="65" y="-4" on="1"/>
        <pt x="48" y="-4" on="0"/>
        <pt x="48" y="11" on="1"/>
        <pt x="48" y="430" on="1"/>
        <pt x="17" y="425" on="1"/>
        <pt x="10" y="451" on="0"/>
        <pt x="10" y="490" on="0"/>
        <pt x="23" y="490" on="1"/>
        <pt x="48" y="490" on="1"/>
        <pt x="48" y="601" on="1"/>
        <pt x="48" y="645" on="0"/>
        <pt x="108" y="700" on="0"/>
        <pt x="221" y="700" on="0"/>
        <pt x="286" y="645" on="0"/>
        <pt x="286" y="544" on="0"/>
        <pt x="231" y="544" on="1"/>
        <pt x="218" y="544" on="0"/>
        <pt x="202" y="547" on="1"/>
        <pt x="205" y="566" on="0"/>
        <pt x="205" y="591" on="1"/>
        <pt x="205" y="595" on="1"/>
        <pt x="205" y="636" on="0"/>
        <pt x="123" y="636" on="0"/>
        <pt x="123" y="591" on="1"/>
        <pt x="123" y="490" on="1"/>
        <pt x="241" y="490" on="1"/>
        <pt x="281" y="495" on="1"/>
        <pt x="286" y="469" on="0"/>
        <pt x="286" y="435" on="0"/>
        <pt x="281" y="432" on="1"/>
        <pt x="281" y="83" on="1"/>
        <pt x="281" y="62" on="0"/>
        <pt x="296" y="44" on="0"/>
        <pt x="317" y="44" on="1"/>
        <pt x="318" y="18" on="0"/>
        <pt x="289" y="-10" on="0"/>
        <pt x="233" y="-10" on="0"/>
        <pt x="206" y="24" on="0"/>
        <pt x="206" y="63" on="1"/>
        <pt x="206" y="430" on="1"/>
        <pt x="123" y="430" on="1"/>
      </contour>
    </TTGlyph>
    <TTGlyph name="five" xMin="26" yMin="-10" xMax="253" yMax="655">
      <contour>
        <pt x="112" y="384" on="1"/>
        <pt x="141" y="384" on="1"/>
        <pt x="194" y="384" on="0"/>
        <pt x="253" y="332" on="0"/>
        <pt x="253" y="282" on="1"/>
        <pt x="253" y="96" on="1"/>
        <pt x="253" y="46" on="0"/>
        <pt x="191" y="-10" on="0"/>
        <pt x="88" y="-10" on="0"/>
        <pt x="26" y="43" on="0"/>
        <pt x="26" y="84" on="1"/>
        <pt x="26" y="146" on="1"/>
        <pt x="26" y="164" on="0"/>
        <pt x="50" y="171" on="1"/>
        <pt x="64" y="175" on="0"/>
        <pt x="90" y="175" on="0"/>
        <pt x="103" y="172" on="1"/>
        <pt x="101" y="148" on="0"/>
        <pt x="101" y="121" on="1"/>
        <pt x="101" y="92" on="1"/>
        <pt x="101" y="74" on="0"/>
        <pt x="123" y="52" on="0"/>
        <pt x="156" y="52" on="0"/>
        <pt x="178" y="74" on="0"/>
        <pt x="178" y="92" on="1"/>
        <pt x="178" y="279" on="1"/>
        <pt x="178" y="298" on="0"/>
        <pt x="156" y="319" on="0"/>
        <pt x="137" y="319" on="1"/>
        <pt x="96" y="319" on="1"/>
        <pt x="37" y="316" on="1"/>
        <pt x="37" y="585" on="1"/>
        <pt x="32" y="611" on="0"/>
        <pt x="32" y="650" on="0"/>
        <pt x="45" y="650" on="1"/>
        <pt x="190" y="650" on="1"/>
        <pt x="242" y="655" on="1"/>
        <pt x="247" y="629" on="0"/>
        <pt x="247" y="590" on="0"/>
        <pt x="234" y="590" on="1"/>
        <pt x="112" y="590" on="1"/>
      </contour>
    </TTGlyph>
    <TTGlyph name="fl" xMin="10" yMin="-10" xMax="317" yMax="700">
      <contour>
        <pt x="123" y="82" on="1"/>
        <pt x="123" y="34" on="0"/>
        <pt x="130" y="2" on="1"/>
        <pt x="100" y="-4" on="0"/>
        <pt x="65" y="-4" on="1"/>
        <pt x="48" y="-4" on="0"/>
        <pt x="48" y="11" on="1"/>
        <pt x="48" y="430" on="1"/>
        <pt x="17" y="425" on="1"/>
        <pt x="10" y="451" on="0"/>
        <pt x="10" y="490" on="0"/>
        <pt x="23" y="490" on="1"/>
        <pt x="48" y="490" on="1"/>
        <pt x="48" y="601" on="1"/>
        <pt x="48" y="646" on="0"/>
        <pt x="105" y="700" on="0"/>
        <pt x="188" y="700" on="0"/>
        <pt x="212" y="685" on="1"/>
        <pt x="236" y="697" on="0"/>
        <pt x="281" y="697" on="0"/>
        <pt x="281" y="682" on="1"/>
        <pt x="281" y="83" on="1"/>
        <pt x="281" y="62" on="0"/>
        <pt x="296" y="44" on="0"/>
        <pt x="317" y="44" on="1"/>
        <pt x="318" y="18" on="0"/>
        <pt x="289" y="-10" on="0"/>
        <pt x="233" y="-10" on="0"/>
        <pt x="206" y="24" on="0"/>
        <pt x="206" y="63" on="1"/>
        <pt x="206" y="620" on="1"/>
        <pt x="185" y="636" on="0"/>
        <pt x="160" y="636" on="1"/>
        <pt x="123" y="636" on="0"/>
        <pt x="123" y="591" on="1"/>
        <pt x="123" y="490" on="1"/>
        <pt x="126" y="490" on="1"/>
        <pt x="178" y="495" on="1"/>
        <pt x="183" y="469" on="0"/>
        <pt x="183" y="430" on="0"/>
        <pt x="170" y="430" on="1"/>
        <pt x="123" y="430" on="1"/>
      </contour>
    </TTGlyph>
    <TTGlyph name="florin" xMin="10" yMin="-162" xMax="503" yMax="700">
      <contour>
        <pt x="101" y="-20" on="1"/>
        <pt x="87" y="-63" on="0"/>
        <pt x="87" y="-79" on="1"/>
        <pt x="87" y="-98" on="0"/>
        <pt x="145" y="-98" on="0"/>
        <pt x="153" y="-63" on="1"/>
        <pt x="243" y="410" on="1"/>
        <pt x="211" y="405" on="1"/>
        <pt x="210" y="414" on="0"/>
        <pt x="210" y="439" on="0"/>
        <pt x="213" y="455" on="1"/>
        <pt x="216" y="470" on="0"/>
        <pt x="229" y="470" on="1"/>
        <pt x="254" y="470" on="1"/>
        <pt x="279" y="601" on="1"/>
        <pt x="288" y="646" on="0"/>
        <pt x="352" y="700" on="0"/>
        <pt x="456" y="700" on="0"/>
        <pt x="502" y="660" on="0"/>
        <pt x="502" y="631" on="1"/>
        <pt x="502" y="623" on="0"/>
        <pt x="501" y="615" on="1"/>
        <pt x="491" y="564" on="1"/>
        <pt x="486" y="537" on="0"/>
        <pt x="436" y="537" on="1"/>
        <pt x="423" y="537" on="0"/>
        <pt x="411" y="540" on="1"/>
        <pt x="426" y="586" on="0"/>
        <pt x="426" y="619" on="0"/>
        <pt x="416" y="636" on="0"/>
        <pt x="375" y="636" on="0"/>
        <pt x="357" y="615" on="0"/>
        <pt x="352" y="591" on="1"/>
        <pt x="329" y="470" on="1"/>
        <pt x="379" y="470" on="1"/>
        <pt x="432" y="475" on="1"/>
        <pt x="432" y="449" on="0"/>
        <pt x="426" y="410" on="0"/>
        <pt x="412" y="410" on="1"/>
        <pt x="318" y="410" on="1"/>
        <pt x="225" y="-71" on="1"/>
        <pt x="216" y="-116" on="0"/>
        <pt x="150" y="-162" on="0"/>
        <pt x="103" y="-162" on="1"/>
        <pt x="11" y="-162" on="0"/>
        <pt x="11" y="-101" on="1"/>
        <pt x="11" y="-94" on="0"/>
        <pt x="12" y="-86" on="1"/>
        <pt x="20" y="-44" on="1"/>
        <pt x="26" y="-17" on="0"/>
        <pt x="76" y="-17" on="1"/>
        <pt x="88" y="-17" on="0"/>
      </contour>
    </TTGlyph>
    <TTGlyph name="four" xMin="8" yMin="-10" xMax="307" yMax="660">
      <contour>
        <pt x="196" y="568" on="1"/>
        <pt x="196" y="606" on="0"/>
        <pt x="189" y="650" on="1"/>
        <pt x="219" y="654" on="0"/>
        <pt x="254" y="654" on="1"/>
        <pt x="271" y="654" on="0"/>
        <pt x="271" y="639" on="1"/>
        <pt x="271" y="83" on="1"/>
        <pt x="271" y="62" on="0"/>
        <pt x="286" y="44" on="0"/>
        <pt x="307" y="44" on="1"/>
        <pt x="308" y="18" on="0"/>
        <pt x="279" y="-10" on="0"/>
        <pt x="223" y="-10" on="0"/>
        <pt x="196" y="24" on="0"/>
        <pt x="196" y="63" on="1"/>
        <pt x="196" y="242" on="1"/>
        <pt x="44" y="242" on="1"/>
        <pt x="44" y="567" on="1"/>
        <pt x="44" y="588" on="0"/>
        <pt x="29" y="606" on="0"/>
        <pt x="8" y="606" on="1"/>
        <pt x="7" y="631" on="0"/>
        <pt x="38" y="660" on="0"/>
        <pt x="94" y="660" on="0"/>
        <pt x="119" y="628" on="0"/>
        <pt x="119" y="591" on="1"/>
        <pt x="119" y="302" on="1"/>
        <pt x="196" y="302" on="1"/>
      </contour>
    </TTGlyph>
    <TTGlyph name="fraction" xMin="-1" yMin="0" xMax="436" yMax="650">
      <contour>
        <pt x="423" y="650" on="1"/>
        <pt x="436" y="650" on="0"/>
        <pt x="436" y="641" on="1"/>
        <pt x="436" y="638" on="0"/>
        <pt x="434" y="635" on="1"/>
        <pt x="113" y="77" on="1"/>
        <pt x="98" y="50" on="0"/>
        <pt x="87" y="16" on="1"/>
        <pt x="45" y="0" on="0"/>
        <pt x="-1" y="0" on="0"/>
        <pt x="-1" y="7" on="1"/>
        <pt x="-1" y="10" on="0"/>
        <pt x="2" y="15" on="1"/>
        <pt x="323" y="573" on="1"/>
        <pt x="335" y="594" on="0"/>
        <pt x="350" y="634" on="1"/>
        <pt x="390" y="650" on="0"/>
      </contour>
    </TTGlyph>
    <TTGlyph name="g" xMin="22" yMin="-152" xMax="272" yMax="494">
      <contour>
        <pt x="150" y="67" on="1"/>
        <pt x="170" y="67" on="1"/>
        <pt x="220" y="67" on="0"/>
        <pt x="272" y="9" on="0"/>
        <pt x="272" y="-44" on="1"/>
        <pt x="272" y="-152" on="0"/>
        <pt x="174" y="-152" on="1"/>
        <pt x="124" y="-152" on="1"/>
        <pt x="74" y="-152" on="0"/>
        <pt x="22" y="-93" on="0"/>
        <pt x="22" y="-40" on="1"/>
        <pt x="22" y="33" on="0"/>
        <pt x="75" y="57" on="1"/>
        <pt x="75" y="127" on="1"/>
        <pt x="28" y="152" on="0"/>
        <pt x="28" y="216" on="1"/>
        <pt x="28" y="384" on="1"/>
        <pt x="28" y="434" on="0"/>
        <pt x="90" y="490" on="0"/>
        <pt x="143" y="490" on="1"/>
        <pt x="194" y="490" on="1"/>
        <pt x="255" y="494" on="1"/>
        <pt x="255" y="220" on="1"/>
        <pt x="255" y="172" on="0"/>
        <pt x="198" y="117" on="0"/>
        <pt x="150" y="114" on="1"/>
      </contour>
      <contour>
        <pt x="103" y="388" on="1"/>
        <pt x="103" y="216" on="1"/>
        <pt x="103" y="199" on="0"/>
        <pt x="125" y="176" on="0"/>
        <pt x="158" y="176" on="0"/>
        <pt x="180" y="199" on="0"/>
        <pt x="180" y="216" on="1"/>
        <pt x="180" y="426" on="1"/>
        <pt x="141" y="426" on="1"/>
        <pt x="124" y="426" on="0"/>
        <pt x="103" y="405" on="0"/>
      </contour>
      <contour>
        <pt x="173" y="4" on="1"/>
        <pt x="121" y="4" on="1"/>
        <pt x="94" y="4" on="0"/>
        <pt x="94" y="-89" on="0"/>
        <pt x="121" y="-89" on="1"/>
        <pt x="173" y="-89" on="1"/>
        <pt x="200" y="-89" on="0"/>
        <pt x="200" y="4" on="0"/>
      </contour>
    </TTGlyph>
    <TTGlyph name="germandbls" xMin="11" yMin="-113" xMax="375" yMax="700">
      <contour>
        <pt x="124" y="-27" on="1"/>
        <pt x="124" y="-65" on="0"/>
        <pt x="131" y="-107" on="1"/>
        <pt x="101" y="-113" on="0"/>
        <pt x="66" y="-113" on="1"/>
        <pt x="49" y="-113" on="0"/>
        <pt x="49" y="-98" on="1"/>
        <pt x="49" y="410" on="1"/>
        <pt x="18" y="405" on="1"/>
        <pt x="11" y="431" on="0"/>
        <pt x="11" y="470" on="0"/>
        <pt x="24" y="470" on="1"/>
        <pt x="49" y="470" on="1"/>
        <pt x="49" y="601" on="1"/>
        <pt x="49" y="645" on="0"/>
        <pt x="121" y="700" on="0"/>
        <pt x="241" y="700" on="0"/>
        <pt x="320" y="654" on="0"/>
        <pt x="320" y="615" on="1"/>
        <pt x="320" y="521" on="1"/>
        <pt x="320" y="496" on="0"/>
        <pt x="253" y="394" on="0"/>
        <pt x="253" y="368" on="1"/>
        <pt x="253" y="357" on="1"/>
        <pt x="253" y="326" on="0"/>
        <pt x="281" y="310" on="1"/>
        <pt x="332" y="280" on="1"/>
        <pt x="375" y="255" on="0"/>
        <pt x="375" y="198" on="1"/>
        <pt x="375" y="93" on="1"/>
        <pt x="375" y="45" on="0"/>
        <pt x="318" y="-10" on="0"/>
        <pt x="267" y="-10" on="1"/>
        <pt x="216" y="-10" on="1"/>
        <pt x="168" y="-15" on="1"/>
        <pt x="161" y="13" on="0"/>
        <pt x="161" y="54" on="0"/>
        <pt x="175" y="54" on="1"/>
        <pt x="259" y="54" on="1"/>
        <pt x="300" y="54" on="0"/>
        <pt x="300" y="103" on="1"/>
        <pt x="300" y="174" on="1"/>
        <pt x="300" y="211" on="0"/>
        <pt x="274" y="227" on="1"/>
        <pt x="223" y="259" on="1"/>
        <pt x="178" y="286" on="0"/>
        <pt x="178" y="340" on="1"/>
        <pt x="178" y="375" on="1"/>
        <pt x="178" y="402" on="0"/>
        <pt x="247" y="507" on="0"/>
        <pt x="247" y="544" on="1"/>
        <pt x="247" y="593" on="1"/>
        <pt x="247" y="636" on="0"/>
        <pt x="124" y="636" on="0"/>
        <pt x="124" y="591" on="1"/>
      </contour>
    </TTGlyph>
    <TTGlyph name="grave" xMin="115" yMin="528" xMax="235" yMax="686">
      <contour>
        <pt x="233" y="560" on="1"/>
        <pt x="235" y="557" on="0"/>
        <pt x="235" y="549" on="0"/>
        <pt x="230" y="546" on="1"/>
        <pt x="194" y="528" on="1"/>
        <pt x="187" y="541" on="0"/>
        <pt x="176" y="558" on="1"/>
        <pt x="118" y="643" on="1"/>
        <pt x="115" y="648" on="0"/>
        <pt x="115" y="652" on="1"/>
        <pt x="115" y="659" on="0"/>
        <pt x="166" y="680" on="0"/>
        <pt x="176" y="683" on="1"/>
        <pt x="186" y="686" on="1"/>
        <pt x="190" y="663" on="0"/>
        <pt x="199" y="642" on="1"/>
      </contour>
    </TTGlyph>
    <TTGlyph name="greater" xMin="21" yMin="-13" xMax="373" yMax="573">
      <contour>
        <pt x="21" y="512" on="1"/>
        <pt x="31" y="544" on="0"/>
        <pt x="60" y="572" on="0"/>
        <pt x="72" y="572" on="0"/>
        <pt x="76" y="568" on="1"/>
        <pt x="373" y="280" on="1"/>
        <pt x="120" y="37" on="1"/>
        <pt x="102" y="20" on="0"/>
        <pt x="83" y="-13" on="1"/>
        <pt x="51" y="-3" on="0"/>
        <pt x="16" y="32" on="0"/>
        <pt x="27" y="42" on="1"/>
        <pt x="279" y="281" on="1"/>
        <pt x="71" y="475" on="1"/>
        <pt x="48" y="496" on="0"/>
      </contour>
    </TTGlyph>
    <TTGlyph name="guillemotleft" xMin="8" yMin="-10" xMax="387" yMax="499">
      <contour>
        <pt x="173" y="-5" on="1"/>
        <pt x="165" y="-9" on="0"/>
        <pt x="152" y="-9" on="0"/>
        <pt x="148" y="-2" on="1"/>
        <pt x="8" y="242" on="1"/>
        <pt x="123" y="441" on="1"/>
        <pt x="135" y="462" on="0"/>
        <pt x="146" y="499" on="1"/>
        <pt x="180" y="497" on="0"/>
        <pt x="221" y="473" on="0"/>
        <pt x="214" y="460" on="1"/>
        <pt x="86" y="241" on="1"/>
        <pt x="177" y="86" on="1"/>
        <pt x="191" y="62" on="0"/>
        <pt x="216" y="37" on="1"/>
        <pt x="196" y="8" on="0"/>
      </contour>
      <contour>
        <pt x="316" y="499" on="1"/>
        <pt x="350" y="497" on="0"/>
        <pt x="386" y="476" on="0"/>
        <pt x="386" y="464" on="0"/>
        <pt x="384" y="460" on="1"/>
        <pt x="256" y="241" on="1"/>
        <pt x="347" y="86" on="1"/>
        <pt x="361" y="62" on="0"/>
        <pt x="386" y="37" on="1"/>
        <pt x="366" y="8" on="0"/>
        <pt x="343" y="-5" on="1"/>
        <pt x="335" y="-9" on="0"/>
        <pt x="322" y="-9" on="0"/>
        <pt x="318" y="-2" on="1"/>
        <pt x="178" y="242" on="1"/>
        <pt x="293" y="441" on="1"/>
        <pt x="305" y="462" on="0"/>
      </contour>
    </TTGlyph>
    <TTGlyph name="guillemotright" xMin="17" yMin="-11" xMax="396" yMax="498">
      <contour>
        <pt x="231" y="493" on="1"/>
        <pt x="239" y="497" on="0"/>
        <pt x="252" y="497" on="0"/>
        <pt x="256" y="490" on="1"/>
        <pt x="396" y="246" on="1"/>
        <pt x="281" y="47" on="1"/>
        <pt x="269" y="26" on="0"/>
        <pt x="258" y="-11" on="1"/>
        <pt x="224" y="-9" on="0"/>
        <pt x="183" y="15" on="0"/>
        <pt x="190" y="28" on="1"/>
        <pt x="318" y="247" on="1"/>
        <pt x="227" y="402" on="1"/>
        <pt x="213" y="426" on="0"/>
        <pt x="188" y="451" on="1"/>
        <pt x="208" y="480" on="0"/>
      </contour>
      <contour>
        <pt x="88" y="-11" on="1"/>
        <pt x="54" y="-9" on="0"/>
        <pt x="18" y="12" on="0"/>
        <pt x="18" y="24" on="0"/>
        <pt x="20" y="28" on="1"/>
        <pt x="148" y="247" on="1"/>
        <pt x="57" y="402" on="1"/>
        <pt x="43" y="426" on="0"/>
        <pt x="18" y="451" on="1"/>
        <pt x="38" y="480" on="0"/>
        <pt x="61" y="493" on="1"/>
        <pt x="69" y="497" on="0"/>
        <pt x="82" y="497" on="0"/>
        <pt x="86" y="490" on="1"/>
        <pt x="226" y="246" on="1"/>
        <pt x="111" y="47" on="1"/>
        <pt x="99" y="26" on="0"/>
      </contour>
    </TTGlyph>
    <TTGlyph name="guilsinglleft" xMin="8" yMin="-10" xMax="217" yMax="499">
      <contour>
        <pt x="146" y="499" on="1"/>
        <pt x="180" y="497" on="0"/>
        <pt x="216" y="476" on="0"/>
        <pt x="216" y="464" on="0"/>
        <pt x="214" y="460" on="1"/>
        <pt x="86" y="241" on="1"/>
        <pt x="177" y="86" on="1"/>
        <pt x="191" y="62" on="0"/>
        <pt x="216" y="37" on="1"/>
        <pt x="196" y="8" on="0"/>
        <pt x="173" y="-5" on="1"/>
        <pt x="165" y="-9" on="0"/>
        <pt x="152" y="-9" on="0"/>
        <pt x="148" y="-2" on="1"/>
        <pt x="8" y="242" on="1"/>
        <pt x="123" y="441" on="1"/>
        <pt x="135" y="462" on="0"/>
      </contour>
    </TTGlyph>
</ttFont>
